<svg width="170" height="110" viewBox="0 0 170 110" fill="none" xmlns="http://www.w3.org/2000/svg">
<rect width="170" height="110" rx="26" fill="#C8E6C9"/>
<rect x="6.25" y="8.25" width="33.1836" height="33.1836" rx="16.5918" stroke="#898A8F" stroke-width="0.5"/>
<path d="M17.1546 28.3966C17.702 28.3288 18.0893 27.8319 18.0215 27.2845L17.3608 21.8373L29.3252 31.1637C29.759 31.5019 30.3905 31.4236 30.7287 30.9899C31.0668 30.5561 30.9886 29.9245 30.5548 29.5864L18.5904 20.2599L24.0359 19.5852C24.5833 19.5174 24.9706 19.0205 24.9028 18.4732C24.835 17.9258 24.3381 17.5385 23.7907 17.6063L15.9374 18.5722C15.39 18.64 15.0027 19.1369 15.0705 19.6842L16.0426 27.5297C16.1165 28.0692 16.6213 28.4627 17.1546 28.3966Z" fill="#323232"/>
<path d="M58.7105 96V94.672H60.4225V96H58.7105ZM52.5985 96C51.5212 96 50.6198 95.872 49.8945 95.616C49.1692 95.3493 48.6198 94.9547 48.2465 94.432C47.8838 93.9093 47.7025 93.2427 47.7025 92.432C47.7025 92.176 47.7185 91.904 47.7505 91.616C47.7932 91.3173 47.8358 91.0293 47.8785 90.752C47.9318 90.4747 47.9798 90.2347 48.0225 90.032C48.0652 89.8293 48.0972 89.6853 48.1185 89.6L49.5745 89.872C49.5425 90.0427 49.4945 90.272 49.4305 90.56C49.3772 90.848 49.3238 91.1573 49.2705 91.488C49.2172 91.8187 49.1905 92.1333 49.1905 92.432C49.1905 92.8267 49.2545 93.168 49.3825 93.456C49.5105 93.744 49.7078 93.9787 49.9745 94.16C50.2518 94.3413 50.6038 94.4747 51.0305 94.56C51.4678 94.6347 52.0012 94.672 52.6305 94.672H57.2065V87.984H58.7105V96H52.5985ZM60.4225 96V94.672C60.4865 94.672 60.5398 94.688 60.5825 94.72C60.6252 94.752 60.6572 94.7947 60.6785 94.848C60.6998 94.9013 60.7158 94.9707 60.7265 95.056C60.7372 95.1307 60.7425 95.2213 60.7425 95.328C60.7425 95.424 60.7372 95.5147 60.7265 95.6C60.7158 95.6853 60.6998 95.76 60.6785 95.824C60.6572 95.8773 60.6252 95.92 60.5825 95.952C60.5398 95.984 60.4865 96 60.4225 96ZM52.5025 99.024V97.472H54.0065V99.024H52.5025ZM63.8139 96V94.672H65.5419V96H63.8139ZM60.4219 96C60.3579 96 60.3045 95.984 60.2619 95.952C60.2192 95.92 60.1872 95.8773 60.1659 95.824C60.1445 95.76 60.1285 95.6853 60.1179 95.6C60.1072 95.5147 60.1019 95.424 60.1019 95.328C60.1019 95.1893 60.1125 95.072 60.1339 94.976C60.1445 94.88 60.1765 94.8053 60.2299 94.752C60.2725 94.6987 60.3365 94.672 60.4219 94.672V96ZM62.3259 96V84.576H63.8139V96H62.3259ZM60.4219 96V94.672H62.3259V96H60.4219ZM65.5419 96V94.672C65.5952 94.672 65.6432 94.688 65.6859 94.72C65.7285 94.752 65.7605 94.7947 65.7819 94.848C65.8032 94.9013 65.8192 94.9707 65.8299 95.056C65.8512 95.1307 65.8619 95.2213 65.8619 95.328C65.8619 95.424 65.8512 95.5147 65.8299 95.6C65.8192 95.6853 65.8032 95.76 65.7819 95.824C65.7605 95.8773 65.7285 95.92 65.6859 95.952C65.6432 95.984 65.5952 96 65.5419 96ZM65.5469 96V94.672H76.3149L74.9709 95.856V92.192C74.9709 91.5413 74.8802 91.008 74.6989 90.592C74.5282 90.1653 74.2669 89.8507 73.9149 89.648C73.5629 89.4347 73.1255 89.328 72.6029 89.328C72.1442 89.328 71.7122 89.408 71.3069 89.568C70.9015 89.728 70.5282 89.9413 70.1869 90.208C69.8455 90.464 69.5255 90.7467 69.2269 91.056C68.9282 91.3653 68.6562 91.6747 68.4109 91.984C68.1762 92.2933 67.9629 92.5707 67.7709 92.816L67.3229 91.568C67.6855 91.1093 68.0429 90.672 68.3949 90.256C68.7469 89.8293 69.1255 89.4453 69.5309 89.104C69.9469 88.7627 70.4055 88.4907 70.9069 88.288C71.4189 88.0853 72.0055 87.984 72.6669 87.984C73.4135 87.984 74.0322 88.112 74.5229 88.368C75.0135 88.624 75.3975 88.96 75.6749 89.376C75.9629 89.792 76.1655 90.2507 76.2829 90.752C76.4002 91.2427 76.4589 91.7227 76.4589 92.192V96H65.5469ZM66.6189 94.672V84.576H68.1069V94.672H66.6189ZM65.5469 96C65.4829 96 65.4295 95.984 65.3869 95.952C65.3442 95.92 65.3122 95.8773 65.2909 95.824C65.2695 95.76 65.2535 95.6853 65.2429 95.6C65.2322 95.5147 65.2269 95.424 65.2269 95.328C65.2269 95.1893 65.2375 95.072 65.2589 94.976C65.2695 94.88 65.3015 94.8053 65.3549 94.752C65.3975 94.6987 65.4615 94.672 65.5469 94.672V96ZM85.445 96C84.517 96 83.7863 95.8613 83.253 95.584C82.7197 95.296 82.3357 94.8587 82.101 94.272C81.877 93.6747 81.765 92.9227 81.765 92.016C81.765 91.0987 81.877 90.3413 82.101 89.744C82.3357 89.1467 82.7197 88.704 83.253 88.416C83.7863 88.128 84.517 87.984 85.445 87.984H88.837V95.264H87.349V88.8L87.957 89.328H85.445C84.8797 89.328 84.437 89.3973 84.117 89.536C83.797 89.664 83.573 89.9253 83.445 90.32C83.317 90.704 83.253 91.2693 83.253 92.016C83.253 92.752 83.317 93.312 83.445 93.696C83.573 94.0693 83.7917 94.3253 84.101 94.464C84.421 94.6027 84.869 94.672 85.445 94.672H90.549V96H85.445ZM90.549 96V94.672C90.613 94.672 90.6663 94.688 90.709 94.72C90.7517 94.752 90.7837 94.7947 90.805 94.848C90.8263 94.9013 90.8423 94.9707 90.853 95.056C90.8637 95.1307 90.869 95.2213 90.869 95.328C90.869 95.424 90.8637 95.5147 90.853 95.6C90.8423 95.6853 90.8263 95.76 90.805 95.824C90.7837 95.8773 90.7517 95.92 90.709 95.952C90.6663 95.984 90.613 96 90.549 96ZM83.653 86.544V84.992H85.125V86.544H83.653ZM86.037 86.544V84.992H87.509V86.544H86.037ZM90.5469 96V94.672H98.4509L97.6829 95.344V88.8L98.3069 89.328H95.7789C95.2029 89.328 94.7549 89.3973 94.4349 89.536C94.1149 89.6747 93.8909 89.936 93.7629 90.32C93.6455 90.704 93.5869 91.264 93.5869 92C93.5869 92.736 93.6455 93.296 93.7629 93.68C93.8909 94.064 94.1149 94.3253 94.4349 94.464C94.7549 94.6027 95.2029 94.672 95.7789 94.672V95.712C94.8509 95.712 94.1202 95.5947 93.5869 95.36C93.0535 95.1253 92.6695 94.736 92.4349 94.192C92.2109 93.648 92.0989 92.9173 92.0989 92C92.0989 91.0933 92.2109 90.3467 92.4349 89.76C92.6695 89.1627 93.0535 88.72 93.5869 88.432C94.1202 88.1333 94.8509 87.984 95.7789 87.984H99.1709V96H90.5469ZM90.5469 96C90.4829 96 90.4295 95.984 90.3869 95.952C90.3442 95.92 90.3122 95.8773 90.2909 95.824C90.2695 95.76 90.2535 95.6853 90.2429 95.6C90.2322 95.5147 90.2269 95.424 90.2269 95.328C90.2269 95.1893 90.2375 95.072 90.2589 94.976C90.2695 94.88 90.3015 94.8053 90.3549 94.752C90.3975 94.6987 90.4615 94.672 90.5469 94.672V96ZM95.2669 86.544V84.992H96.7709V86.544H95.2669ZM103.351 96V94.672H105.271V96H103.351ZM101.863 96V84.576H103.351V96H101.863ZM105.271 96V94.672C105.325 94.672 105.373 94.688 105.415 94.72C105.458 94.752 105.49 94.7947 105.511 94.848C105.533 94.9013 105.549 94.9707 105.559 95.056C105.581 95.1307 105.591 95.2213 105.591 95.328C105.591 95.424 105.581 95.5147 105.559 95.6C105.549 95.6853 105.533 95.76 105.511 95.824C105.49 95.8773 105.458 95.92 105.415 95.952C105.373 95.984 105.325 96 105.271 96ZM105.266 96V94.672H117.17L115.826 95.856V92.192C115.826 91.5413 115.735 91.008 115.554 90.592C115.383 90.1653 115.122 89.8507 114.77 89.648C114.418 89.4347 113.98 89.328 113.458 89.328C112.999 89.328 112.567 89.408 112.162 89.568C111.756 89.728 111.383 89.9413 111.042 90.208C110.7 90.464 110.38 90.7467 110.082 91.056C109.783 91.3653 109.511 91.6747 109.266 91.984C109.031 92.2933 108.818 92.5707 108.626 92.816L108.194 91.568C108.503 91.1947 108.802 90.832 109.09 90.48C109.378 90.1173 109.671 89.7867 109.97 89.488C110.279 89.1893 110.604 88.928 110.946 88.704C111.298 88.48 111.682 88.304 112.098 88.176C112.524 88.048 113.004 87.984 113.538 87.984C114.284 87.984 114.903 88.112 115.394 88.368C115.884 88.624 116.268 88.96 116.546 89.376C116.834 89.792 117.036 90.2507 117.154 90.752C117.271 91.2427 117.33 91.7227 117.33 92.192V96H105.266ZM107.474 94.672V87.984H108.962V94.672H107.474ZM105.266 96C105.202 96 105.148 95.984 105.106 95.952C105.063 95.92 105.031 95.8773 105.01 95.824C104.988 95.76 104.972 95.6853 104.962 95.6C104.951 95.5147 104.946 95.424 104.946 95.328C104.946 95.1893 104.956 95.072 104.978 94.976C104.988 94.88 105.02 94.8053 105.074 94.752C105.116 94.6987 105.18 94.672 105.266 94.672V96ZM111.826 86.56V85.008H113.33V86.56H111.826ZM120.004 96V84.576H121.492V96H120.004ZM119.956 100.432C119.775 100.208 119.636 99.9893 119.54 99.776C119.444 99.5733 119.396 99.3547 119.396 99.12C119.396 98.8 119.476 98.512 119.636 98.256C119.807 98 120.025 97.7973 120.292 97.648C120.569 97.4987 120.863 97.424 121.172 97.424C121.353 97.424 121.535 97.4507 121.716 97.504C121.897 97.5573 122.057 97.6267 122.196 97.712L121.748 98.496C121.663 98.4427 121.577 98.4053 121.492 98.384C121.407 98.3733 121.321 98.368 121.236 98.368C120.98 98.368 120.783 98.4373 120.644 98.576C120.505 98.7147 120.436 98.896 120.436 99.12C120.436 99.2587 120.463 99.3867 120.516 99.504C120.569 99.632 120.655 99.7707 120.772 99.92L119.956 100.432ZM119.076 100.464V99.536H122.42V100.464H119.076Z" fill="black"/>
</svg>
