<svg width="17" height="16" viewBox="0 0 17 16" fill="none" xmlns="http://www.w3.org/2000/svg">
<path d="M10.1465 13.354L5.14646 8.35403C5.09997 8.30759 5.06309 8.25245 5.03793 8.19175C5.01277 8.13105 4.99982 8.06599 4.99982 8.00028C4.99982 7.93457 5.01277 7.86951 5.03793 7.80881C5.06309 7.74811 5.09997 7.69296 5.14646 7.64653L10.1465 2.64653C10.2403 2.55271 10.3675 2.5 10.5002 2.5C10.6329 2.5 10.7601 2.55271 10.854 2.64653C10.9478 2.74035 11.0005 2.8676 11.0005 3.00028C11.0005 3.13296 10.9478 3.26021 10.854 3.35403L6.20709 8.00028L10.854 12.6465C10.9004 12.693 10.9373 12.7481 10.9624 12.8088C10.9875 12.8695 11.0005 12.9346 11.0005 13.0003C11.0005 13.066 10.9875 13.131 10.9624 13.1917C10.9373 13.2524 10.9004 13.3076 10.854 13.354C10.8075 13.4005 10.7524 13.4373 10.6917 13.4625C10.631 13.4876 10.5659 13.5006 10.5002 13.5006C10.4345 13.5006 10.3695 13.4876 10.3088 13.4625C10.2481 13.4373 10.1929 13.4005 10.1465 13.354Z" fill="#6A6A6A"/>
</svg>
