<svg width="45" height="44" viewBox="0 0 45 44" fill="none" xmlns="http://www.w3.org/2000/svg">
<rect x="0.5" width="44" height="44" rx="6" fill="#E4F3E5"/>
<path d="M10.7797 26.11C10.2077 26.11 9.73832 26.0257 9.37166 25.857C9.01232 25.6883 8.72999 25.439 8.52466 25.109C8.31932 24.779 8.17632 24.372 8.09566 23.888C8.02232 23.404 7.98566 22.8467 7.98566 22.216C7.98566 21.5707 8.02232 21.0023 8.09566 20.511C8.17632 20.0197 8.31932 19.609 8.52466 19.279C8.72999 18.949 9.01232 18.6997 9.37166 18.531C9.73832 18.3623 10.2077 18.278 10.7797 18.278C11.0437 18.278 11.304 18.2927 11.5607 18.322C11.8247 18.344 12.0703 18.377 12.2977 18.421C12.525 18.4577 12.7193 18.4943 12.8807 18.531L12.8477 19.268C12.6863 19.2387 12.4883 19.2093 12.2537 19.18C12.019 19.1507 11.7807 19.125 11.5387 19.103C11.2967 19.081 11.0767 19.07 10.8787 19.07C10.4607 19.07 10.1197 19.1323 9.85566 19.257C9.59899 19.3817 9.40099 19.576 9.26166 19.84C9.12232 20.0967 9.02699 20.423 8.97566 20.819C8.92432 21.2077 8.89866 21.6733 8.89866 22.216C8.89866 22.744 8.92432 23.206 8.97566 23.602C9.02699 23.9907 9.11866 24.3133 9.25066 24.57C9.38999 24.8193 9.59166 25.0063 9.85566 25.131C10.1197 25.2557 10.4643 25.318 10.8897 25.318C11.1977 25.318 11.535 25.2997 11.9017 25.263C12.2757 25.219 12.591 25.175 12.8477 25.131L12.8807 25.879C12.7047 25.9157 12.4993 25.9523 12.2647 25.989C12.03 26.0257 11.7843 26.055 11.5277 26.077C11.271 26.099 11.0217 26.11 10.7797 26.11ZM14.0681 26V24.713H15.0031V26H14.0681ZM16.6506 26V18.399H19.4226C19.9212 18.399 20.3356 18.465 20.6656 18.597C21.0029 18.729 21.2559 18.938 21.4246 19.224C21.6006 19.51 21.6886 19.8803 21.6886 20.335C21.6886 20.6577 21.6482 20.9327 21.5676 21.16C21.4942 21.38 21.3879 21.5633 21.2486 21.71C21.1092 21.8567 20.9369 21.9813 20.7316 22.084C20.9516 22.1573 21.1496 22.2637 21.3256 22.403C21.5089 22.5423 21.6519 22.7293 21.7546 22.964C21.8646 23.1987 21.9196 23.4993 21.9196 23.866C21.9196 24.262 21.8646 24.5993 21.7546 24.878C21.6446 25.1493 21.4832 25.3693 21.2706 25.538C21.0652 25.6993 20.8159 25.8167 20.5226 25.89C20.2366 25.9633 19.9139 26 19.5546 26H16.6506ZM17.5306 25.23H19.5216C19.8296 25.23 20.0936 25.1897 20.3136 25.109C20.5409 25.0283 20.7169 24.889 20.8416 24.691C20.9662 24.4857 21.0286 24.1997 21.0286 23.833C21.0286 23.547 20.9736 23.316 20.8636 23.14C20.7609 22.964 20.6289 22.832 20.4676 22.744C20.3062 22.656 20.1376 22.5973 19.9616 22.568C19.7856 22.5387 19.6242 22.524 19.4776 22.524H17.5306V25.23ZM17.5306 21.754H19.4666C19.7819 21.754 20.0349 21.7063 20.2256 21.611C20.4236 21.5083 20.5666 21.358 20.6546 21.16C20.7499 20.962 20.7976 20.7127 20.7976 20.412C20.7976 19.9793 20.6802 19.664 20.4456 19.466C20.2182 19.268 19.8662 19.169 19.3896 19.169H17.5306V21.754ZM23.2311 26V24.713H24.1661V26H23.2311ZM28.2035 26.11C27.6315 26.11 27.1622 26.0257 26.7955 25.857C26.4362 25.6883 26.1538 25.439 25.9485 25.109C25.7432 24.779 25.6002 24.372 25.5195 23.888C25.4462 23.404 25.4095 22.8467 25.4095 22.216C25.4095 21.5707 25.4462 21.0023 25.5195 20.511C25.6002 20.0197 25.7432 19.609 25.9485 19.279C26.1538 18.949 26.4362 18.6997 26.7955 18.531C27.1622 18.3623 27.6315 18.278 28.2035 18.278C28.4675 18.278 28.7278 18.2927 28.9845 18.322C29.2485 18.344 29.4942 18.377 29.7215 18.421C29.9488 18.4577 30.1432 18.4943 30.3045 18.531L30.2715 19.268C30.1102 19.2387 29.9122 19.2093 29.6775 19.18C29.4428 19.1507 29.2045 19.125 28.9625 19.103C28.7205 19.081 28.5005 19.07 28.3025 19.07C27.8845 19.07 27.5435 19.1323 27.2795 19.257C27.0228 19.3817 26.8248 19.576 26.6855 19.84C26.5462 20.0967 26.4508 20.423 26.3995 20.819C26.3482 21.2077 26.3225 21.6733 26.3225 22.216C26.3225 22.744 26.3482 23.206 26.3995 23.602C26.4508 23.9907 26.5425 24.3133 26.6745 24.57C26.8138 24.8193 27.0155 25.0063 27.2795 25.131C27.5435 25.2557 27.8882 25.318 28.3135 25.318C28.6215 25.318 28.9588 25.2997 29.3255 25.263C29.6995 25.219 30.0148 25.175 30.2715 25.131L30.3045 25.879C30.1285 25.9157 29.9232 25.9523 29.6885 25.989C29.4538 26.0257 29.2082 26.055 28.9515 26.077C28.6948 26.099 28.4455 26.11 28.2035 26.11ZM31.4919 26V24.713H32.4269V26H31.4919ZM35.174 26V19.191H32.853V18.399H38.353V19.191H36.054V26H35.174Z" fill="#4CAF50"/>
</svg>
