<svg width="44" height="44" viewBox="0 0 44 44" fill="none" xmlns="http://www.w3.org/2000/svg">
<rect width="44" height="44" rx="6" fill="#E4F3E5"/>
<path d="M18.625 22.75H13.75C13.5424 22.7492 13.3373 22.7055 13.1475 22.6214C12.9577 22.5373 12.7875 22.4148 12.6475 22.2615C12.5055 22.1059 12.3974 21.9224 12.3301 21.7228C12.2628 21.5231 12.2378 21.3117 12.2565 21.1018C12.3839 19.6965 12.8153 18.3358 13.5207 17.1137C14.2262 15.8917 15.1889 14.8377 16.3422 14.0246C16.5125 13.9041 16.7062 13.8205 16.9107 13.7791C17.1152 13.7377 17.3261 13.7394 17.5299 13.7841C17.7337 13.8289 17.926 13.9156 18.0944 14.0389C18.2627 14.1622 18.4035 14.3192 18.5078 14.5L20.9453 18.7187C20.9945 18.804 21.0265 18.8982 21.0393 18.9959C21.0522 19.0935 21.0457 19.1928 21.0202 19.2879C20.9947 19.3831 20.9507 19.4723 20.8907 19.5504C20.8307 19.6286 20.7559 19.6941 20.6706 19.7434C20.5853 19.7926 20.4911 19.8246 20.3934 19.8374C20.2958 19.8503 20.1965 19.8438 20.1014 19.8183C20.0062 19.7928 19.917 19.7488 19.8389 19.6888C19.7607 19.6288 19.6952 19.554 19.6459 19.4687L17.2084 15.25C16.2324 15.9375 15.4176 16.829 14.8204 17.8628C14.2232 18.8966 13.858 20.0479 13.75 21.2368C13.7498 21.2397 13.7503 21.2425 13.7514 21.2451C13.7526 21.2477 13.7543 21.25 13.7565 21.2518L18.625 21.25C18.8239 21.25 19.0147 21.329 19.1553 21.4696C19.296 21.6103 19.375 21.801 19.375 22C19.375 22.1989 19.296 22.3896 19.1553 22.5303C19.0147 22.6709 18.8239 22.75 18.625 22.75ZM31.7434 21.1018C31.6161 19.6965 31.1847 18.3358 30.4792 17.1137C29.7738 15.8917 28.8111 14.8377 27.6578 14.0246C27.4874 13.9041 27.2938 13.8205 27.0893 13.7791C26.8848 13.7377 26.6739 13.7394 26.47 13.7841C26.2662 13.8289 26.074 13.9156 25.9056 14.0389C25.7372 14.1622 25.5964 14.3192 25.4922 14.5L23.0594 18.7187C23.0101 18.804 22.9781 18.8982 22.9653 18.9959C22.9525 19.0935 22.959 19.1928 22.9845 19.2879C23.036 19.4801 23.1617 19.6439 23.334 19.7434C23.5063 19.8428 23.7111 19.8698 23.9033 19.8183C23.9984 19.7928 24.0876 19.7488 24.1658 19.6888C24.2439 19.6288 24.3095 19.554 24.3587 19.4687L26.7962 15.25C27.7712 15.9381 28.585 16.8299 29.1814 17.8637C29.7777 18.8974 30.1423 20.0483 30.25 21.2368C30.25 21.2434 30.25 21.2481 30.25 21.25H25.375C25.1761 21.25 24.9853 21.329 24.8446 21.4696C24.704 21.6103 24.625 21.801 24.625 22C24.625 22.1989 24.704 22.3896 24.8446 22.5303C24.9853 22.6709 25.1761 22.75 25.375 22.75H30.25C30.4575 22.7492 30.6627 22.7055 30.8525 22.6214C31.0422 22.5373 31.2125 22.4148 31.3525 22.2615C31.4945 22.1059 31.6025 21.9224 31.6698 21.7228C31.7371 21.5231 31.7622 21.3117 31.7434 21.1018ZM24.3372 24.5481C24.2879 24.4628 24.2224 24.388 24.1442 24.328C24.0661 24.268 23.9769 24.224 23.8817 24.1985C23.7866 24.173 23.6873 24.1665 23.5896 24.1793C23.492 24.1922 23.3978 24.2241 23.3125 24.2734C23.2272 24.3226 23.1524 24.3882 23.0924 24.4664C23.0324 24.5445 22.9884 24.6337 22.9629 24.7288C22.9374 24.824 22.9309 24.9232 22.9437 25.0209C22.9566 25.1186 22.9885 25.2128 23.0378 25.2981L25.4603 29.4915C24.3753 29.9912 23.195 30.25 22.0004 30.25C20.8059 30.25 19.6256 29.9912 18.5406 29.4915L20.9622 25.2981C21.0114 25.2128 21.0434 25.1186 21.0562 25.0209C21.0691 24.9232 21.0625 24.824 21.037 24.7288C21.0115 24.6337 20.9675 24.5445 20.9076 24.4664C20.8476 24.3882 20.7728 24.3226 20.6875 24.2734C20.6022 24.2241 20.508 24.1922 20.4103 24.1793C20.3126 24.1665 20.2134 24.173 20.1182 24.1985C20.0231 24.224 19.9339 24.268 19.8558 24.328C19.7776 24.388 19.712 24.4628 19.6628 24.5481L17.2422 28.7415C17.1379 28.9219 17.0724 29.122 17.0498 29.329C17.0271 29.5361 17.0479 29.7456 17.1107 29.9442C17.1735 30.1428 17.2769 30.3262 17.4145 30.4826C17.5521 30.6391 17.7207 30.7651 17.9097 30.8528C19.1923 31.4439 20.5877 31.75 22 31.75C23.4122 31.75 24.8077 31.4439 26.0903 30.8528C26.2793 30.7651 26.4479 30.6391 26.5854 30.4826C26.723 30.3262 26.8265 30.1428 26.8893 29.9442C26.9521 29.7456 26.9728 29.5361 26.9502 29.329C26.9275 29.122 26.862 28.9219 26.7578 28.7415L24.3372 24.5481ZM22 23.125C22.2225 23.125 22.44 23.059 22.625 22.9354C22.81 22.8117 22.9542 22.636 23.0393 22.4305C23.1245 22.2249 23.1468 21.9987 23.1034 21.7805C23.06 21.5622 22.9528 21.3618 22.7955 21.2045C22.6381 21.0471 22.4377 20.94 22.2195 20.8966C22.0012 20.8532 21.775 20.8754 21.5695 20.9606C21.3639 21.0457 21.1882 21.1899 21.0646 21.3749C20.941 21.5599 20.875 21.7774 20.875 22C20.875 22.2983 20.9935 22.5845 21.2045 22.7954C21.4155 23.0064 21.7016 23.125 22 23.125Z" fill="#4CAF50"/>
</svg>
