<svg width="45" height="44" viewBox="0 0 45 44" fill="none" xmlns="http://www.w3.org/2000/svg">
<rect x="0.5" width="44" height="44" rx="6" fill="#E3F2FD"/>
<path d="M19.1255 22.7502H14.2505C14.0429 22.7495 13.8377 22.7057 13.648 22.6216C13.4582 22.5376 13.2879 22.415 13.148 22.2618C13.006 22.1061 12.8979 21.9226 12.8306 21.723C12.7633 21.5234 12.7382 21.3119 12.757 21.1021C12.8844 19.6968 13.3157 18.336 14.0212 17.114C14.7267 15.892 15.6894 14.8379 16.8427 14.0249C17.013 13.9044 17.2066 13.8208 17.4112 13.7793C17.6157 13.7379 17.8266 13.7397 18.0304 13.7844C18.2342 13.8291 18.4265 13.9159 18.5949 14.0391C18.7632 14.1624 18.904 14.3194 19.0083 14.5002L21.4458 18.7189C21.495 18.8043 21.527 18.8984 21.5398 18.9961C21.5527 19.0938 21.5462 19.193 21.5207 19.2882C21.4951 19.3833 21.4511 19.4725 21.3912 19.5507C21.3312 19.6288 21.2564 19.6944 21.1711 19.7436C21.0858 19.7929 20.9916 19.8248 20.8939 19.8377C20.7963 19.8505 20.697 19.844 20.6019 19.8185C20.5067 19.793 20.4175 19.749 20.3394 19.689C20.2612 19.629 20.1956 19.5543 20.1464 19.4689L17.7089 15.2502C16.7329 15.9377 15.918 16.8293 15.3209 17.8631C14.7237 18.8968 14.3584 20.0481 14.2505 21.2371C14.2503 21.2399 14.2508 21.2428 14.2519 21.2454C14.2531 21.248 14.2548 21.2503 14.257 21.2521L19.1255 21.2502C19.3244 21.2502 19.5151 21.3292 19.6558 21.4699C19.7964 21.6105 19.8755 21.8013 19.8755 22.0002C19.8755 22.1991 19.7964 22.3899 19.6558 22.5305C19.5151 22.6712 19.3244 22.7502 19.1255 22.7502ZM32.2439 21.1021C32.1165 19.6968 31.6852 18.336 30.9797 17.114C30.2743 15.892 29.3115 14.8379 28.1583 14.0249C27.9879 13.9044 27.7943 13.8208 27.5898 13.7793C27.3852 13.7379 27.1743 13.7397 26.9705 13.7844C26.7667 13.8291 26.5745 13.9159 26.4061 14.0391C26.2377 14.1624 26.0969 14.3194 25.9927 14.5002L23.5598 18.7189C23.5106 18.8043 23.4786 18.8984 23.4658 18.9961C23.4529 19.0938 23.4595 19.193 23.485 19.2882C23.5365 19.4803 23.6622 19.6442 23.8345 19.7436C24.0068 19.8431 24.2116 19.87 24.4038 19.8185C24.4989 19.793 24.5881 19.749 24.6663 19.689C24.7444 19.629 24.81 19.5543 24.8592 19.4689L27.2967 15.2502C28.2717 15.9384 29.0855 16.8302 29.6818 17.8639C30.2782 18.8976 30.6428 20.0486 30.7505 21.2371C30.7505 21.2436 30.7505 21.2483 30.7505 21.2502H25.8755C25.6766 21.2502 25.4858 21.3292 25.3451 21.4699C25.2045 21.6105 25.1255 21.8013 25.1255 22.0002C25.1255 22.1991 25.2045 22.3899 25.3451 22.5305C25.4858 22.6712 25.6766 22.7502 25.8755 22.7502H30.7505C30.958 22.7495 31.1632 22.7057 31.353 22.6216C31.5427 22.5376 31.713 22.415 31.853 22.2618C31.995 22.1061 32.103 21.9226 32.1703 21.723C32.2376 21.5234 32.2627 21.3119 32.2439 21.1021ZM24.8377 24.5483C24.7884 24.463 24.7228 24.3882 24.6447 24.3282C24.5665 24.2683 24.4773 24.2243 24.3822 24.1988C24.287 24.1733 24.1878 24.1667 24.0901 24.1796C23.9925 24.1924 23.8983 24.2244 23.813 24.2736C23.7276 24.3229 23.6529 24.3884 23.5929 24.4666C23.5329 24.5447 23.4889 24.6339 23.4634 24.7291C23.4379 24.8242 23.4314 24.9235 23.4442 25.0212C23.4571 25.1188 23.489 25.213 23.5383 25.2983L25.9608 29.4918C24.8758 29.9915 23.6955 30.2502 22.5009 30.2502C21.3064 30.2502 20.1261 29.9915 19.0411 29.4918L21.4627 25.2983C21.5119 25.213 21.5439 25.1188 21.5567 25.0212C21.5696 24.9235 21.563 24.8242 21.5375 24.7291C21.512 24.6339 21.468 24.5447 21.408 24.4666C21.3481 24.3884 21.2733 24.3229 21.188 24.2736C21.1026 24.2244 21.0085 24.1924 20.9108 24.1796C20.8131 24.1667 20.7139 24.1733 20.6187 24.1988C20.5236 24.2243 20.4344 24.2683 20.3562 24.3282C20.2781 24.3882 20.2125 24.463 20.1633 24.5483L17.7427 28.7418C17.6384 28.9221 17.5729 29.1222 17.5503 29.3293C17.5276 29.5363 17.5484 29.7459 17.6112 29.9445C17.674 30.1431 17.7774 30.3265 17.915 30.4829C18.0526 30.6393 18.2212 30.7654 18.4102 30.853C19.6927 31.4441 21.0882 31.7502 22.5005 31.7502C23.9127 31.7502 25.3082 31.4441 26.5908 30.853C26.7797 30.7654 26.9484 30.6393 27.0859 30.4829C27.2235 30.3265 27.327 30.1431 27.3898 29.9445C27.4526 29.7459 27.4733 29.5363 27.4507 29.3293C27.428 29.1222 27.3625 28.9221 27.2583 28.7418L24.8377 24.5483ZM22.5005 23.1252C22.723 23.1252 22.9405 23.0592 23.1255 22.9356C23.3105 22.812 23.4547 22.6363 23.5398 22.4307C23.625 22.2251 23.6473 21.9989 23.6038 21.7807C23.5604 21.5625 23.4533 21.362 23.296 21.2047C23.1386 21.0474 22.9382 20.9402 22.7199 20.8968C22.5017 20.8534 22.2755 20.8757 22.0699 20.9608C21.8644 21.046 21.6887 21.1902 21.5651 21.3752C21.4414 21.5602 21.3755 21.7777 21.3755 22.0002C21.3755 22.2986 21.494 22.5847 21.705 22.7957C21.9159 23.0067 22.2021 23.1252 22.5005 23.1252Z" fill="#1976D2"/>
</svg>
