<svg width="24" height="24" viewBox="0 0 24 24" fill="none" xmlns="http://www.w3.org/2000/svg">
<path fill-rule="evenodd" clip-rule="evenodd" d="M7.2165 16.721C6.91484 16.9058 6.6882 17.1913 6.57662 17.527C6.46504 17.8627 6.4757 18.227 6.60671 18.5556C6.73773 18.8842 6.98067 19.1559 7.29261 19.3228C7.60456 19.4896 7.96543 19.5408 8.31148 19.4674C8.65753 19.3939 8.96649 19.2006 9.18377 18.9214C9.40105 18.6422 9.51267 18.2952 9.49892 17.9417C9.48516 17.5883 9.34691 17.251 9.10859 16.9896C8.87027 16.7281 8.54721 16.5593 8.1965 16.513C8.17777 16.4459 8.1606 16.3784 8.145 16.3105C8.07691 16.0015 8.02351 15.6895 7.985 15.3755C7.94367 15.0581 7.92029 14.7386 7.915 14.4185C7.91419 14.3306 7.91669 14.2427 7.9225 14.155C8.11483 14.0997 8.30733 14.0502 8.5 14.0065C8.7205 13.9565 8.8515 14.2165 8.957 14.4275L9 14.512H14.8745C14.989 14.295 15.2485 13.949 15.5 14.0065C15.7687 14.0678 16.0368 14.14 16.3045 14.223L16.303 14.2235C16.302 14.2225 16.302 14.2228 16.303 14.2245C16.305 14.2315 16.316 14.2645 16.327 14.3345C16.3397 14.4158 16.348 14.52 16.352 14.647C16.359 14.899 16.3445 15.2055 16.315 15.5145C16.285 15.823 16.2405 16.1215 16.1905 16.357C16.1795 16.4093 16.1685 16.457 16.1575 16.5H15.5C15.4072 16.5 15.3162 16.5259 15.2372 16.5748C15.1583 16.6236 15.0945 16.6935 15.053 16.7765L14.553 17.7765C14.5182 17.8459 14.5001 17.9224 14.5 18V19C14.5 19.1326 14.5527 19.2598 14.6464 19.3536C14.7402 19.4473 14.8674 19.5 15 19.5H16V18.5H15.5V18.118L15.809 17.5H17.191L17.5 18.118V18.5H17V19.5H18C18.1326 19.5 18.2598 19.4473 18.3536 19.3536C18.4473 19.2598 18.5 19.1326 18.5 19V18C18.4999 17.9224 18.4818 17.8459 18.447 17.7765L17.947 16.7765C17.9055 16.6935 17.8417 16.6236 17.7628 16.5748C17.6838 16.5259 17.5928 16.5 17.5 16.5H17.182C17.2355 16.2335 17.28 15.9225 17.31 15.6105C17.343 15.2735 17.36 14.924 17.3515 14.619L17.351 14.605C19.345 15.4475 21 16.833 21 18.285V21H3V18.285C3 16.769 4.805 15.325 6.9155 14.4965C6.921 14.8075 6.9505 15.159 6.993 15.4995C7.039 15.867 7.1015 16.2325 7.1705 16.5335C7.1855 16.5978 7.20083 16.6603 7.2165 16.721ZM8 18.5075C8.269 18.5075 8.5 18.2875 8.5 18C8.5 17.713 8.269 17.4925 8 17.4925C7.731 17.4925 7.5 17.7125 7.5 18C7.5 18.287 7.731 18.5075 8 18.5075ZM12 12C13.0609 12 14.0783 11.5786 14.8284 10.8284C15.5786 10.0783 16 9.06087 16 8C16 6.93913 15.5786 5.92172 14.8284 5.17157C14.0783 4.42143 13.0609 4 12 4C10.9391 4 9.92172 4.42143 9.17157 5.17157C8.42143 5.92172 8 6.93913 8 8C8 9.06087 8.42143 10.0783 9.17157 10.8284C9.92172 11.5786 10.9391 12 12 12ZM12 13C14.7615 13 17 10.7615 17 8C17 5.2385 14.7615 3 12 3C9.2385 3 7 5.2385 7 8C7 10.7615 9.2385 13 12 13Z" fill="black"/>
</svg>
