<svg width="44" height="44" viewBox="0 0 44 44" fill="none" xmlns="http://www.w3.org/2000/svg">
<rect width="44" height="44" rx="22" fill="#4CAF50"/>
<path d="M31.3103 16.8784L27.1216 12.6887C26.9823 12.5494 26.8169 12.4389 26.6349 12.3635C26.4529 12.2881 26.2578 12.2493 26.0608 12.2493C25.8638 12.2493 25.6687 12.2881 25.4867 12.3635C25.3047 12.4389 25.1393 12.5494 25 12.6887L13.4397 24.25C13.2998 24.3888 13.1889 24.554 13.1134 24.736C13.0379 24.918 12.9994 25.1132 13 25.3103V29.5C13 29.8978 13.158 30.2793 13.4393 30.5606C13.7207 30.8419 14.1022 31 14.5 31H18.6897C18.8868 31.0006 19.082 30.9621 19.264 30.8866C19.446 30.8111 19.6112 30.7002 19.75 30.5603L31.3103 19C31.4496 18.8607 31.5602 18.6953 31.6356 18.5133C31.711 18.3313 31.7498 18.1362 31.7498 17.9392C31.7498 17.7422 31.711 17.5471 31.6356 17.3651C31.5602 17.1831 31.4496 17.0177 31.3103 16.8784ZM18.6897 29.5H14.5V25.3103L22.75 17.0603L26.9397 21.25L18.6897 29.5ZM28 20.1887L23.8103 16L26.0603 13.75L30.25 17.9387L28 20.1887Z" fill="#FEFEFE"/>
</svg>
