<svg width="20" height="20" viewBox="0 0 20 20" fill="none" xmlns="http://www.w3.org/2000/svg">
<path d="M6.87502 16.875V14.2969C7.41278 14.1592 7.88942 13.8464 8.22979 13.4079C8.57017 12.9694 8.75492 12.4301 8.75492 11.875C8.75492 11.3199 8.57017 10.7806 8.22979 10.3421C7.88942 9.90356 7.41278 9.59081 6.87502 9.45312L6.87502 3.125C6.87502 2.95924 6.80917 2.80027 6.69196 2.68306C6.57475 2.56585 6.41578 2.5 6.25002 2.5C6.08426 2.5 5.92529 2.56585 5.80808 2.68306C5.69087 2.80027 5.62502 2.95924 5.62502 3.125L5.62502 9.45312C5.08726 9.59081 4.61062 9.90356 4.27024 10.3421C3.92987 10.7806 3.74512 11.3199 3.74512 11.875C3.74512 12.4301 3.92987 12.9694 4.27024 13.4079C4.61062 13.8464 5.08726 14.1592 5.62502 14.2969V16.875C5.62502 17.0408 5.69087 17.1997 5.80808 17.3169C5.92529 17.4342 6.08426 17.5 6.25002 17.5C6.41578 17.5 6.57475 17.4342 6.69196 17.3169C6.80917 17.1997 6.87502 17.0408 6.87502 16.875ZM5.00002 11.875C5.00002 11.6278 5.07333 11.3861 5.21068 11.1805C5.34803 10.975 5.54326 10.8148 5.77167 10.7202C6.00007 10.6255 6.25141 10.6008 6.49388 10.649C6.73636 10.6972 6.95909 10.8163 7.1339 10.9911C7.30872 11.1659 7.42777 11.3887 7.476 11.6311C7.52423 11.8736 7.49948 12.1249 7.40487 12.3534C7.31026 12.5818 7.15004 12.777 6.94448 12.9143C6.73892 13.0517 6.49725 13.125 6.25002 13.125C5.9185 13.125 5.60056 12.9933 5.36614 12.7589C5.13172 12.5245 5.00002 12.2065 5.00002 11.875ZM13.125 3.125V4.45312C12.5873 4.59081 12.1106 4.90356 11.7702 5.34207C11.4299 5.78057 11.2451 6.31989 11.2451 6.875C11.2451 7.43011 11.4299 7.96943 11.7702 8.40793C12.1106 8.84644 12.5873 9.15919 13.125 9.29688V16.875C13.125 17.0408 13.1909 17.1997 13.3081 17.3169C13.4253 17.4342 13.5843 17.5 13.75 17.5C13.9158 17.5 14.0748 17.4342 14.192 17.3169C14.3092 17.1997 14.375 17.0408 14.375 16.875V9.29688C14.9128 9.15919 15.3894 8.84644 15.7298 8.40793C16.0702 7.96943 16.2549 7.43011 16.2549 6.875C16.2549 6.31989 16.0702 5.78057 15.7298 5.34207C15.3894 4.90356 14.9128 4.59081 14.375 4.45312V3.125C14.375 2.95924 14.3092 2.80027 14.192 2.68306C14.0748 2.56585 13.9158 2.5 13.75 2.5C13.5843 2.5 13.4253 2.56585 13.3081 2.68306C13.1909 2.80027 13.125 2.95924 13.125 3.125ZM15 6.875C15 7.12223 14.9267 7.3639 14.7894 7.56946C14.652 7.77502 14.4568 7.93524 14.2284 8.02985C14 8.12446 13.7486 8.14921 13.5062 8.10098C13.2637 8.05275 13.041 7.9337 12.8661 7.75888C12.6913 7.58407 12.5723 7.36134 12.524 7.11886C12.4758 6.87639 12.5006 6.62505 12.5952 6.39665C12.6898 6.16824 12.85 5.97301 13.0556 5.83566C13.2611 5.69831 13.5028 5.625 13.75 5.625C14.0815 5.625 14.3995 5.7567 14.6339 5.99112C14.8683 6.22554 15 6.54348 15 6.875Z" fill="#050505"/>
</svg>
