<svg width="14" height="16" viewBox="0 0 14 16" fill="none" xmlns="http://www.w3.org/2000/svg">
<path d="M3.87502 14.875V12.2969C4.41278 12.1592 4.88942 11.8464 5.22979 11.4079C5.57017 10.9694 5.75492 10.4301 5.75492 9.875C5.75492 9.31989 5.57017 8.78057 5.22979 8.34207C4.88942 7.90356 4.41278 7.59081 3.87502 7.45312L3.87502 1.125C3.87502 0.95924 3.80917 0.800268 3.69196 0.683058C3.57475 0.565848 3.41578 0.5 3.25002 0.5C3.08426 0.5 2.92529 0.565848 2.80808 0.683058C2.69087 0.800268 2.62502 0.95924 2.62502 1.125L2.62502 7.45312C2.08726 7.59081 1.61062 7.90356 1.27024 8.34207C0.929869 8.78057 0.745117 9.31989 0.745117 9.875C0.745117 10.4301 0.929869 10.9694 1.27024 11.4079C1.61062 11.8464 2.08726 12.1592 2.62502 12.2969V14.875C2.62502 15.0408 2.69087 15.1997 2.80808 15.3169C2.92529 15.4342 3.08426 15.5 3.25002 15.5C3.41578 15.5 3.57475 15.4342 3.69196 15.3169C3.80917 15.1997 3.87502 15.0408 3.87502 14.875ZM2.00002 9.875C2.00002 9.62777 2.07333 9.3861 2.21068 9.18054C2.34803 8.97498 2.54326 8.81476 2.77167 8.72015C3.00007 8.62554 3.25141 8.60079 3.49388 8.64902C3.73636 8.69725 3.95909 8.8163 4.1339 8.99112C4.30872 9.16593 4.42777 9.38866 4.476 9.63114C4.52423 9.87361 4.49948 10.1249 4.40487 10.3534C4.31026 10.5818 4.15004 10.777 3.94448 10.9143C3.73892 11.0517 3.49725 11.125 3.25002 11.125C2.9185 11.125 2.60056 10.9933 2.36614 10.7589C2.13172 10.5245 2.00002 10.2065 2.00002 9.875ZM10.125 1.125V2.45312C9.58726 2.59081 9.11062 2.90356 8.77024 3.34207C8.42987 3.78057 8.24512 4.31989 8.24512 4.875C8.24512 5.43011 8.42987 5.96943 8.77024 6.40793C9.11062 6.84644 9.58726 7.15919 10.125 7.29688V14.875C10.125 15.0408 10.1909 15.1997 10.3081 15.3169C10.4253 15.4342 10.5843 15.5 10.75 15.5C10.9158 15.5 11.0748 15.4342 11.192 15.3169C11.3092 15.1997 11.375 15.0408 11.375 14.875V7.29688C11.9128 7.15919 12.3894 6.84644 12.7298 6.40793C13.0702 5.96943 13.2549 5.43011 13.2549 4.875C13.2549 4.31989 13.0702 3.78057 12.7298 3.34207C12.3894 2.90356 11.9128 2.59081 11.375 2.45312V1.125C11.375 0.95924 11.3092 0.800268 11.192 0.683058C11.0748 0.565848 10.9158 0.5 10.75 0.5C10.5843 0.5 10.4253 0.565848 10.3081 0.683058C10.1909 0.800268 10.125 0.95924 10.125 1.125ZM12 4.875C12 5.12223 11.9267 5.3639 11.7894 5.56946C11.652 5.77502 11.4568 5.93524 11.2284 6.02985C11 6.12446 10.7486 6.14921 10.5062 6.10098C10.2637 6.05275 10.041 5.9337 9.86614 5.75888C9.69132 5.58407 9.57227 5.36134 9.52404 5.11886C9.47581 4.87639 9.50056 4.62505 9.59517 4.39665C9.68978 4.16824 9.84999 3.97301 10.0556 3.83566C10.2611 3.69831 10.5028 3.625 10.75 3.625C11.0815 3.625 11.3995 3.7567 11.6339 3.99112C11.8683 4.22554 12 4.54348 12 4.875Z" fill="white"/>
</svg>
