<svg width="303" height="143" viewBox="0 0 303 143" fill="none" xmlns="http://www.w3.org/2000/svg">
<g filter="url(#filter0_d_0_1)">
<path d="M174.5 34C174.5 21.8497 164.65 12 152.5 12C140.35 12 130.5 21.8497 130.5 34C130.5 46.1503 140.35 56 152.5 56C164.65 56 174.5 46.1503 174.5 34Z" fill="#4CAF50"/>
<path d="M142.5 42V41C142.5 37.13 145.63 34 149.5 34" stroke="#FEFEFE" stroke-width="1.5" stroke-linecap="round" stroke-linejoin="round"/>
<path d="M156.3 34.3102C156.95 33.6102 158.05 33.6102 158.7 34.3102C159.02 34.6702 159.49 34.8602 159.97 34.8402C160.92 34.8002 161.7 35.5801 161.66 36.5301C161.64 37.0101 161.83 37.4801 162.19 37.8001C162.89 38.4501 162.89 39.55 162.19 40.2C161.83 40.52 161.64 40.9901 161.66 41.4701C161.7 42.4201 160.92 43.2 159.97 43.16C159.49 43.14 159.02 43.33 158.7 43.69C158.05 44.39 156.95 44.39 156.3 43.69C155.98 43.33 155.51 43.14 155.03 43.16C154.08 43.2 153.3 42.4201 153.34 41.4701C153.36 40.9901 153.17 40.52 152.81 40.2C152.11 39.55 152.11 38.4501 152.81 37.8001C153.17 37.4801 153.36 37.0101 153.34 36.5301C153.3 35.5801 154.08 34.8002 155.03 34.8402C155.51 34.8602 155.98 34.6702 156.3 34.3102Z" stroke="#FEFEFE" stroke-width="1.5"/>
<path d="M155.859 39L156.95 40.0901L159.14 37.9099" stroke="#FEFEFE" stroke-width="1.5" stroke-linecap="round" stroke-linejoin="round"/>
<path d="M149.5 34C151.71 34 153.5 32.21 153.5 30C153.5 27.79 151.71 26 149.5 26C147.29 26 145.5 27.79 145.5 30C145.5 32.21 147.29 34 149.5 34Z" stroke="#FEFEFE" stroke-width="1.5" stroke-linecap="round" stroke-linejoin="round"/>
</g>
<path d="M92.6406 99.46C91.6706 99.46 90.7905 99.2799 90.0005 98.9199C89.2205 98.5799 88.6006 98.0799 88.1406 97.4299C87.7006 96.7899 87.4805 96.07 87.4805 95.25C87.4805 95 87.5003 94.67 87.5303 94.26C87.5803 93.85 87.6304 93.3999 87.6904 92.8899C87.7704 92.3899 87.8406 91.8801 87.9106 91.3601C87.9906 90.8501 88.0706 90.3501 88.1406 89.8701L89.8203 90.1201C89.6903 90.9501 89.5704 91.7099 89.4604 92.4099C89.3604 93.0899 89.2807 93.6799 89.2207 94.1699C89.1807 94.6499 89.1504 95.01 89.1504 95.25C89.1504 95.78 89.3006 96.2499 89.5806 96.6599C89.8706 97.0599 90.2805 97.3801 90.8105 97.6101C91.3405 97.8501 91.9506 97.97 92.6406 97.97C93.3406 97.97 93.9306 97.8599 94.4106 97.6299C94.9006 97.4099 95.2705 97.11 95.5205 96.73C95.7805 96.34 95.9004 95.8901 95.9004 95.3601V85.98H97.5903V95.3601C97.5903 96.2101 97.3707 96.9401 96.9307 97.5601C96.4807 98.1701 95.8904 98.64 95.1504 98.96C94.4004 99.3 93.5706 99.46 92.6406 99.46ZM91.7104 85.8201V84.0701H93.4004V85.8201H91.7104ZM99.7705 95V93.51H108.67L107.78 94.4099V82.1499H109.46V95H99.7705ZM102.55 93.51V84.6899H104.221V93.51H102.55ZM101.661 83.48L100.98 82.9399L101.831 81.77H102.871C103.001 81.9 103.171 82.0001 103.371 82.0801C103.591 82.1501 103.8 82.1799 104 82.1799C104.22 82.1799 104.421 82.1501 104.621 82.0901C104.821 82.0201 104.991 81.92 105.121 81.79L105.681 82.24C105.561 82.44 105.4 82.6301 105.21 82.8101C105.03 82.9801 104.821 83.11 104.581 83.21C104.351 83.31 104.081 83.3501 103.771 83.3501C103.491 83.3501 103.23 83.31 102.98 83.23C102.73 83.14 102.501 83.0101 102.311 82.8301L101.661 83.48ZM112.73 95V82.1499H114.4V95H112.73ZM133.44 95V93.51H135.36V95H133.44ZM126.561 95C125.351 95 124.341 94.8601 123.521 94.5701C122.701 94.2701 122.09 93.82 121.67 93.24C121.26 92.65 121.05 91.9 121.05 90.99C121.05 90.7 121.07 90.3901 121.11 90.0701C121.16 89.7301 121.2 89.4101 121.25 89.1001C121.31 88.7801 121.371 88.51 121.411 88.29C121.461 88.06 121.501 87.9 121.521 87.8L123.161 88.1101C123.121 88.3001 123.07 88.5599 123 88.8799C122.94 89.1999 122.88 89.5499 122.82 89.9199C122.76 90.2999 122.73 90.65 122.73 90.99C122.73 91.43 122.8 91.8099 122.94 92.1399C123.09 92.4599 123.31 92.7299 123.61 92.9299C123.92 93.1299 124.32 93.2799 124.8 93.3799C125.29 93.4599 125.891 93.51 126.601 93.51H132.61L131.75 94.1899V82.1499H133.44V95H126.561ZM135.36 95V93.51C135.44 93.51 135.501 93.5201 135.541 93.5601C135.591 93.6001 135.63 93.64 135.65 93.7C135.68 93.76 135.69 93.8399 135.71 93.9399C135.72 94.0199 135.721 94.12 135.721 94.24C135.721 94.35 135.72 94.45 135.71 94.55C135.69 94.65 135.68 94.73 135.65 94.8C135.63 94.86 135.591 94.91 135.541 94.95C135.501 94.98 135.44 95 135.36 95ZM126.351 88.6101C126.141 88.3601 125.99 88.1199 125.88 87.8899C125.77 87.6499 125.721 87.3999 125.721 87.1299C125.721 86.7699 125.811 86.4499 125.991 86.1599C126.181 85.8699 126.421 85.65 126.721 85.48C127.041 85.31 127.37 85.23 127.71 85.23C127.92 85.23 128.121 85.2601 128.331 85.3201C128.531 85.3801 128.711 85.45 128.871 85.55L128.36 86.4299C128.27 86.3699 128.17 86.3401 128.07 86.3201C127.98 86.3001 127.881 86.29 127.791 86.29C127.501 86.29 127.281 86.37 127.121 86.52C126.961 86.68 126.891 86.8799 126.891 87.1299C126.891 87.2899 126.92 87.4401 126.98 87.5801C127.04 87.7201 127.13 87.87 127.26 88.03L126.351 88.6101ZM125.36 88.6499V87.6001H129.121V88.6499H125.36ZM137.661 95V82.1499H139.331V95H137.661ZM135.51 95V93.51H137.661V95H135.51ZM135.51 95C135.44 95 135.381 94.98 135.331 94.95C135.291 94.91 135.25 94.86 135.23 94.8C135.2 94.73 135.18 94.65 135.17 94.55C135.16 94.45 135.15 94.35 135.15 94.24C135.15 94.09 135.17 93.9601 135.19 93.8501C135.2 93.7401 135.24 93.6601 135.3 93.6001C135.35 93.5401 135.42 93.51 135.51 93.51V95ZM149.51 95V93.51H151.431V95H149.51ZM145.081 99.1201C144.651 99.1201 144.19 99.09 143.71 99.01C143.24 98.95 142.731 98.86 142.161 98.74L142.42 97.3899C143.05 97.4699 143.58 97.5201 144 97.5601C144.42 97.5901 144.781 97.6101 145.081 97.6101C146.041 97.6101 146.74 97.4301 147.17 97.0701C147.61 96.7101 147.831 96.19 147.831 95.5V87.04L148.521 87.49H145.69C145.06 87.49 144.561 87.57 144.201 87.73C143.841 87.87 143.59 88.1701 143.44 88.6101C143.3 89.0401 143.23 89.68 143.23 90.52C143.23 91.35 143.3 91.9799 143.44 92.4099C143.59 92.8299 143.831 93.12 144.181 93.27C144.541 93.43 145.04 93.51 145.69 93.51H147.831V95H145.69C144.65 95 143.83 94.84 143.23 94.53C142.63 94.21 142.191 93.7201 141.931 93.0601C141.681 92.3801 141.55 91.54 141.55 90.52C141.55 89.49 141.681 88.63 141.931 87.96C142.191 87.29 142.63 86.79 143.23 86.47C143.83 86.14 144.65 85.98 145.69 85.98H149.51V95.49C149.51 96.25 149.331 96.91 148.971 97.45C148.611 98 148.1 98.4099 147.44 98.6899C146.78 98.9799 145.991 99.1201 145.081 99.1201ZM151.431 95V93.51C151.511 93.51 151.57 93.5201 151.61 93.5601C151.66 93.6001 151.701 93.64 151.721 93.7C151.751 93.76 151.76 93.8399 151.78 93.9399C151.79 94.0199 151.791 94.12 151.791 94.24C151.791 94.35 151.79 94.45 151.78 94.55C151.76 94.65 151.751 94.73 151.721 94.8C151.701 94.86 151.66 94.91 151.61 94.95C151.57 94.98 151.511 95 151.431 95ZM151.581 95V93.51H159.471L158.931 93.96V89.8C158.931 89.04 158.69 88.4701 158.21 88.0901C157.74 87.7001 157.01 87.51 156.01 87.51C155.71 87.51 155.28 87.5401 154.71 87.5801C154.16 87.6301 153.571 87.7 152.951 87.8L152.771 86.4299C153.261 86.3099 153.801 86.2099 154.371 86.1299C154.951 86.0299 155.51 85.98 156.05 85.98C156.98 85.98 157.79 86.1299 158.46 86.4299C159.14 86.7299 159.671 87.17 160.041 87.75C160.411 88.31 160.601 88.99 160.601 89.8V95H151.581ZM151.581 95C151.511 95 151.45 94.98 151.4 94.95C151.35 94.91 151.321 94.86 151.291 94.8C151.271 94.73 151.251 94.65 151.241 94.55C151.231 94.45 151.221 94.35 151.221 94.24C151.221 94.09 151.23 93.9601 151.26 93.8501C151.27 93.7401 151.311 93.6601 151.371 93.6001C151.411 93.5401 151.491 93.51 151.581 93.51V95ZM155.201 84.7V82.96H156.891V84.7H155.201ZM162.541 95V93.51H169.201L167.92 94.6399V90.95C167.92 90.07 167.821 89.3799 167.621 88.8799C167.431 88.3799 167.111 88.0201 166.661 87.8201C166.221 87.6001 165.62 87.49 164.86 87.49H163.411V85.98H164.86C165.86 85.98 166.71 86.14 167.42 86.47C168.13 86.78 168.671 87.3 169.041 88.03C169.411 88.75 169.601 89.73 169.601 90.95V95H162.541ZM185.67 95V93.51H187.59V95H185.67ZM180.721 99.46C179.741 99.46 178.86 99.2799 178.07 98.9199C177.29 98.5799 176.671 98.0799 176.221 97.4299C175.771 96.7899 175.55 96.07 175.55 95.25C175.55 95 175.571 94.67 175.601 94.26C175.651 93.85 175.711 93.3999 175.771 92.8899C175.841 92.3899 175.91 91.8801 175.98 91.3601C176.07 90.8501 176.141 90.3501 176.221 89.8701L177.891 90.1201C177.761 90.9501 177.64 91.7099 177.53 92.4099C177.43 93.0899 177.36 93.6799 177.3 94.1699C177.25 94.6499 177.221 95.01 177.221 95.25C177.221 95.78 177.371 96.2499 177.661 96.6599C177.941 97.0599 178.35 97.3801 178.88 97.6101C179.41 97.8501 180.021 97.97 180.721 97.97C181.411 97.97 182 97.8599 182.48 97.6299C182.97 97.4099 183.341 97.11 183.601 96.73C183.851 96.34 183.971 95.8901 183.971 95.3601V82.1499H185.67V95.3601C185.67 96.2101 185.44 96.9401 185 97.5601C184.56 98.1701 183.961 98.64 183.221 98.96C182.471 99.3 181.641 99.46 180.721 99.46ZM187.59 95V93.51C187.66 93.51 187.721 93.5201 187.771 93.5601C187.821 93.6001 187.86 93.64 187.88 93.7C187.9 93.76 187.921 93.8399 187.931 93.9399C187.951 94.0199 187.951 94.12 187.951 94.24C187.951 94.35 187.951 94.45 187.931 94.55C187.921 94.65 187.9 94.73 187.88 94.8C187.86 94.86 187.821 94.91 187.771 94.95C187.721 94.98 187.66 95 187.59 95ZM196.76 95V93.51H198.701V95H196.76ZM187.741 95C187.671 95 187.611 94.98 187.561 94.95C187.511 94.91 187.481 94.86 187.451 94.8C187.431 94.73 187.41 94.65 187.4 94.55C187.39 94.45 187.38 94.35 187.38 94.24C187.38 94.09 187.39 93.9601 187.42 93.8501C187.43 93.7401 187.47 93.6601 187.53 93.6001C187.57 93.5401 187.651 93.51 187.741 93.51V95ZM187.741 95V93.51H195.63L195.09 93.96V89.8C195.09 89.04 194.851 88.4701 194.371 88.0901C193.901 87.7001 193.17 87.51 192.17 87.51C191.87 87.51 191.441 87.5401 190.871 87.5801C190.321 87.6301 189.73 87.7 189.11 87.8L188.931 86.4299C189.421 86.3099 189.96 86.2099 190.53 86.1299C191.11 86.0299 191.67 85.98 192.21 85.98C193.14 85.98 193.951 86.1299 194.621 86.4299C195.301 86.7299 195.831 87.17 196.201 87.75C196.571 88.31 196.76 88.99 196.76 89.8V95H187.741ZM198.701 95V93.51C198.781 93.51 198.831 93.5201 198.871 93.5601C198.911 93.6001 198.951 93.64 198.971 93.7C199.011 93.76 199.03 93.8399 199.05 93.9399C199.06 94.0199 199.061 94.12 199.061 94.24C199.061 94.35 199.06 94.45 199.05 94.55C199.03 94.65 199.011 94.73 198.971 94.8C198.951 94.86 198.911 94.91 198.871 94.95C198.831 94.98 198.781 95 198.701 95ZM191.471 98.3999V96.6599H193.161V98.3999H191.471ZM208.641 95C208.201 95 207.78 94.92 207.36 94.77C206.95 94.6 206.56 94.34 206.19 93.99L207.25 92.8799C207.51 93.0899 207.751 93.2501 207.971 93.3601C208.191 93.4601 208.411 93.51 208.641 93.51H211.891L211.161 94.23V90.01C211.161 89.8 211.131 89.5001 211.081 89.1101C211.051 88.7201 210.99 88.27 210.9 87.78C210.83 87.28 210.74 86.77 210.63 86.25L212.271 85.98C212.361 86.41 212.441 86.8899 212.521 87.3999C212.611 87.9199 212.681 88.4099 212.741 88.8799C212.801 89.3499 212.831 89.73 212.831 90.01V95H208.641ZM198.86 95V93.51H201.491L201.081 93.9199V87.8H202.75V95H198.86ZM202.75 95V93.51H204.621C205.031 93.51 205.341 93.4501 205.541 93.3301C205.741 93.2101 205.891 92.9701 205.971 92.6101C206.061 92.2501 206.101 91.72 206.101 91.02V86.8999H207.791V91.02C207.791 91.99 207.681 92.7701 207.451 93.3601C207.231 93.9501 206.9 94.3701 206.44 94.6201C205.98 94.8701 205.381 95 204.621 95H202.75ZM198.86 95C198.79 95 198.731 94.98 198.681 94.95C198.631 94.91 198.6 94.86 198.57 94.8C198.55 94.73 198.531 94.65 198.521 94.55C198.511 94.45 198.5 94.35 198.5 94.24C198.5 94.09 198.511 93.9601 198.541 93.8501C198.551 93.7401 198.59 93.6601 198.65 93.6001C198.69 93.5401 198.77 93.51 198.86 93.51V95Z" fill="#1A1A1A"/>
<path d="M3.5498 125V124.15H5.08984V125H3.5498ZM1.58984 127.65C1.48984 127.65 1.38002 127.64 1.27002 127.63C1.15002 127.62 1.02992 127.61 0.919922 127.6L1.02979 126.75C1.13979 126.76 1.24984 126.77 1.33984 126.78C1.43984 126.79 1.51984 126.8 1.58984 126.8C1.96984 126.8 2.26977 126.66 2.50977 126.37C2.73977 126.09 2.8501 125.7 2.8501 125.19V119H3.79004V125.19C3.79004 125.68 3.69 126.11 3.5 126.48C3.32 126.85 3.05998 127.14 2.72998 127.34C2.40998 127.55 2.02984 127.65 1.58984 127.65ZM5.08984 125V124.15C5.12984 124.15 5.16996 124.16 5.20996 124.18C5.23996 124.2 5.25979 124.23 5.27979 124.27C5.28979 124.3 5.31006 124.34 5.31006 124.4C5.32006 124.45 5.33008 124.5 5.33008 124.57C5.33008 124.63 5.32006 124.69 5.31006 124.75C5.31006 124.8 5.28979 124.85 5.27979 124.89C5.25979 124.92 5.23996 124.95 5.20996 124.98C5.16996 124.99 5.12984 125 5.08984 125ZM5.08008 125V124.15H6.81006L6.37988 124.5V119H7.31982V125H5.08008ZM5.08008 125C5.04008 125 4.99996 124.99 4.95996 124.98C4.92996 124.95 4.91014 124.92 4.89014 124.89C4.88014 124.85 4.85986 124.8 4.85986 124.75C4.84986 124.69 4.83984 124.63 4.83984 124.57C4.83984 124.48 4.85012 124.41 4.87012 124.35C4.88012 124.29 4.89994 124.24 4.93994 124.21C4.96994 124.17 5.02008 124.15 5.08008 124.15V125ZM5.56006 127.16V126.08H6.5V127.16H5.56006ZM7.20996 127.16V126.08H8.14014V127.16H7.20996ZM13.9199 125V124.15H15.2202V125H13.9199ZM11.0801 127.65C10.8001 127.65 10.5002 127.63 10.1802 127.58C9.87018 127.54 9.5199 127.48 9.1499 127.4L9.29004 126.64C9.72004 126.7 10.0701 126.74 10.3501 126.76C10.6401 126.79 10.8801 126.8 11.0801 126.8C11.7401 126.8 12.2298 126.67 12.5298 126.42C12.8398 126.17 12.9902 125.8 12.9902 125.32V119.54L13.4702 119.85H11.4399C10.9799 119.85 10.6199 119.91 10.3599 120.02C10.1099 120.13 9.93984 120.34 9.83984 120.66C9.74984 120.96 9.7002 121.41 9.7002 122C9.7002 122.59 9.74984 123.04 9.83984 123.36C9.93984 123.66 10.1099 123.87 10.3599 123.98C10.6199 124.09 10.9799 124.15 11.4399 124.15H12.9902V125H11.4399C10.7399 125 10.2001 124.9 9.81006 124.69C9.42006 124.47 9.15023 124.14 8.99023 123.7C8.84023 123.26 8.75977 122.69 8.75977 122C8.75977 121.31 8.84023 120.75 8.99023 120.31C9.15023 119.86 9.42006 119.53 9.81006 119.32C10.2001 119.11 10.7399 119 11.4399 119H13.9199V125.31C13.9199 125.81 13.8101 126.23 13.5801 126.58C13.3501 126.94 13.0301 127.2 12.6001 127.38C12.1801 127.56 11.6701 127.65 11.0801 127.65ZM15.2202 125V124.15C15.2702 124.15 15.3098 124.16 15.3398 124.18C15.3698 124.2 15.4002 124.23 15.4102 124.27C15.4302 124.3 15.4402 124.34 15.4502 124.4C15.4602 124.45 15.46 124.5 15.46 124.57C15.46 124.63 15.4602 124.69 15.4502 124.75C15.4402 124.8 15.4302 124.85 15.4102 124.89C15.4002 124.92 15.3698 124.95 15.3398 124.98C15.3098 124.99 15.2702 125 15.2202 125ZM24.1602 125V124.15H25.46V125H24.1602ZM15.2202 125C15.1702 125 15.1301 124.99 15.1001 124.98C15.0701 124.95 15.0398 124.92 15.0298 124.89C15.0098 124.85 15.0002 124.8 14.9902 124.75C14.9802 124.69 14.98 124.63 14.98 124.57C14.98 124.48 14.99 124.41 15 124.35C15.01 124.29 15.0401 124.24 15.0801 124.21C15.1101 124.17 15.1602 124.15 15.2202 124.15V125ZM15.2202 125V124.15H24.0898L23.2202 124.93V122.11C23.2202 121.6 23.1498 121.19 23.0098 120.86C22.8698 120.52 22.6599 120.27 22.3799 120.1C22.1099 119.94 21.7701 119.85 21.3501 119.85C21.0001 119.85 20.6701 119.91 20.3701 120.03C20.0701 120.14 19.8 120.3 19.54 120.49C19.28 120.67 19.0398 120.88 18.8198 121.11C18.5998 121.34 18.4002 121.56 18.2202 121.8C18.0402 122.03 17.8702 122.24 17.7202 122.43L17.4199 121.58C17.6199 121.33 17.82 121.08 18.02 120.84C18.22 120.59 18.4402 120.36 18.6602 120.14C18.8902 119.92 19.1299 119.72 19.3999 119.55C19.6699 119.38 19.9598 119.25 20.2798 119.16C20.5998 119.05 20.9599 119 21.3599 119C21.9299 119 22.3998 119.1 22.7598 119.29C23.1198 119.48 23.4099 119.74 23.6099 120.06C23.8199 120.37 23.96 120.7 24.04 121.06C24.12 121.42 24.1602 121.77 24.1602 122.11V125H15.2202ZM16.9199 124.15V119H17.8599V124.15H16.9199ZM25.46 125V124.15C25.5 124.15 25.5401 124.16 25.5801 124.18C25.6101 124.2 25.6299 124.23 25.6499 124.27C25.6599 124.3 25.6802 124.34 25.6802 124.4C25.6902 124.45 25.7002 124.5 25.7002 124.57C25.7002 124.63 25.6902 124.69 25.6802 124.75C25.6802 124.8 25.6599 124.85 25.6499 124.89C25.6299 124.92 25.6101 124.95 25.5801 124.98C25.5401 124.99 25.5 125 25.46 125ZM27.6802 125V124.15H28.98V125H27.6802ZM28.98 125V124.15C29.03 124.15 29.0701 124.16 29.1001 124.18C29.1301 124.2 29.1599 124.23 29.1699 124.27C29.1899 124.3 29.2 124.34 29.21 124.4C29.22 124.45 29.2202 124.5 29.2202 124.57C29.2202 124.63 29.22 124.69 29.21 124.75C29.2 124.8 29.1899 124.85 29.1699 124.89C29.1599 124.92 29.1301 124.95 29.1001 124.98C29.0701 124.99 29.03 125 28.98 125ZM25.4502 125C25.4002 125 25.3601 124.99 25.3301 124.98C25.3001 124.95 25.2798 124.92 25.2598 124.89C25.2398 124.85 25.2302 124.8 25.2202 124.75C25.2202 124.69 25.21 124.63 25.21 124.57C25.21 124.48 25.2202 124.41 25.2402 124.35C25.2402 124.29 25.2701 124.24 25.3101 124.21C25.3401 124.17 25.3902 124.15 25.4502 124.15V125ZM25.4502 125V124.15H27.1802L26.75 124.5V119H27.6802V125H25.4502ZM25.9302 117.92V116.84H26.8701V117.92H25.9302ZM27.5801 117.92V116.84H28.5098V117.92H27.5801ZM30.4302 125V116.4H31.3701V125H30.4302ZM28.98 125V124.15H30.4302V125H28.98ZM28.98 125C28.93 125 28.8899 124.99 28.8599 124.98C28.8299 124.95 28.8 124.92 28.79 124.89C28.77 124.85 28.76 124.8 28.75 124.75C28.74 124.69 28.7402 124.63 28.7402 124.57C28.7402 124.48 28.7498 124.41 28.7598 124.35C28.7698 124.29 28.7901 124.24 28.8301 124.21C28.8701 124.17 28.91 124.15 28.98 124.15V125ZM38.7002 127.98C38.2402 127.98 37.7999 127.91 37.3999 127.77C36.9999 127.64 36.6501 127.46 36.3501 127.22C36.0501 126.99 35.8199 126.71 35.6499 126.38C35.4799 126.05 35.3999 125.69 35.3999 125.3C35.3999 125.14 35.4099 124.93 35.4399 124.66C35.4699 124.4 35.5 124.1 35.54 123.78C35.59 123.44 35.6402 123.1 35.7002 122.76L36.6201 122.89C36.5401 123.42 36.4602 123.91 36.4102 124.35C36.3602 124.79 36.3398 125.1 36.3398 125.29C36.3398 125.65 36.4401 125.96 36.6401 126.24C36.8401 126.52 37.11 126.73 37.46 126.88C37.82 127.04 38.2402 127.12 38.7002 127.12H42.1001C42.7001 127.12 43.16 126.96 43.48 126.62C43.8 126.29 43.96 125.79 43.96 125.11C43.96 124.78 43.8998 124.52 43.7998 124.34C43.6998 124.15 43.53 123.99 43.27 123.86C43.02 123.73 42.6702 123.6 42.2002 123.46C41.8002 123.34 41.4301 123.23 41.1001 123.12C40.7701 123 40.4898 122.87 40.2598 122.72C40.0298 122.57 39.8502 122.37 39.7202 122.13C39.6002 121.89 39.54 121.58 39.54 121.2C39.54 120.7 39.6398 120.29 39.8398 119.97C40.0498 119.64 40.34 119.4 40.73 119.24C41.11 119.08 41.5801 119 42.1201 119L42.0801 119.85C41.7201 119.85 41.4099 119.9 41.1699 120C40.9299 120.08 40.7499 120.22 40.6299 120.42C40.5199 120.6 40.46 120.84 40.46 121.15C40.46 121.4 40.5001 121.6 40.5801 121.75C40.6601 121.9 40.79 122.03 40.96 122.13C41.12 122.23 41.3301 122.32 41.5801 122.4C41.8301 122.47 42.12 122.55 42.46 122.65C42.83 122.75 43.17 122.87 43.46 123C43.76 123.12 44.0102 123.27 44.2202 123.45C44.4402 123.63 44.6 123.86 44.71 124.14C44.82 124.41 44.8799 124.75 44.8799 125.16C44.8799 125.71 44.7701 126.2 44.5601 126.62C44.3401 127.04 44.0199 127.38 43.6099 127.62C43.1999 127.86 42.7001 127.98 42.1001 127.98H38.7002ZM46.02 125V119H46.96V124.5L46.52 124.15H48.25V125H46.02ZM42.0801 119.85L42.1201 119H46.02V119.85H42.0801ZM48.25 125V124.15C48.3 124.15 48.3401 124.16 48.3701 124.18C48.4001 124.2 48.4299 124.23 48.4399 124.27C48.4599 124.3 48.47 124.34 48.48 124.4C48.49 124.45 48.4902 124.5 48.4902 124.57C48.4902 124.63 48.49 124.69 48.48 124.75C48.47 124.8 48.4599 124.85 48.4399 124.89C48.4299 124.92 48.4001 124.95 48.3701 124.98C48.3401 124.99 48.3 125 48.25 125ZM46.02 127.16V126.08H46.96V127.16H46.02ZM38.8599 130.16V129.08H39.79V130.16H38.8599ZM40.5 130.16V129.08H41.4399V130.16H40.5ZM55.9502 125V124.15H57.2402V125H55.9502ZM48.2598 125V124.15H56.21L55.3501 124.93V122.11C55.3501 121.6 55.2799 121.19 55.1299 120.86C54.9999 120.52 54.7898 120.27 54.5098 120.1C54.2398 119.94 53.89 119.85 53.48 119.85C53.12 119.85 52.8002 119.91 52.4902 120.03C52.2002 120.14 51.9202 120.3 51.6602 120.49C51.4102 120.67 51.1699 120.88 50.9399 121.11C50.7299 121.34 50.5298 121.56 50.3398 121.8C50.1598 122.03 49.9898 122.24 49.8398 122.43L49.5298 121.58C49.7798 121.27 50.0298 120.96 50.2798 120.66C50.5398 120.35 50.8201 120.08 51.1201 119.83C51.4301 119.58 51.7702 119.38 52.1602 119.23C52.5402 119.08 52.98 119 53.48 119C54.04 119 54.5101 119.1 54.8701 119.29C55.2401 119.48 55.5202 119.74 55.7202 120.06C55.9302 120.37 56.0699 120.7 56.1499 121.06C56.2299 121.42 56.27 121.77 56.27 122.11V125H48.2598ZM49.0498 124.15V116.4H49.98V124.15H49.0498ZM48.2598 125C48.2098 125 48.1701 124.99 48.1401 124.98C48.1001 124.95 48.0801 124.92 48.0601 124.89C48.0501 124.85 48.0398 124.8 48.0298 124.75C48.0198 124.69 48.02 124.63 48.02 124.57C48.02 124.48 48.02 124.41 48.04 124.35C48.05 124.29 48.0699 124.24 48.1099 124.21C48.1399 124.17 48.1898 124.15 48.2598 124.15V125ZM57.2402 125V124.15C57.2902 124.15 57.3299 124.16 57.3599 124.18C57.3999 124.2 57.4199 124.23 57.4399 124.27C57.4499 124.3 57.4602 124.34 57.4702 124.4C57.4802 124.45 57.48 124.5 57.48 124.57C57.48 124.63 57.4802 124.69 57.4702 124.75C57.4602 124.8 57.4499 124.85 57.4399 124.89C57.4199 124.92 57.3999 124.95 57.3599 124.98C57.3299 124.99 57.2902 125 57.2402 125ZM58.7002 125V116.4H59.6299V125H58.7002ZM57.2402 125V124.15H58.7002V125H57.2402ZM57.2402 125C57.2002 125 57.1601 124.99 57.1201 124.98C57.0901 124.95 57.0698 124.92 57.0498 124.89C57.0398 124.85 57.02 124.8 57.02 124.75C57.01 124.69 57 124.63 57 124.57C57 124.48 57.0098 124.41 57.0298 124.35C57.0398 124.29 57.0601 124.24 57.1001 124.21C57.1301 124.17 57.1802 124.15 57.2402 124.15V125ZM61.7002 125V116.4H62.6201V125H61.7002ZM68.48 125V124.15H69.9502V125H68.48ZM67.5601 125V116.4H68.48V125H67.5601ZM69.9502 125V124.15C70.0002 124.15 70.0398 124.16 70.0698 124.18C70.0998 124.2 70.1201 124.23 70.1401 124.27C70.1601 124.3 70.1702 124.34 70.1802 124.4C70.1802 124.45 70.1899 124.5 70.1899 124.57C70.1899 124.63 70.1802 124.69 70.1802 124.75C70.1702 124.8 70.1601 124.85 70.1401 124.89C70.1201 124.92 70.0998 124.95 70.0698 124.98C70.0398 124.99 70.0002 125 69.9502 125ZM72.1802 125V124.15H73.48V125H72.1802ZM69.9502 125C69.9002 125 69.8601 124.99 69.8301 124.98C69.8001 124.95 69.7698 124.92 69.7598 124.89C69.7398 124.85 69.7302 124.8 69.7202 124.75C69.7102 124.69 69.71 124.63 69.71 124.57C69.71 124.48 69.72 124.41 69.73 124.35C69.74 124.29 69.7598 124.24 69.7998 124.21C69.8398 124.17 69.8802 124.15 69.9502 124.15V125ZM69.9502 125V124.15H71.6802L71.2402 124.5V119H72.1802V125H69.9502ZM73.48 125V124.15C73.52 124.15 73.5601 124.16 73.6001 124.18C73.6301 124.2 73.6499 124.23 73.6699 124.27C73.6799 124.3 73.7002 124.34 73.7002 124.4C73.7102 124.45 73.7202 124.5 73.7202 124.57C73.7202 124.63 73.7102 124.69 73.7002 124.75C73.7002 124.8 73.6799 124.85 73.6699 124.89C73.6499 124.92 73.6301 124.95 73.6001 124.98C73.5601 124.99 73.52 125 73.48 125ZM71.2402 117.92V116.84H72.1802V117.92H71.2402ZM79.8501 125V124.15H81.1401V125H79.8501ZM73.4702 125C73.4302 125 73.3901 124.99 73.3501 124.98C73.3201 124.95 73.2998 124.92 73.2798 124.89C73.2698 124.85 73.25 124.8 73.25 124.75C73.24 124.69 73.23 124.63 73.23 124.57C73.23 124.48 73.2398 124.41 73.2598 124.35C73.2698 124.29 73.2901 124.24 73.3301 124.21C73.3601 124.17 73.4102 124.15 73.4702 124.15V125ZM73.4702 125V124.15H79.5298L78.9102 124.69V119.44L79.3999 119.85H77.3599C76.8999 119.85 76.5398 119.91 76.2798 120.02C76.0298 120.13 75.86 120.34 75.77 120.66C75.67 120.96 75.6201 121.41 75.6201 122C75.6201 122.59 75.67 123.04 75.77 123.36C75.86 123.66 76.0298 123.87 76.2798 123.98C76.5398 124.09 76.8999 124.15 77.3599 124.15V124.76C76.6699 124.76 76.12 124.68 75.73 124.51C75.35 124.33 75.0702 124.04 74.9102 123.64C74.7602 123.24 74.6899 122.69 74.6899 122C74.6899 121.31 74.7602 120.75 74.9102 120.31C75.0702 119.86 75.35 119.53 75.73 119.32C76.12 119.11 76.6699 119 77.3599 119H79.8501V125H73.4702ZM81.1401 125V124.15C81.1901 124.15 81.2298 124.16 81.2598 124.18C81.2898 124.2 81.3201 124.23 81.3301 124.27C81.3501 124.3 81.3601 124.34 81.3701 124.4C81.3801 124.45 81.3799 124.5 81.3799 124.57C81.3799 124.63 81.3801 124.69 81.3701 124.75C81.3601 124.8 81.3501 124.85 81.3301 124.89C81.3201 124.92 81.2898 124.95 81.2598 124.98C81.2298 124.99 81.1901 125 81.1401 125ZM76.2598 117.92V116.84H77.1899V117.92H76.2598ZM77.8999 117.92V116.84H78.8398V117.92H77.8999ZM83.3701 125V124.15H84.6699V125H83.3701ZM84.6699 125V124.15C84.7099 124.15 84.75 124.16 84.79 124.18C84.82 124.2 84.8399 124.23 84.8599 124.27C84.8699 124.3 84.8901 124.34 84.8901 124.4C84.9001 124.45 84.9102 124.5 84.9102 124.57C84.9102 124.63 84.9001 124.69 84.8901 124.75C84.8901 124.8 84.8699 124.85 84.8599 124.89C84.8399 124.92 84.82 124.95 84.79 124.98C84.75 124.99 84.7099 125 84.6699 125ZM81.1401 125C81.0901 125 81.05 124.99 81.02 124.98C80.99 124.95 80.9602 124.92 80.9502 124.89C80.9302 124.85 80.9202 124.8 80.9102 124.75C80.9002 124.69 80.8999 124.63 80.8999 124.57C80.8999 124.48 80.9099 124.41 80.9199 124.35C80.9299 124.29 80.9502 124.24 80.9902 124.21C81.0302 124.17 81.0701 124.15 81.1401 124.15V125ZM81.1401 125V124.15H82.8701L82.4302 124.5V119H83.3701V125H81.1401ZM81.6201 127.16V126.08H82.5498V127.16H81.6201ZM83.2598 127.16V126.08H84.2002V127.16H83.2598ZM86.8999 125V124.15H88.1899V125H86.8999ZM84.6699 125C84.6199 125 84.5798 124.99 84.5498 124.98C84.5098 124.95 84.4902 124.92 84.4702 124.89C84.4602 124.85 84.4499 124.8 84.4399 124.75C84.4299 124.69 84.4302 124.63 84.4302 124.57C84.4302 124.48 84.4302 124.41 84.4502 124.35C84.4602 124.29 84.48 124.24 84.52 124.21C84.55 124.17 84.5999 124.15 84.6699 124.15V125ZM84.6699 125V124.15H86.3901L85.96 124.5V119H86.8999V125H84.6699ZM88.1899 125V124.15C88.2399 124.15 88.2801 124.16 88.3101 124.18C88.3501 124.2 88.3701 124.23 88.3901 124.27C88.4001 124.3 88.4099 124.34 88.4199 124.4C88.4299 124.45 88.4302 124.5 88.4302 124.57C88.4302 124.63 88.4299 124.69 88.4199 124.75C88.4099 124.8 88.4001 124.85 88.3901 124.89C88.3701 124.92 88.3501 124.95 88.3101 124.98C88.2801 124.99 88.2399 125 88.1899 125ZM85.96 127.16V126.08H86.8999V127.16H85.96ZM95.8901 125V124.15H97.1802V125H95.8901ZM88.1899 125V124.15H96.1499L95.29 124.93V122.11C95.29 121.6 95.2098 121.19 95.0698 120.86C94.9298 120.52 94.7302 120.27 94.4502 120.1C94.1702 119.94 93.8302 119.85 93.4102 119.85C93.0602 119.85 92.7302 119.91 92.4302 120.03C92.1302 120.14 91.8601 120.3 91.6001 120.49C91.3501 120.67 91.1099 120.88 90.8799 121.11C90.6699 121.34 90.4698 121.56 90.2798 121.8C90.0998 122.03 89.9298 122.24 89.7798 122.43L89.4702 121.58C89.7102 121.27 89.9702 120.96 90.2202 120.66C90.4802 120.35 90.7601 120.08 91.0601 119.83C91.3701 119.58 91.7098 119.38 92.0898 119.23C92.4798 119.08 92.9202 119 93.4102 119C93.9802 119 94.4501 119.1 94.8101 119.29C95.1701 119.48 95.4602 119.74 95.6602 120.06C95.8702 120.37 96.0098 120.7 96.0898 121.06C96.1698 121.42 96.21 121.77 96.21 122.11V125H88.1899ZM88.9902 124.15V116.4H89.9199V124.15H88.9902ZM88.1899 125C88.1499 125 88.1098 124.99 88.0698 124.98C88.0398 124.95 88.02 124.92 88 124.89C87.99 124.85 87.9702 124.8 87.9702 124.75C87.9602 124.69 87.9502 124.63 87.9502 124.57C87.9502 124.48 87.96 124.41 87.98 124.35C87.99 124.29 88.0098 124.24 88.0498 124.21C88.0798 124.17 88.1299 124.15 88.1899 124.15V125ZM97.1802 125V124.15C97.2302 124.15 97.2698 124.16 97.2998 124.18C97.3298 124.2 97.3601 124.23 97.3701 124.27C97.3901 124.3 97.4002 124.34 97.4102 124.4C97.4202 124.45 97.4199 124.5 97.4199 124.57C97.4199 124.63 97.4202 124.69 97.4102 124.75C97.4002 124.8 97.3901 124.85 97.3701 124.89C97.3601 124.92 97.3298 124.95 97.2998 124.98C97.2698 124.99 97.2302 125 97.1802 125ZM97.1802 125V124.15H98.9102L98.48 124.5V119H99.4102V125H97.1802ZM97.1802 125C97.1302 125 97.0901 124.99 97.0601 124.98C97.0301 124.95 97.0102 124.92 96.9902 124.89C96.9702 124.85 96.9602 124.8 96.9502 124.75C96.9502 124.69 96.9399 124.63 96.9399 124.57C96.9399 124.48 96.9502 124.41 96.9702 124.35C96.9702 124.29 97 124.24 97.04 124.21C97.07 124.17 97.1202 124.15 97.1802 124.15V125ZM97.6602 117.92V116.84H98.6001V117.92H97.6602ZM99.3101 117.92V116.84H100.24V117.92H99.3101ZM108.13 127.8L108.27 128.56C107.9 128.64 107.55 128.7 107.23 128.74C106.92 128.79 106.62 128.82 106.34 128.82C105.76 128.82 105.25 128.72 104.82 128.54C104.39 128.36 104.07 128.1 103.83 127.75C103.61 127.4 103.5 126.97 103.5 126.48C103.5 126.09 103.57 125.74 103.7 125.41C103.84 125.08 104.03 124.8 104.29 124.56C104.55 124.31 104.85 124.11 105.21 123.97L105.59 123.81C105.9 123.68 106.21 123.54 106.53 123.38C106.85 123.22 107.16 123.04 107.46 122.85C107.75 122.65 108.02 122.44 108.25 122.2C108.48 121.96 108.67 121.71 108.8 121.44C108.94 121.16 109.01 120.86 109.01 120.54V119.82L109.51 120.57C109.05 120.33 108.6 120.15 108.14 120.03C107.69 119.91 107.26 119.85 106.83 119.85C106.41 119.85 105.97 119.91 105.53 120.03C105.08 120.15 104.63 120.33 104.17 120.57L104.67 119.82V120.54C104.67 120.82 104.75 121.13 104.9 121.46C105.05 121.79 105.26 122.11 105.53 122.43C105.8 122.74 106.12 123.03 106.49 123.3C106.85 123.55 107.26 123.76 107.7 123.92C108.14 124.07 108.6 124.15 109.08 124.15H110.59V125H109.08C108.45 125 107.87 124.9 107.33 124.7C106.78 124.5 106.29 124.24 105.85 123.91C105.41 123.57 105.03 123.21 104.71 122.82C104.4 122.42 104.16 122.02 103.99 121.63C103.82 121.23 103.74 120.86 103.74 120.54V119.82C104.08 119.63 104.43 119.48 104.78 119.36C105.13 119.24 105.48 119.15 105.83 119.1C106.18 119.03 106.51 119 106.83 119C107.16 119 107.5 119.03 107.84 119.1C108.19 119.15 108.53 119.24 108.89 119.36C109.24 119.48 109.59 119.63 109.93 119.82V120.54C109.93 121.01 109.83 121.44 109.64 121.82C109.45 122.2 109.2 122.53 108.89 122.83C108.58 123.12 108.25 123.38 107.89 123.61C107.53 123.83 107.18 124.02 106.85 124.18C106.77 124.22 106.66 124.26 106.52 124.33C106.39 124.38 106.26 124.44 106.11 124.51C105.98 124.57 105.85 124.63 105.74 124.68C105.64 124.72 105.57 124.74 105.55 124.76C105.36 124.85 105.18 124.96 105.01 125.11C104.84 125.25 104.7 125.43 104.59 125.65C104.49 125.87 104.43 126.14 104.43 126.46C104.43 126.95 104.59 127.32 104.89 127.58C105.2 127.84 105.69 127.96 106.34 127.96C106.53 127.96 106.77 127.95 107.06 127.92C107.36 127.89 107.71 127.85 108.13 127.8ZM110.59 125V124.15C110.64 124.15 110.68 124.16 110.71 124.18C110.74 124.2 110.77 124.23 110.78 124.27C110.8 124.3 110.81 124.34 110.82 124.4C110.83 124.45 110.83 124.5 110.83 124.57C110.83 124.63 110.83 124.69 110.82 124.75C110.81 124.8 110.8 124.85 110.78 124.89C110.77 124.92 110.74 124.95 110.71 124.98C110.68 124.99 110.64 125 110.59 125ZM110.59 125V124.15H117.15L116.46 124.64V122.06C116.46 121.5 116.39 121.06 116.26 120.74C116.14 120.42 115.92 120.19 115.6 120.06C115.3 119.92 114.88 119.85 114.36 119.85C114.02 119.85 113.68 119.88 113.35 119.92C113.02 119.97 112.76 120.04 112.58 120.12L113.14 119.54C113.1 119.73 113.05 119.98 113 120.27C112.95 120.56 112.91 120.87 112.88 121.21C112.85 121.54 112.83 121.88 112.83 122.22C112.83 122.56 112.85 122.9 112.88 123.22C112.91 123.55 112.95 123.84 112.99 124.08C113.03 124.32 113.06 124.48 113.08 124.58L112.2 124.83C112.16 124.73 112.12 124.55 112.08 124.29C112.04 124.04 112 123.73 111.96 123.37C111.92 123.01 111.91 122.62 111.91 122.22C111.91 121.82 111.92 121.44 111.96 121.08C112 120.7 112.04 120.36 112.09 120.06C112.14 119.75 112.2 119.51 112.24 119.32C112.42 119.25 112.7 119.18 113.08 119.11C113.47 119.04 113.89 119 114.36 119C115.03 119 115.59 119.1 116.04 119.3C116.49 119.5 116.83 119.82 117.06 120.27C117.28 120.71 117.39 121.31 117.39 122.06V125H110.59ZM110.59 125C110.54 125 110.5 124.99 110.47 124.98C110.44 124.95 110.41 124.92 110.4 124.89C110.38 124.85 110.37 124.8 110.36 124.75C110.35 124.69 110.35 124.63 110.35 124.57C110.35 124.48 110.36 124.41 110.37 124.35C110.38 124.29 110.4 124.24 110.44 124.21C110.48 124.17 110.52 124.15 110.59 124.15V125ZM124.08 125C123.38 125 122.84 124.9 122.45 124.69C122.06 124.47 121.79 124.14 121.63 123.7C121.48 123.26 121.4 122.69 121.4 122C121.4 121.31 121.48 120.75 121.63 120.31C121.79 119.86 122.06 119.53 122.45 119.32C122.84 119.11 123.38 119 124.08 119H126.56V124.52H125.63V119.44L126.11 119.85H124.08C123.62 119.85 123.26 119.91 123 120.02C122.75 120.13 122.58 120.34 122.48 120.66C122.39 120.96 122.34 121.41 122.34 122C122.34 122.59 122.39 123.04 122.48 123.36C122.58 123.66 122.75 123.87 123 123.98C123.26 124.09 123.62 124.15 124.08 124.15H127.86V125H124.08ZM127.86 125V124.15C127.91 124.15 127.95 124.16 127.98 124.18C128.01 124.2 128.04 124.23 128.05 124.27C128.07 124.3 128.08 124.34 128.09 124.4C128.1 124.45 128.1 124.5 128.1 124.57C128.1 124.63 128.1 124.69 128.09 124.75C128.08 124.8 128.07 124.85 128.05 124.89C128.04 124.92 128.01 124.95 127.98 124.98C127.95 124.99 127.91 125 127.86 125ZM122.92 117.92V116.84H123.85V117.92H122.92ZM124.56 117.92V116.84H125.5V117.92H124.56ZM134.67 125V124.15H135.96V125H134.67ZM127.86 125C127.81 125 127.77 124.99 127.74 124.98C127.71 124.95 127.69 124.92 127.67 124.89C127.65 124.85 127.64 124.8 127.63 124.75C127.63 124.69 127.62 124.63 127.62 124.57C127.62 124.48 127.63 124.41 127.65 124.35C127.65 124.29 127.68 124.24 127.72 124.21C127.75 124.17 127.8 124.15 127.86 124.15V125ZM127.86 125V124.15H134.43L133.73 124.64V122.06C133.73 121.5 133.67 121.06 133.54 120.74C133.41 120.42 133.19 120.19 132.88 120.06C132.57 119.92 132.16 119.85 131.63 119.85C131.29 119.85 130.96 119.88 130.62 119.92C130.29 119.97 130.04 120.04 129.85 120.12L130.42 119.54C130.37 119.73 130.32 119.98 130.27 120.27C130.23 120.56 130.19 120.87 130.15 121.21C130.12 121.54 130.11 121.88 130.11 122.22C130.11 122.56 130.12 122.9 130.15 123.22C130.19 123.55 130.22 123.84 130.26 124.08C130.3 124.32 130.33 124.48 130.36 124.58L129.47 124.83C129.44 124.73 129.4 124.55 129.35 124.29C129.31 124.04 129.27 123.73 129.23 123.37C129.2 123.01 129.18 122.62 129.18 122.22C129.18 121.82 129.2 121.44 129.23 121.08C129.27 120.7 129.31 120.36 129.36 120.06C129.42 119.75 129.47 119.51 129.52 119.32C129.69 119.25 129.97 119.18 130.36 119.11C130.74 119.04 131.17 119 131.63 119C132.3 119 132.86 119.1 133.31 119.3C133.77 119.5 134.11 119.82 134.33 120.27C134.55 120.71 134.67 121.31 134.67 122.06V125H127.86ZM135.96 125V124.15C136.01 124.15 136.05 124.16 136.08 124.18C136.11 124.2 136.14 124.23 136.15 124.27C136.17 124.3 136.18 124.34 136.19 124.4C136.2 124.45 136.2 124.5 136.2 124.57C136.2 124.63 136.2 124.69 136.19 124.75C136.18 124.8 136.17 124.85 136.15 124.89C136.14 124.92 136.11 124.95 136.08 124.98C136.05 124.99 136.01 125 135.96 125ZM135.96 125V124.15H142.58L141.66 125V122.06C141.66 121.51 141.59 121.07 141.47 120.75C141.34 120.43 141.12 120.2 140.82 120.07C140.51 119.92 140.1 119.85 139.58 119.85C139.22 119.85 138.88 119.88 138.55 119.92C138.22 119.97 137.96 120.04 137.77 120.12L138.33 119.54C138.29 119.73 138.24 119.98 138.19 120.27C138.15 120.56 138.11 120.88 138.08 121.22C138.05 121.56 138.03 121.89 138.03 122.23C138.03 122.57 138.05 122.91 138.08 123.24C138.11 123.56 138.15 123.84 138.19 124.08C138.23 124.32 138.26 124.48 138.29 124.58L137.4 124.83C137.37 124.73 137.33 124.55 137.28 124.29C137.23 124.03 137.19 123.72 137.15 123.37C137.11 123.01 137.1 122.63 137.1 122.23C137.1 121.83 137.11 121.44 137.15 121.06C137.19 120.69 137.23 120.35 137.29 120.06C137.35 119.75 137.39 119.51 137.43 119.32C137.61 119.25 137.89 119.18 138.27 119.11C138.66 119.04 139.09 119 139.56 119C140.23 119 140.79 119.1 141.24 119.3C141.69 119.5 142.02 119.82 142.25 120.27C142.47 120.71 142.58 121.31 142.58 122.06V125H135.96ZM139.55 127.96C139.08 127.96 138.66 127.94 138.27 127.89C137.89 127.85 137.61 127.81 137.43 127.76C137.39 127.64 137.35 127.48 137.29 127.29C137.23 127.11 137.19 126.9 137.15 126.66C137.11 126.42 137.1 126.17 137.1 125.91C137.1 125.66 137.11 125.42 137.15 125.19C137.19 124.97 137.23 124.78 137.28 124.62C137.33 124.45 137.37 124.33 137.4 124.27L138.24 124.62C138.21 124.68 138.19 124.79 138.15 124.94C138.12 125.09 138.09 125.26 138.07 125.43C138.05 125.62 138.03 125.78 138.03 125.94C138.03 126.1 138.05 126.27 138.07 126.45C138.09 126.64 138.13 126.82 138.17 126.99C138.21 127.17 138.26 127.32 138.31 127.46L137.69 126.93C137.87 126.99 138.14 127.03 138.49 127.06C138.85 127.1 139.21 127.11 139.58 127.11C140.13 127.11 140.56 127.08 140.85 127C141.16 126.93 141.37 126.82 141.48 126.66C141.6 126.5 141.66 126.28 141.66 126.02V124.15H142.58V126.02C142.58 126.49 142.47 126.87 142.25 127.16C142.02 127.45 141.69 127.65 141.24 127.77C140.79 127.9 140.23 127.96 139.55 127.96ZM142.58 125V124.15H143.88V125H142.58ZM143.88 125V124.15C143.93 124.15 143.97 124.16 144 124.18C144.03 124.2 144.05 124.23 144.07 124.27C144.09 124.3 144.1 124.34 144.11 124.4C144.11 124.45 144.12 124.5 144.12 124.57C144.12 124.63 144.11 124.69 144.11 124.75C144.1 124.8 144.09 124.85 144.07 124.89C144.05 124.92 144.03 124.95 144 124.98C143.97 124.99 143.93 125 143.88 125ZM135.96 125C135.91 125 135.87 124.99 135.84 124.98C135.81 124.95 135.78 124.92 135.77 124.89C135.75 124.85 135.74 124.8 135.73 124.75C135.72 124.69 135.72 124.63 135.72 124.57C135.72 124.48 135.73 124.41 135.74 124.35C135.75 124.29 135.77 124.24 135.81 124.21C135.85 124.17 135.89 124.15 135.96 124.15V125ZM146.27 125V124.15H147.56V125H146.27ZM143.88 125C143.83 125 143.79 124.99 143.76 124.98C143.73 124.95 143.7 124.92 143.69 124.89C143.67 124.85 143.66 124.8 143.65 124.75C143.64 124.69 143.64 124.63 143.64 124.57C143.64 124.48 143.65 124.41 143.66 124.35C143.67 124.29 143.7 124.24 143.74 124.21C143.77 124.17 143.82 124.15 143.88 124.15V125ZM145.33 125V116.4H146.27V125H145.33ZM143.88 125V124.15H145.33V125H143.88ZM147.56 125V124.15C147.61 124.15 147.65 124.16 147.68 124.18C147.72 124.2 147.74 124.23 147.76 124.27C147.77 124.3 147.78 124.34 147.79 124.4C147.8 124.45 147.8 124.5 147.8 124.57C147.8 124.63 147.8 124.69 147.79 124.75C147.78 124.8 147.77 124.85 147.76 124.89C147.74 124.92 147.72 124.95 147.68 124.98C147.65 124.99 147.61 125 147.56 125ZM147.56 125V124.15H154.12L153.43 124.64V122.06C153.43 121.5 153.36 121.06 153.24 120.74C153.11 120.42 152.89 120.19 152.58 120.06C152.27 119.92 151.86 119.85 151.33 119.85C150.99 119.85 150.66 119.88 150.32 119.92C149.99 119.97 149.74 120.04 149.55 120.12L150.12 119.54C150.07 119.73 150.02 119.98 149.97 120.27C149.92 120.56 149.88 120.87 149.85 121.21C149.82 121.54 149.8 121.88 149.8 122.22C149.8 122.56 149.82 122.9 149.85 123.22C149.88 123.55 149.92 123.84 149.96 124.08C150 124.32 150.03 124.48 150.06 124.58L149.17 124.83C149.14 124.73 149.1 124.55 149.05 124.29C149.01 124.04 148.97 123.73 148.93 123.37C148.9 123.01 148.88 122.62 148.88 122.22C148.88 121.82 148.9 121.44 148.93 121.08C148.97 120.7 149.01 120.36 149.06 120.06C149.12 119.75 149.17 119.51 149.22 119.32C149.39 119.25 149.67 119.18 150.06 119.11C150.44 119.04 150.86 119 151.33 119C152 119 152.56 119.1 153.01 119.3C153.46 119.5 153.8 119.82 154.03 120.27C154.25 120.71 154.36 121.31 154.36 122.06V125H147.56ZM147.56 125C147.51 125 147.47 124.99 147.44 124.98C147.41 124.95 147.38 124.92 147.37 124.89C147.35 124.85 147.34 124.8 147.33 124.75C147.32 124.69 147.32 124.63 147.32 124.57C147.32 124.48 147.33 124.41 147.34 124.35C147.35 124.29 147.38 124.24 147.42 124.21C147.45 124.17 147.5 124.15 147.56 124.15V125ZM161.94 125C161.15 125 160.49 124.91 159.96 124.72C159.43 124.54 159.04 124.26 158.77 123.88C158.51 123.51 158.38 123.03 158.38 122.44C158.38 122.25 158.39 122.04 158.41 121.82C158.44 121.6 158.48 121.38 158.52 121.17C158.56 120.96 158.6 120.77 158.63 120.62C158.66 120.46 158.68 120.35 158.69 120.3L159.6 120.46C159.58 120.59 159.54 120.77 159.49 120.99C159.45 121.22 159.41 121.46 159.37 121.71C159.33 121.97 159.31 122.21 159.31 122.44C159.31 122.74 159.36 123 159.44 123.21C159.54 123.43 159.69 123.61 159.89 123.75C160.1 123.89 160.37 123.99 160.7 124.05C161.04 124.12 161.45 124.15 161.94 124.15H165.47V119H166.4V125H161.94ZM161.11 119.08V118H162.05V119.08H161.11ZM162.76 119.08V118H163.69V119.08H162.76ZM169.45 125V124.15H170.92V125H169.45ZM168.53 125V116.4H169.45V125H168.53ZM170.92 125V124.15C170.96 124.15 171 124.16 171.04 124.18C171.07 124.2 171.09 124.23 171.11 124.27C171.12 124.3 171.14 124.34 171.14 124.4C171.15 124.45 171.16 124.5 171.16 124.57C171.16 124.63 171.15 124.69 171.14 124.75C171.14 124.8 171.12 124.85 171.11 124.89C171.09 124.92 171.07 124.95 171.04 124.98C171 124.99 170.96 125 170.92 125ZM170.92 125V124.15H176.98L176.35 124.69V119.44L176.84 119.85H174.8C174.34 119.85 173.98 119.91 173.72 120.02C173.48 120.13 173.3 120.34 173.21 120.66C173.11 120.96 173.06 121.41 173.06 122C173.06 122.59 173.11 123.04 173.21 123.36C173.3 123.66 173.48 123.87 173.72 123.98C173.98 124.09 174.34 124.15 174.8 124.15V124.76C174.11 124.76 173.56 124.68 173.17 124.51C172.79 124.33 172.52 124.04 172.36 123.64C172.2 123.24 172.13 122.69 172.13 122C172.13 121.31 172.2 120.75 172.36 120.31C172.52 119.86 172.79 119.53 173.17 119.32C173.56 119.11 174.11 119 174.8 119H177.29V125H170.92ZM170.92 125C170.87 125 170.83 124.99 170.8 124.98C170.76 124.95 170.74 124.92 170.72 124.89C170.71 124.85 170.7 124.8 170.69 124.75C170.68 124.69 170.68 124.63 170.68 124.57C170.68 124.48 170.68 124.41 170.7 124.35C170.71 124.29 170.73 124.24 170.77 124.21C170.8 124.17 170.85 124.15 170.92 124.15V125ZM173.7 117.92V116.84H174.64V117.92H173.7ZM175.34 117.92V116.84H176.28V117.92H175.34ZM184.96 125V124.15H186.26V125H184.96ZM178.69 125V124.15H184.55L184.03 124.69V116.4H184.96V125H178.69ZM180.61 124.15V118.1H181.53V124.15H180.61ZM186.26 125V124.15C186.31 124.15 186.35 124.16 186.38 124.18C186.41 124.2 186.43 124.23 186.45 124.27C186.47 124.3 186.48 124.34 186.49 124.4C186.49 124.45 186.5 124.5 186.5 124.57C186.5 124.63 186.49 124.69 186.49 124.75C186.48 124.8 186.47 124.85 186.45 124.89C186.43 124.92 186.41 124.95 186.38 124.98C186.35 124.99 186.31 125 186.26 125ZM188.86 124.96C188.43 124.6 188.1 124.18 187.86 123.7C187.64 123.22 187.53 122.72 187.53 122.18C187.53 121.72 187.61 121.3 187.77 120.92C187.93 120.53 188.15 120.19 188.43 119.9C188.71 119.61 189.04 119.39 189.42 119.24C189.81 119.08 190.22 119 190.66 119C190.89 119 191.14 119.02 191.4 119.07C191.68 119.12 191.94 119.19 192.18 119.28L191.86 120.08C191.66 120.01 191.46 119.95 191.25 119.91C191.05 119.87 190.86 119.85 190.67 119.85C190.25 119.85 189.87 119.95 189.53 120.15C189.2 120.35 188.93 120.63 188.74 120.98C188.56 121.32 188.46 121.72 188.46 122.18C188.46 122.6 188.55 122.99 188.72 123.36C188.89 123.72 189.14 124.04 189.47 124.32L188.86 124.96ZM186.26 125V124.15H192.33V125H186.26ZM186.26 125C186.21 125 186.17 124.99 186.14 124.98C186.1 124.95 186.08 124.92 186.06 124.89C186.05 124.85 186.04 124.8 186.03 124.75C186.02 124.69 186.02 124.63 186.02 124.57C186.02 124.48 186.02 124.41 186.04 124.35C186.05 124.29 186.07 124.24 186.11 124.21C186.14 124.17 186.19 124.15 186.26 124.15V125ZM196.15 127.65C195.87 127.65 195.57 127.63 195.25 127.58C194.94 127.54 194.6 127.48 194.22 127.4L194.37 126.64C194.79 126.7 195.14 126.74 195.42 126.76C195.71 126.79 195.95 126.8 196.15 126.8C196.82 126.8 197.3 126.67 197.61 126.42C197.91 126.17 198.06 125.8 198.06 125.32V119.54L198.54 119.85H196.51C196.05 119.85 195.69 119.91 195.43 120.02C195.19 120.13 195.01 120.34 194.92 120.66C194.82 120.96 194.77 121.41 194.77 122C194.77 122.59 194.82 123.04 194.92 123.36C195.01 123.66 195.19 123.87 195.43 123.98C195.69 124.09 196.05 124.15 196.51 124.15H198.06V125H196.51C195.82 125 195.27 124.9 194.88 124.69C194.5 124.47 194.23 124.14 194.07 123.7C193.91 123.26 193.84 122.69 193.84 122C193.84 121.31 193.91 120.75 194.07 120.31C194.23 119.86 194.5 119.53 194.88 119.32C195.27 119.11 195.82 119 196.51 119H199V125.31C199 125.81 198.88 126.23 198.65 126.58C198.43 126.94 198.1 127.2 197.68 127.38C197.25 127.56 196.75 127.65 196.15 127.65ZM203.01 125V122.12C203.01 121.35 203.13 120.74 203.35 120.28C203.57 119.83 203.91 119.5 204.36 119.3C204.81 119.1 205.37 119 206.04 119C206.71 119 207.27 119.1 207.72 119.3C208.17 119.5 208.5 119.83 208.73 120.28C208.95 120.74 209.06 121.35 209.06 122.12V125H203.01ZM203.95 124.56L203.46 124.15H208.62L208.14 124.56V122.12C208.14 121.54 208.07 121.09 207.95 120.76C207.82 120.43 207.6 120.19 207.29 120.06C206.98 119.92 206.57 119.85 206.04 119.85C205.51 119.85 205.09 119.92 204.79 120.06C204.49 120.19 204.27 120.43 204.14 120.76C204.01 121.09 203.95 121.54 203.95 122.12V124.56ZM204.75 117.92V116.84H205.69V117.92H204.75ZM206.4 117.92V116.84H207.33V117.92H206.4ZM214.67 125V124.15H215.96V125H214.67ZM210.02 125V124.15H214.5L213.73 124.83V122.22C213.73 121.62 213.66 121.16 213.53 120.81C213.39 120.47 213.17 120.22 212.85 120.08C212.55 119.93 212.14 119.85 211.62 119.85H210.65V119H211.62C212.26 119 212.81 119.1 213.26 119.3C213.72 119.5 214.07 119.84 214.31 120.31C214.55 120.77 214.67 121.41 214.67 122.22V125H210.02ZM215.96 125V124.15C216.01 124.15 216.05 124.16 216.08 124.18C216.11 124.2 216.14 124.23 216.15 124.27C216.17 124.3 216.18 124.34 216.19 124.4C216.2 124.45 216.2 124.5 216.2 124.57C216.2 124.63 216.2 124.69 216.19 124.75C216.18 124.8 216.17 124.85 216.15 124.89C216.14 124.92 216.11 124.95 216.08 124.98C216.05 124.99 216.01 125 215.96 125ZM215.96 125V124.15H217.69L217.26 124.5V119H218.19V125H215.96ZM215.96 125C215.91 125 215.87 124.99 215.84 124.98C215.81 124.95 215.79 124.92 215.77 124.89C215.75 124.85 215.74 124.8 215.73 124.75C215.73 124.69 215.72 124.63 215.72 124.57C215.72 124.48 215.73 124.41 215.75 124.35C215.75 124.29 215.78 124.24 215.82 124.21C215.85 124.17 215.9 124.15 215.96 124.15V125ZM216.44 127.16V126.08H217.38V127.16H216.44ZM218.09 127.16V126.08H219.02V127.16H218.09ZM224.29 125V124.15H225.58V125H224.29ZM219.64 125V124.15H224.12L223.35 124.83V122.22C223.35 121.62 223.28 121.16 223.15 120.81C223.01 120.47 222.79 120.22 222.47 120.08C222.17 119.93 221.76 119.85 221.24 119.85H220.27V119H221.24C221.88 119 222.43 119.1 222.88 119.3C223.34 119.5 223.69 119.84 223.93 120.31C224.17 120.77 224.29 121.41 224.29 122.22V125H219.64ZM225.58 125V124.15C225.63 124.15 225.67 124.16 225.7 124.18C225.73 124.2 225.76 124.23 225.77 124.27C225.79 124.3 225.8 124.34 225.81 124.4C225.82 124.45 225.82 124.5 225.82 124.57C225.82 124.63 225.82 124.69 225.81 124.75C225.8 124.8 225.79 124.85 225.77 124.89C225.76 124.92 225.73 124.95 225.7 124.98C225.67 124.99 225.63 125 225.58 125ZM225.58 125V124.15H230.88L230.59 124.4V121.42C230.59 120.9 230.42 120.52 230.1 120.26C229.78 120 229.28 119.86 228.62 119.86C228.41 119.86 228.11 119.88 227.72 119.92C227.33 119.96 226.92 120 226.48 120.07L226.38 119.3C226.7 119.22 227.06 119.15 227.46 119.1C227.85 119.03 228.23 119 228.6 119C229.2 119 229.72 119.1 230.16 119.29C230.6 119.47 230.93 119.74 231.16 120.1C231.4 120.46 231.52 120.9 231.52 121.42V125H225.58ZM225.58 125C225.54 125 225.5 124.99 225.46 124.98C225.43 124.95 225.41 124.92 225.39 124.89C225.38 124.85 225.36 124.8 225.36 124.75C225.35 124.69 225.34 124.63 225.34 124.57C225.34 124.48 225.35 124.41 225.37 124.35C225.38 124.29 225.4 124.24 225.44 124.21C225.47 124.17 225.52 124.15 225.58 124.15V125ZM228.13 127.16V126.08H229.06V127.16H228.13ZM238.92 125C238.13 125 237.47 124.91 236.94 124.72C236.41 124.54 236.02 124.26 235.75 123.88C235.49 123.51 235.36 123.03 235.36 122.44C235.36 122.25 235.37 122.04 235.39 121.82C235.42 121.6 235.46 121.38 235.5 121.17C235.54 120.96 235.58 120.77 235.61 120.62C235.64 120.46 235.66 120.35 235.67 120.3L236.58 120.46C236.56 120.59 236.52 120.77 236.47 120.99C236.43 121.22 236.39 121.46 236.35 121.71C236.31 121.97 236.29 122.21 236.29 122.44C236.29 122.74 236.34 123 236.42 123.21C236.52 123.43 236.67 123.61 236.87 123.75C237.08 123.89 237.35 123.99 237.68 124.05C238.02 124.12 238.43 124.15 238.92 124.15H242.45V119H243.38V125H238.92ZM238.91 127.16V126.08H239.84V127.16H238.91ZM244.47 127.65C244.36 127.65 244.25 127.64 244.14 127.63C244.02 127.62 243.91 127.61 243.79 127.6L243.9 126.75C244.01 126.76 244.12 126.77 244.21 126.78C244.31 126.79 244.39 126.8 244.47 126.8C244.84 126.8 245.15 126.66 245.38 126.37C245.61 126.09 245.73 125.7 245.73 125.19V119H246.66V125.19C246.66 125.68 246.57 126.11 246.37 126.48C246.19 126.85 245.93 127.14 245.61 127.34C245.28 127.55 244.9 127.65 244.47 127.65ZM249.59 125V124.15H251.05V125H249.59ZM248.66 125V116.4H249.59V125H248.66ZM251.05 125V124.15C251.1 124.15 251.14 124.16 251.17 124.18C251.2 124.2 251.23 124.23 251.24 124.27C251.26 124.3 251.27 124.34 251.28 124.4C251.29 124.45 251.29 124.5 251.29 124.57C251.29 124.63 251.29 124.69 251.28 124.75C251.27 124.8 251.26 124.85 251.24 124.89C251.23 124.92 251.2 124.95 251.17 124.98C251.14 124.99 251.1 125 251.05 125ZM256.99 125V124.15H258.28V125H256.99ZM251.05 125C251 125 250.96 124.99 250.93 124.98C250.9 124.95 250.87 124.92 250.86 124.89C250.84 124.85 250.83 124.8 250.82 124.75C250.81 124.69 250.81 124.63 250.81 124.57C250.81 124.48 250.82 124.41 250.83 124.35C250.84 124.29 250.86 124.24 250.9 124.21C250.94 124.17 250.98 124.15 251.05 124.15V125ZM251.05 125V124.15H256.34L256.05 124.4V121.42C256.05 120.9 255.89 120.52 255.56 120.26C255.24 120 254.75 119.86 254.08 119.86C253.88 119.86 253.58 119.88 253.18 119.92C252.79 119.96 252.38 120 251.95 120.07L251.84 119.3C252.17 119.22 252.53 119.15 252.92 119.1C253.31 119.03 253.69 119 254.06 119C254.67 119 255.19 119.1 255.62 119.29C256.06 119.47 256.4 119.74 256.63 120.1C256.87 120.46 256.99 120.9 256.99 121.42V125H251.05ZM258.28 125V124.15C258.33 124.15 258.37 124.16 258.4 124.18C258.44 124.2 258.46 124.23 258.48 124.27C258.49 124.3 258.5 124.34 258.51 124.4C258.52 124.45 258.52 124.5 258.52 124.57C258.52 124.63 258.52 124.69 258.51 124.75C258.5 124.8 258.49 124.85 258.48 124.89C258.46 124.92 258.44 124.95 258.4 124.98C258.37 124.99 258.33 125 258.28 125ZM253.59 127.16V126.08H254.53V127.16H253.59ZM260.51 125V124.15H261.81V125H260.51ZM261.81 125V124.15C261.86 124.15 261.9 124.16 261.93 124.18C261.96 124.2 261.98 124.23 262 124.27C262.02 124.3 262.03 124.34 262.04 124.4C262.04 124.45 262.05 124.5 262.05 124.57C262.05 124.63 262.04 124.69 262.04 124.75C262.03 124.8 262.02 124.85 262 124.89C261.98 124.92 261.96 124.95 261.93 124.98C261.9 124.99 261.86 125 261.81 125ZM258.28 125C258.23 125 258.19 124.99 258.16 124.98C258.13 124.95 258.1 124.92 258.09 124.89C258.07 124.85 258.06 124.8 258.05 124.75C258.04 124.69 258.04 124.63 258.04 124.57C258.04 124.48 258.05 124.41 258.06 124.35C258.07 124.29 258.1 124.24 258.14 124.21C258.17 124.17 258.22 124.15 258.28 124.15V125ZM258.28 125V124.15H260.01L259.58 124.5V119H260.51V125H258.28ZM258.76 117.92V116.84H259.7V117.92H258.76ZM260.4 117.92V116.84H261.34V117.92H260.4ZM261.81 125V124.15H263.53L263.1 124.5V119H264.04V125H261.81ZM261.81 125C261.76 125 261.72 124.99 261.69 124.98C261.65 124.95 261.63 124.92 261.61 124.89C261.6 124.85 261.59 124.8 261.58 124.75C261.57 124.69 261.57 124.63 261.57 124.57C261.57 124.48 261.57 124.41 261.59 124.35C261.6 124.29 261.62 124.24 261.66 124.21C261.69 124.17 261.74 124.15 261.81 124.15V125ZM263.1 127.16V126.08H264.04V127.16H263.1ZM272.75 127.8L272.9 128.56C272.52 128.64 272.17 128.7 271.85 128.74C271.54 128.79 271.25 128.82 270.97 128.82C270.38 128.82 269.87 128.72 269.44 128.54C269.02 128.36 268.69 128.1 268.46 127.75C268.23 127.4 268.12 126.97 268.12 126.48C268.12 126.09 268.19 125.74 268.33 125.41C268.46 125.08 268.66 124.8 268.91 124.56C269.17 124.31 269.48 124.11 269.84 123.97L270.21 123.81C270.52 123.68 270.84 123.54 271.16 123.38C271.48 123.22 271.79 123.04 272.08 122.85C272.38 122.65 272.64 122.44 272.87 122.2C273.11 121.96 273.29 121.71 273.43 121.44C273.56 121.16 273.63 120.86 273.63 120.54V119.82L274.13 120.57C273.68 120.33 273.22 120.15 272.77 120.03C272.32 119.91 271.88 119.85 271.46 119.85C271.03 119.85 270.6 119.91 270.15 120.03C269.7 120.15 269.25 120.33 268.79 120.57L269.3 119.82V120.54C269.3 120.82 269.37 121.13 269.53 121.46C269.68 121.79 269.89 122.11 270.15 122.43C270.42 122.74 270.74 123.03 271.11 123.3C271.48 123.55 271.88 123.76 272.32 123.92C272.76 124.07 273.22 124.15 273.7 124.15H275.21V125H273.7C273.08 125 272.49 124.9 271.95 124.7C271.41 124.5 270.91 124.24 270.47 123.91C270.03 123.57 269.65 123.21 269.33 122.82C269.02 122.42 268.78 122.02 268.61 121.63C268.45 121.23 268.36 120.86 268.36 120.54V119.82C268.71 119.63 269.05 119.48 269.41 119.36C269.76 119.24 270.11 119.15 270.45 119.1C270.8 119.03 271.14 119 271.46 119C271.79 119 272.12 119.03 272.47 119.1C272.81 119.15 273.16 119.24 273.51 119.36C273.86 119.48 274.21 119.63 274.55 119.82V120.54C274.55 121.01 274.46 121.44 274.27 121.82C274.07 122.2 273.82 122.53 273.51 122.83C273.21 123.12 272.87 123.38 272.51 123.61C272.15 123.83 271.81 124.02 271.47 124.18C271.39 124.22 271.28 124.26 271.15 124.33C271.02 124.38 270.88 124.44 270.74 124.51C270.6 124.57 270.48 124.63 270.37 124.68C270.26 124.72 270.2 124.74 270.17 124.76C269.98 124.85 269.8 124.96 269.63 125.11C269.47 125.25 269.33 125.43 269.21 125.65C269.11 125.87 269.06 126.14 269.06 126.46C269.06 126.95 269.21 127.32 269.51 127.58C269.83 127.84 270.31 127.96 270.97 127.96C271.16 127.96 271.4 127.95 271.69 127.92C271.98 127.89 272.34 127.85 272.75 127.8ZM275.21 125V124.15C275.26 124.15 275.3 124.16 275.33 124.18C275.37 124.2 275.39 124.23 275.41 124.27C275.42 124.3 275.43 124.34 275.44 124.4C275.45 124.45 275.45 124.5 275.45 124.57C275.45 124.63 275.45 124.69 275.44 124.75C275.43 124.8 275.42 124.85 275.41 124.89C275.39 124.92 275.37 124.95 275.33 124.98C275.3 124.99 275.26 125 275.21 125ZM277.44 125V124.15H278.74V125H277.44ZM278.74 125V124.15C278.79 124.15 278.83 124.16 278.86 124.18C278.89 124.2 278.92 124.23 278.93 124.27C278.95 124.3 278.96 124.34 278.97 124.4C278.98 124.45 278.98 124.5 278.98 124.57C278.98 124.63 278.98 124.69 278.97 124.75C278.96 124.8 278.95 124.85 278.93 124.89C278.92 124.92 278.89 124.95 278.86 124.98C278.83 124.99 278.79 125 278.74 125ZM275.21 125C275.16 125 275.12 124.99 275.09 124.98C275.06 124.95 275.04 124.92 275.02 124.89C275 124.85 274.99 124.8 274.98 124.75C274.98 124.69 274.97 124.63 274.97 124.57C274.97 124.48 274.98 124.41 275 124.35C275 124.29 275.03 124.24 275.07 124.21C275.1 124.17 275.15 124.15 275.21 124.15V125ZM275.21 125V124.15H276.94L276.51 124.5V119H277.44V125H275.21ZM275.69 117.92V116.84H276.63V117.92H275.69ZM277.34 117.92V116.84H278.27V117.92H277.34ZM285.54 125V124.15H286.84V125H285.54ZM278.74 125C278.69 125 278.65 124.99 278.62 124.98C278.59 124.95 278.56 124.92 278.55 124.89C278.53 124.85 278.52 124.8 278.51 124.75C278.5 124.69 278.5 124.63 278.5 124.57C278.5 124.48 278.51 124.41 278.52 124.35C278.53 124.29 278.56 124.24 278.6 124.21C278.63 124.17 278.68 124.15 278.74 124.15V125ZM278.74 125V124.15H285.3L284.61 124.64V122.06C284.61 121.5 284.54 121.06 284.42 120.74C284.29 120.42 284.07 120.19 283.76 120.06C283.45 119.92 283.04 119.85 282.51 119.85C282.17 119.85 281.84 119.88 281.5 119.92C281.17 119.97 280.92 120.04 280.73 120.12L281.3 119.54C281.25 119.73 281.2 119.98 281.15 120.27C281.1 120.56 281.06 120.87 281.03 121.21C281 121.54 280.98 121.88 280.98 122.22C280.98 122.56 281 122.9 281.03 123.22C281.06 123.55 281.1 123.84 281.14 124.08C281.18 124.32 281.21 124.48 281.24 124.58L280.35 124.83C280.32 124.73 280.28 124.55 280.23 124.29C280.19 124.04 280.15 123.73 280.11 123.37C280.08 123.01 280.06 122.62 280.06 122.22C280.06 121.82 280.08 121.44 280.11 121.08C280.15 120.7 280.19 120.36 280.24 120.06C280.3 119.75 280.35 119.51 280.4 119.32C280.57 119.25 280.85 119.18 281.24 119.11C281.62 119.04 282.04 119 282.51 119C283.18 119 283.74 119.1 284.19 119.3C284.64 119.5 284.98 119.82 285.21 120.27C285.43 120.71 285.54 121.31 285.54 122.06V125H278.74ZM286.84 125V124.15C286.89 124.15 286.93 124.16 286.96 124.18C286.99 124.2 287.02 124.23 287.03 124.27C287.05 124.3 287.06 124.34 287.07 124.4C287.08 124.45 287.08 124.5 287.08 124.57C287.08 124.63 287.08 124.69 287.07 124.75C287.06 124.8 287.05 124.85 287.03 124.89C287.02 124.92 286.99 124.95 286.96 124.98C286.93 124.99 286.89 125 286.84 125ZM289.07 125V124.15H290.37V125H289.07ZM290.37 125V124.15C290.41 124.15 290.45 124.16 290.49 124.18C290.52 124.2 290.54 124.23 290.56 124.27C290.57 124.3 290.59 124.34 290.59 124.4C290.6 124.45 290.61 124.5 290.61 124.57C290.61 124.63 290.6 124.69 290.59 124.75C290.59 124.8 290.57 124.85 290.56 124.89C290.54 124.92 290.52 124.95 290.49 124.98C290.45 124.99 290.41 125 290.37 125ZM286.84 125C286.79 125 286.75 124.99 286.72 124.98C286.69 124.95 286.66 124.92 286.65 124.89C286.63 124.85 286.62 124.8 286.61 124.75C286.6 124.69 286.6 124.63 286.6 124.57C286.6 124.48 286.61 124.41 286.62 124.35C286.63 124.29 286.65 124.24 286.69 124.21C286.73 124.17 286.77 124.15 286.84 124.15V125ZM286.84 125V124.15H288.57L288.13 124.5V119H289.07V125H286.84ZM287.32 117.92V116.84H288.25V117.92H287.32ZM288.96 117.92V116.84H289.9V117.92H288.96ZM296.68 125C296.41 125 296.14 124.95 295.87 124.84C295.62 124.74 295.37 124.58 295.13 124.35L295.74 123.72C295.93 123.87 296.09 123.98 296.23 124.05C296.38 124.12 296.53 124.15 296.68 124.15H298.81L298.45 124.53V121.66C298.45 121.52 298.44 121.32 298.41 121.05C298.38 120.79 298.34 120.49 298.29 120.16C298.24 119.83 298.18 119.49 298.11 119.16L299.02 119C299.07 119.28 299.13 119.59 299.19 119.94C299.24 120.28 299.29 120.61 299.33 120.92C299.37 121.22 299.39 121.47 299.39 121.66V125H296.68ZM290.37 125V124.15H292.12L291.88 124.39V120.2H292.8V125H290.37ZM292.8 125V124.15H294.16C294.43 124.15 294.63 124.11 294.77 124.03C294.91 123.95 295.01 123.79 295.07 123.55C295.13 123.31 295.15 122.96 295.15 122.49V119.6H296.09V122.49C296.09 123.12 296.02 123.61 295.89 123.98C295.76 124.35 295.55 124.61 295.27 124.77C294.99 124.92 294.62 125 294.16 125H292.8ZM290.37 125C290.32 125 290.28 124.99 290.25 124.98C290.21 124.95 290.19 124.92 290.17 124.89C290.16 124.85 290.15 124.8 290.14 124.75C290.13 124.69 290.13 124.63 290.13 124.57C290.13 124.48 290.13 124.41 290.15 124.35C290.16 124.29 290.18 124.24 290.22 124.21C290.25 124.17 290.3 124.15 290.37 124.15V125ZM301.44 125V116.4H302.37V125H301.44ZM134.28 143V141.6H135.3V143H134.28ZM139.24 143C138.55 143 138 142.9 137.61 142.69C137.23 142.47 136.96 142.14 136.8 141.7C136.64 141.26 136.57 140.69 136.57 140C136.57 139.31 136.64 138.75 136.8 138.31C136.96 137.86 137.23 137.53 137.61 137.32C138 137.11 138.55 137 139.24 137H141.73V142.52H140.79V137.44L141.27 137.85H139.24C138.78 137.85 138.42 137.91 138.16 138.02C137.92 138.13 137.74 138.34 137.65 138.66C137.55 138.96 137.5 139.41 137.5 140C137.5 140.59 137.55 141.04 137.65 141.36C137.74 141.66 137.92 141.87 138.16 141.98C138.42 142.09 138.78 142.15 139.24 142.15H143.02V143H139.24ZM143.02 143V142.15C143.07 142.15 143.11 142.16 143.14 142.18C143.18 142.2 143.2 142.23 143.22 142.27C143.23 142.3 143.24 142.34 143.25 142.4C143.26 142.45 143.26 142.5 143.26 142.57C143.26 142.63 143.26 142.69 143.25 142.75C143.24 142.8 143.23 142.85 143.22 142.89C143.2 142.92 143.18 142.95 143.14 142.98C143.11 142.99 143.07 143 143.02 143ZM138.08 135.92V134.84H139.02V135.92H138.08ZM139.72 135.92V134.84H140.66V135.92H139.72ZM143.03 143V142.15H144.63C145.11 142.15 145.57 142.07 146.01 141.92C146.45 141.76 146.86 141.55 147.23 141.3C147.59 141.03 147.91 140.74 148.19 140.43C148.46 140.11 148.67 139.79 148.82 139.46C148.97 139.13 149.05 138.82 149.05 138.54V137.82L149.55 138.57C149.09 138.33 148.63 138.15 148.19 138.03C147.74 137.91 147.3 137.85 146.88 137.85C146.45 137.85 146.02 137.91 145.57 138.03C145.12 138.15 144.67 138.33 144.21 138.57L144.72 137.82V138.54C144.72 138.82 144.79 139.13 144.95 139.46C145.1 139.79 145.31 140.11 145.57 140.43C145.84 140.74 146.16 141.03 146.53 141.3C146.9 141.55 147.3 141.76 147.74 141.92C148.18 142.07 148.64 142.15 149.12 142.15H150.66V143H149.12C148.5 143 147.91 142.9 147.37 142.7C146.83 142.5 146.33 142.24 145.89 141.91C145.45 141.57 145.07 141.21 144.75 140.82C144.44 140.42 144.2 140.02 144.03 139.63C143.87 139.23 143.78 138.86 143.78 138.54V137.82C144.13 137.63 144.47 137.48 144.83 137.36C145.18 137.24 145.53 137.15 145.87 137.1C146.22 137.03 146.56 137 146.88 137C147.21 137 147.54 137.03 147.89 137.1C148.23 137.15 148.58 137.24 148.93 137.36C149.28 137.48 149.63 137.63 149.97 137.82V138.54C149.97 138.86 149.89 139.23 149.72 139.63C149.55 140.02 149.31 140.42 148.99 140.82C148.68 141.21 148.3 141.57 147.86 141.91C147.42 142.24 146.93 142.5 146.39 142.7C145.84 142.9 145.26 143 144.63 143H143.03ZM143.03 143C142.98 143 142.94 142.99 142.91 142.98C142.87 142.95 142.85 142.92 142.83 142.89C142.82 142.85 142.81 142.8 142.8 142.75C142.79 142.69 142.79 142.63 142.79 142.57C142.79 142.48 142.79 142.41 142.81 142.35C142.82 142.29 142.84 142.24 142.88 142.21C142.91 142.17 142.96 142.15 143.03 142.15V143ZM150.66 143V142.15C150.71 142.15 150.75 142.16 150.78 142.18C150.81 142.2 150.83 142.23 150.85 142.27C150.87 142.3 150.88 142.34 150.89 142.4C150.89 142.45 150.9 142.5 150.9 142.57C150.9 142.63 150.89 142.69 150.89 142.75C150.88 142.8 150.87 142.85 150.85 142.89C150.83 142.92 150.81 142.95 150.78 142.98C150.75 142.99 150.71 143 150.66 143ZM156.97 143C156.69 143 156.43 142.95 156.16 142.84C155.91 142.74 155.66 142.58 155.42 142.35L156.03 141.72C156.21 141.87 156.38 141.98 156.52 142.05C156.67 142.12 156.81 142.15 156.97 142.15H159.1L158.74 142.53V139.66C158.74 139.52 158.73 139.32 158.69 139.05C158.67 138.79 158.63 138.49 158.57 138.16C158.53 137.83 158.47 137.49 158.39 137.16L159.31 137C159.36 137.28 159.42 137.59 159.47 137.94C159.53 138.28 159.58 138.61 159.62 138.92C159.66 139.22 159.68 139.47 159.68 139.66V143H156.97ZM150.65 143V142.15H152.41L152.17 142.39V138.2H153.09V143H150.65ZM153.09 143V142.15H154.45C154.72 142.15 154.92 142.11 155.06 142.03C155.2 141.95 155.3 141.79 155.36 141.55C155.41 141.31 155.44 140.96 155.44 140.49V137.6H156.38V140.49C156.38 141.12 156.31 141.61 156.17 141.98C156.05 142.35 155.84 142.61 155.56 142.77C155.28 142.92 154.91 143 154.45 143H153.09ZM150.65 143C150.61 143 150.57 142.99 150.53 142.98C150.5 142.95 150.48 142.92 150.46 142.89C150.45 142.85 150.43 142.8 150.43 142.75C150.42 142.69 150.41 142.63 150.41 142.57C150.41 142.48 150.42 142.41 150.44 142.35C150.45 142.29 150.47 142.24 150.51 142.21C150.54 142.17 150.59 142.15 150.65 142.15V143ZM155.48 134.34V133.32H156.34V134.34H155.48ZM154.61 135.92V134.84H155.55V135.92H154.61ZM156.26 135.92V134.84H157.19V135.92H156.26ZM161.06 143V142.15H166.93L166.4 142.69V134.4H167.34V143H161.06ZM162.98 142.15V136.1H163.9V142.15H162.98ZM162.88 135.3C162.76 135.14 162.66 134.98 162.58 134.83C162.52 134.68 162.49 134.52 162.49 134.35C162.49 134.12 162.54 133.91 162.66 133.72C162.78 133.54 162.93 133.4 163.12 133.29C163.32 133.19 163.52 133.14 163.75 133.14C163.88 133.14 164 133.16 164.13 133.2C164.26 133.23 164.37 133.28 164.47 133.34L164.16 133.88C164.09 133.84 164.03 133.82 163.96 133.81C163.91 133.79 163.85 133.78 163.78 133.78C163.6 133.78 163.45 133.84 163.34 133.94C163.24 134.04 163.18 134.18 163.18 134.35C163.18 134.45 163.2 134.55 163.24 134.65C163.29 134.74 163.36 134.85 163.45 134.96L162.88 135.3ZM162.26 135.3V134.66H164.62V135.3H162.26ZM169.45 143V134.4H170.38V143H169.45Z" fill="#525252"/>
<defs>
<filter id="filter0_d_0_1" x="114.5" y="0" width="76" height="76" filterUnits="userSpaceOnUse" color-interpolation-filters="sRGB">
<feFlood flood-opacity="0" result="BackgroundImageFix"/>
<feColorMatrix in="SourceAlpha" type="matrix" values="0 0 0 0 0 0 0 0 0 0 0 0 0 0 0 0 0 0 127 0" result="hardAlpha"/>
<feOffset dy="4"/>
<feGaussianBlur stdDeviation="8"/>
<feComposite in2="hardAlpha" operator="out"/>
<feColorMatrix type="matrix" values="0 0 0 0 0.298039 0 0 0 0 0.686275 0 0 0 0 0.313726 0 0 0 0.44 0"/>
<feBlend mode="normal" in2="BackgroundImageFix" result="effect1_dropShadow_0_1"/>
<feBlend mode="normal" in="SourceGraphic" in2="effect1_dropShadow_0_1" result="shape"/>
</filter>
</defs>
</svg>
