<svg width="162" height="54" viewBox="0 0 162 54" fill="none" xmlns="http://www.w3.org/2000/svg">
<rect width="162" height="54" rx="27" fill="#4CAF50"/>
<rect x="8" y="8" width="98" height="38" rx="18" fill="#FEFEFE"/>
<path d="M26.508 31V30.148H27.804V31H26.508ZM22.044 31C21.252 31 20.592 30.908 20.064 30.724C19.536 30.54 19.14 30.26 18.876 29.884C18.612 29.508 18.48 29.028 18.48 28.444C18.48 28.252 18.492 28.044 18.516 27.82C18.548 27.596 18.584 27.38 18.624 27.172C18.664 26.956 18.7 26.772 18.732 26.62C18.764 26.46 18.784 26.352 18.792 26.296L19.704 26.464C19.68 26.592 19.644 26.768 19.596 26.992C19.556 27.216 19.516 27.456 19.476 27.712C19.436 27.968 19.416 28.212 19.416 28.444C19.416 28.74 19.46 28.996 19.548 29.212C19.644 29.428 19.792 29.608 19.992 29.752C20.2 29.888 20.472 29.988 20.808 30.052C21.144 30.116 21.556 30.148 22.044 30.148H25.572V25H26.508V31H22.044ZM27.804 31V30.148C27.852 30.148 27.892 30.16 27.924 30.184C27.956 30.2 27.98 30.228 27.996 30.268C28.012 30.3 28.024 30.344 28.032 30.4C28.04 30.448 28.044 30.504 28.044 30.568C28.044 30.632 28.04 30.692 28.032 30.748C28.024 30.804 28.012 30.852 27.996 30.892C27.98 30.924 27.956 30.952 27.924 30.976C27.892 30.992 27.852 31 27.804 31ZM22.032 33.16V32.08H22.968V33.16H22.032ZM30.1966 31V30.148H31.4926V31H30.1966ZM27.8086 31C27.7606 31 27.7206 30.992 27.6886 30.976C27.6566 30.952 27.6326 30.924 27.6166 30.892C27.6006 30.852 27.5886 30.804 27.5806 30.748C27.5726 30.692 27.5686 30.632 27.5686 30.568C27.5686 30.48 27.5766 30.408 27.5926 30.352C27.6006 30.288 27.6246 30.24 27.6646 30.208C27.6966 30.168 27.7446 30.148 27.8086 30.148V31ZM29.2606 31V22.396H30.1966V31H29.2606ZM27.8086 31V30.148H29.2606V31H27.8086ZM31.4926 31V30.148C31.5406 30.148 31.5806 30.16 31.6126 30.184C31.6446 30.2 31.6686 30.228 31.6846 30.268C31.7006 30.3 31.7126 30.344 31.7206 30.4C31.7286 30.448 31.7326 30.504 31.7326 30.568C31.7326 30.632 31.7286 30.692 31.7206 30.748C31.7126 30.804 31.7006 30.852 31.6846 30.892C31.6686 30.924 31.6446 30.952 31.6126 30.976C31.5806 30.992 31.5406 31 31.4926 31ZM31.4883 31V30.148H39.4443L38.5803 30.928V28.108C38.5803 27.604 38.5083 27.188 38.3643 26.86C38.2283 26.524 38.0203 26.272 37.7403 26.104C37.4683 25.936 37.1243 25.852 36.7083 25.852C36.3563 25.852 36.0283 25.912 35.7243 26.032C35.4283 26.144 35.1523 26.296 34.8963 26.488C34.6403 26.672 34.4003 26.88 34.1763 27.112C33.9603 27.336 33.7603 27.564 33.5763 27.796C33.3923 28.028 33.2243 28.24 33.0723 28.432L32.7603 27.58C33.0083 27.268 33.2603 26.96 33.5163 26.656C33.7723 26.352 34.0523 26.076 34.3563 25.828C34.6603 25.58 35.0043 25.38 35.3883 25.228C35.7723 25.076 36.2123 25 36.7083 25C37.2763 25 37.7403 25.096 38.1003 25.288C38.4683 25.48 38.7523 25.736 38.9523 26.056C39.1603 26.368 39.3043 26.704 39.3843 27.064C39.4643 27.424 39.5043 27.772 39.5043 28.108V31H31.4883ZM32.2803 30.148V22.396H33.2163V30.148H32.2803ZM31.4883 31C31.4403 31 31.4003 30.992 31.3683 30.976C31.3363 30.952 31.3123 30.924 31.2963 30.892C31.2803 30.852 31.2683 30.804 31.2603 30.748C31.2523 30.692 31.2483 30.632 31.2483 30.568C31.2483 30.48 31.2563 30.408 31.2723 30.352C31.2803 30.288 31.3043 30.24 31.3443 30.208C31.3763 30.168 31.4243 30.148 31.4883 30.148V31ZM46.199 31C45.503 31 44.959 30.896 44.567 30.688C44.183 30.472 43.911 30.144 43.751 29.704C43.599 29.256 43.523 28.688 43.523 28C43.523 27.312 43.599 26.748 43.751 26.308C43.911 25.86 44.183 25.532 44.567 25.324C44.959 25.108 45.503 25 46.199 25H48.683V30.52H47.747V25.444L48.227 25.852H46.199C45.735 25.852 45.375 25.908 45.119 26.02C44.871 26.132 44.699 26.344 44.603 26.656C44.507 26.96 44.459 27.408 44.459 28C44.459 28.592 44.507 29.044 44.603 29.356C44.699 29.66 44.871 29.868 45.119 29.98C45.375 30.092 45.735 30.148 46.199 30.148H49.979V31H46.199ZM49.979 31V30.148C50.027 30.148 50.067 30.16 50.099 30.184C50.131 30.2 50.155 30.228 50.171 30.268C50.187 30.3 50.199 30.344 50.207 30.4C50.215 30.448 50.219 30.504 50.219 30.568C50.219 30.632 50.215 30.692 50.207 30.748C50.199 30.804 50.187 30.852 50.171 30.892C50.155 30.924 50.131 30.952 50.099 30.976C50.067 30.992 50.027 31 49.979 31ZM45.035 23.92V22.84H45.971V23.92H45.035ZM46.679 23.92V22.84H47.615V23.92H46.679ZM49.9805 31V30.148H56.0405L55.4165 30.688V25.444L55.9085 25.852H53.8685C53.4045 25.852 53.0445 25.908 52.7885 26.02C52.5405 26.132 52.3685 26.344 52.2725 26.656C52.1765 26.96 52.1285 27.408 52.1285 28C52.1285 28.592 52.1765 29.044 52.2725 29.356C52.3685 29.66 52.5405 29.868 52.7885 29.98C53.0445 30.092 53.4045 30.148 53.8685 30.148V30.76C53.1725 30.76 52.6285 30.676 52.2365 30.508C51.8525 30.332 51.5805 30.044 51.4205 29.644C51.2685 29.236 51.1925 28.688 51.1925 28C51.1925 27.312 51.2685 26.748 51.4205 26.308C51.5805 25.86 51.8525 25.532 52.2365 25.324C52.6285 25.108 53.1725 25 53.8685 25H56.3525V31H49.9805ZM49.9805 31C49.9325 31 49.8925 30.992 49.8605 30.976C49.8285 30.952 49.8045 30.924 49.7885 30.892C49.7725 30.852 49.7605 30.804 49.7525 30.748C49.7445 30.692 49.7405 30.632 49.7405 30.568C49.7405 30.48 49.7485 30.408 49.7645 30.352C49.7725 30.288 49.7965 30.24 49.8365 30.208C49.8685 30.168 49.9165 30.148 49.9805 30.148V31ZM53.5805 23.92V22.84H54.5165V23.92H53.5805ZM59.3455 31V30.148H60.8095V31H59.3455ZM58.4215 31V22.396H59.3455V31H58.4215ZM60.8095 31V30.148C60.8575 30.148 60.8975 30.16 60.9295 30.184C60.9615 30.2 60.9855 30.228 61.0015 30.268C61.0175 30.3 61.0295 30.344 61.0375 30.4C61.0455 30.448 61.0495 30.504 61.0495 30.568C61.0495 30.632 61.0455 30.692 61.0375 30.748C61.0295 30.804 61.0175 30.852 61.0015 30.892C60.9855 30.924 60.9615 30.952 60.9295 30.976C60.8975 30.992 60.8575 31 60.8095 31ZM60.8086 31V30.148H69.6766L68.8126 30.928V28.108C68.8126 27.604 68.7406 27.188 68.5966 26.86C68.4606 26.524 68.2526 26.272 67.9726 26.104C67.7006 25.936 67.3566 25.852 66.9406 25.852C66.5886 25.852 66.2606 25.912 65.9566 26.032C65.6606 26.144 65.3846 26.296 65.1286 26.488C64.8726 26.672 64.6326 26.88 64.4086 27.112C64.1926 27.336 63.9926 27.564 63.8086 27.796C63.6246 28.028 63.4566 28.24 63.3046 28.432L63.0046 27.58C63.2046 27.332 63.4046 27.084 63.6046 26.836C63.8126 26.588 64.0286 26.356 64.2526 26.14C64.4766 25.916 64.7206 25.72 64.9846 25.552C65.2566 25.384 65.5526 25.252 65.8726 25.156C66.1926 25.052 66.5526 25 66.9526 25C67.5206 25 67.9846 25.096 68.3446 25.288C68.7126 25.48 68.9966 25.736 69.1966 26.056C69.4046 26.368 69.5486 26.704 69.6286 27.064C69.7086 27.424 69.7486 27.772 69.7486 28.108V31H60.8086ZM62.5126 30.148V25H63.4486V30.148H62.5126ZM60.8086 31C60.7606 31 60.7206 30.992 60.6886 30.976C60.6566 30.952 60.6326 30.924 60.6166 30.892C60.6006 30.852 60.5886 30.804 60.5806 30.748C60.5726 30.692 60.5686 30.632 60.5686 30.568C60.5686 30.48 60.5766 30.408 60.5926 30.352C60.6006 30.288 60.6246 30.24 60.6646 30.208C60.6966 30.168 60.7446 30.148 60.8086 30.148V31ZM65.7886 23.932V22.852H66.7246V23.932H65.7886ZM71.8043 31V22.396H72.7283V31H71.8043ZM71.7083 34.228C71.5803 34.068 71.4803 33.912 71.4083 33.76C71.3443 33.608 71.3123 33.448 71.3123 33.28C71.3123 33.048 71.3683 32.84 71.4803 32.656C71.6003 32.472 71.7563 32.328 71.9483 32.224C72.1403 32.12 72.3483 32.068 72.5723 32.068C72.7003 32.068 72.8283 32.084 72.9563 32.116C73.0843 32.156 73.1963 32.208 73.2923 32.272L72.9803 32.812C72.9163 32.772 72.8523 32.744 72.7883 32.728C72.7323 32.72 72.6723 32.716 72.6083 32.716C72.4243 32.716 72.2763 32.768 72.1643 32.872C72.0603 32.976 72.0083 33.112 72.0083 33.28C72.0083 33.384 72.0283 33.484 72.0683 33.58C72.1163 33.676 72.1843 33.78 72.2723 33.892L71.7083 34.228ZM71.0843 34.228V33.592H73.4483V34.228H71.0843Z" fill="#050505"/>
<g clip-path="url(#clip0_605_2480)">
<path d="M97 27C97 27.1989 96.921 27.3897 96.7803 27.5303C96.6397 27.671 96.4489 27.75 96.25 27.75H88.75V35.25C88.75 35.4489 88.671 35.6397 88.5303 35.7803C88.3897 35.921 88.1989 36 88 36C87.8011 36 87.6103 35.921 87.4697 35.7803C87.329 35.6397 87.25 35.4489 87.25 35.25V27.75H79.75C79.5511 27.75 79.3603 27.671 79.2197 27.5303C79.079 27.3897 79 27.1989 79 27C79 26.8011 79.079 26.6103 79.2197 26.4697C79.3603 26.329 79.5511 26.25 79.75 26.25H87.25V18.75C87.25 18.5511 87.329 18.3603 87.4697 18.2197C87.6103 18.079 87.8011 18 88 18C88.1989 18 88.3897 18.079 88.5303 18.2197C88.671 18.3603 88.75 18.5511 88.75 18.75V26.25H96.25C96.4489 26.25 96.6397 26.329 96.7803 26.4697C96.921 26.6103 97 26.8011 97 27Z" fill="black"/>
</g>
<rect x="118" y="9" width="36" height="36" rx="18" fill="#FEFEFE"/>
<path d="M141.707 25.7927L136.707 20.7927C136.519 20.6053 136.265 20.5 136 20.5C135.735 20.5 135.481 20.6053 135.293 20.7927L130.293 25.7927C130.2 25.8853 130.126 25.9955 130.076 26.117C130.025 26.2384 130 26.3687 130 26.5002V32.5002C130 32.6328 130.053 32.7599 130.146 32.8537C130.24 32.9475 130.367 33.0002 130.5 33.0002H141.5C141.633 33.0002 141.76 32.9475 141.854 32.8537C141.947 32.7599 142 32.6328 142 32.5002V26.5002C142 26.3687 141.975 26.2384 141.924 26.117C141.874 25.9955 141.8 25.8853 141.707 25.7927ZM141 32.0002H131V26.5002L136 21.5002L141 26.5002V32.0002Z" fill="#050505"/>
<defs>
<clipPath id="clip0_605_2480">
<rect width="16" height="16" fill="white" transform="translate(80 19)"/>
</clipPath>
</defs>
</svg>
