<svg width="154" height="54" viewBox="0 0 154 54" fill="none" xmlns="http://www.w3.org/2000/svg">
<path d="M127 0H27C12.0883 0 0 12.0883 0 27C0 41.9117 12.0883 54 27 54H127C141.912 54 154 41.9117 154 27C154 12.0883 141.912 0 127 0Z" fill="#00AFF3"/>
<path d="M44 27C44 17.0589 35.9411 9 26 9C16.0589 9 8 17.0589 8 27C8 36.9411 16.0589 45 26 45C35.9411 45 44 36.9411 44 27Z" fill="#FEFEFE"/>
<path d="M32.2095 20.79C32.0795 20.67 31.9195 20.5797 31.7495 20.5297C31.5795 20.4897 31.3995 20.49 31.2295 20.54H31.2198L19.2198 24.1801C19.0298 24.2301 18.8595 24.3499 18.7295 24.4999C18.5995 24.6599 18.5195 24.85 18.4995 25.06C18.4895 25.26 18.5294 25.4601 18.6294 25.6401C18.7294 25.8101 18.8794 25.95 19.0694 26.04L24.3697 28.62L26.9595 33.9301C27.0395 34.1001 27.1594 34.25 27.3194 34.35C27.4794 34.45 27.6694 34.4999 27.8594 34.4999C27.8894 34.4999 27.9195 34.4999 27.9395 34.4999C28.1495 34.4799 28.3395 34.3999 28.4995 34.2699C28.6495 34.1399 28.7594 33.9697 28.8194 33.7797L32.4595 21.7797V21.7699C32.5095 21.5999 32.5098 21.4199 32.4698 21.2499C32.4198 21.0799 32.3295 20.92 32.2095 20.79ZM27.8594 33.4902L25.3594 28.35L28.3594 25.35C28.4494 25.26 28.4998 25.1299 28.4898 24.9999C28.4898 24.8699 28.4396 24.7498 28.3496 24.6498C28.2596 24.5598 28.1295 24.5097 27.9995 24.5097C27.8695 24.5097 27.7494 24.5501 27.6494 24.6401L24.6494 27.6401L19.4995 25.1401H19.5093L31.4995 21.4999L27.8594 33.4902Z" fill="black"/>
<path d="M127 8H75C64.5066 8 56 16.5066 56 27C56 37.4934 64.5066 46 75 46H127C137.493 46 146 37.4934 146 27C146 16.5066 137.493 8 127 8Z" fill="#FEFEFE"/>
<path d="M79.1606 31C78.4606 31 77.9205 30.8999 77.5205 30.6899C77.1405 30.4699 76.8704 30.1402 76.7104 29.7002C76.5604 29.2602 76.4805 28.69 76.4805 28C76.4805 27.31 76.5604 26.7501 76.7104 26.3101C76.8704 25.8601 77.1405 25.5298 77.5205 25.3198C77.9205 25.1098 78.4606 25 79.1606 25H81.6406V30.52H80.7007V25.4399L81.1807 25.8501H79.1606C78.6906 25.8501 78.3306 25.91 78.0806 26.02C77.8306 26.13 77.6605 26.3402 77.5605 26.6602C77.4605 26.9602 77.4204 27.41 77.4204 28C77.4204 28.59 77.4605 29.0399 77.5605 29.3599C77.6605 29.6599 77.8306 29.87 78.0806 29.98C78.3306 30.09 78.6906 30.1499 79.1606 30.1499H82.9404V31H79.1606ZM82.9404 31V30.1499C82.9804 30.1499 83.0205 30.1602 83.0605 30.1802C83.0905 30.2002 83.1104 30.23 83.1304 30.27C83.1404 30.3 83.1606 30.3399 83.1606 30.3999C83.1706 30.4499 83.1807 30.4998 83.1807 30.5698C83.1807 30.6298 83.1706 30.69 83.1606 30.75C83.1606 30.8 83.1404 30.8501 83.1304 30.8901C83.1104 30.9201 83.0905 30.95 83.0605 30.98C83.0205 30.99 82.9804 31 82.9404 31ZM77.9907 23.9199V22.8398H78.9307V23.9199H77.9907ZM79.6406 23.9199V22.8398H80.5703V23.9199H79.6406ZM85.1704 31V30.1499H86.4707V31H85.1704ZM86.4707 31V30.1499C86.5107 30.1499 86.5503 30.1602 86.5903 30.1802C86.6203 30.2002 86.6406 30.23 86.6606 30.27C86.6706 30.3 86.6904 30.3399 86.6904 30.3999C86.7004 30.4499 86.7104 30.4998 86.7104 30.5698C86.7104 30.6298 86.7004 30.69 86.6904 30.75C86.6904 30.8 86.6706 30.8501 86.6606 30.8901C86.6406 30.9201 86.6203 30.95 86.5903 30.98C86.5503 30.99 86.5107 31 86.4707 31ZM82.9404 31C82.8904 31 82.8503 30.99 82.8203 30.98C82.7903 30.95 82.7605 30.9201 82.7505 30.8901C82.7305 30.8501 82.7204 30.8 82.7104 30.75C82.7004 30.69 82.7007 30.6298 82.7007 30.5698C82.7007 30.4798 82.7107 30.4101 82.7207 30.3501C82.7307 30.2901 82.7505 30.24 82.7905 30.21C82.8305 30.17 82.8704 30.1499 82.9404 30.1499V31ZM82.9404 31V30.1499H84.6704L84.2305 30.5V25H85.1704V31H82.9404ZM83.4204 33.1602V32.0801H84.3506V33.1602H83.4204ZM85.0605 33.1602V32.0801H86.0005V33.1602H85.0605ZM95.4907 31V30.1499H96.7803V31H95.4907ZM86.4604 31C86.4204 31 86.3803 30.99 86.3403 30.98C86.3103 30.95 86.2905 30.9201 86.2705 30.8901C86.2605 30.8501 86.2407 30.8 86.2407 30.75C86.2307 30.69 86.2207 30.6298 86.2207 30.5698C86.2207 30.4798 86.2305 30.4101 86.2505 30.3501C86.2605 30.2901 86.2803 30.24 86.3203 30.21C86.3503 30.17 86.4004 30.1499 86.4604 30.1499V31ZM92.7803 31C92.5003 31 92.2407 30.9498 91.9707 30.8398C91.7207 30.7398 91.4705 30.5801 91.2305 30.3501L91.8403 29.7202C92.0203 29.8702 92.1906 29.9798 92.3306 30.0498C92.4806 30.1198 92.6203 30.1499 92.7803 30.1499H94.9106L94.5503 30.5298V27.6602C94.5503 27.5202 94.5405 27.3198 94.5005 27.0498C94.4805 26.7898 94.4404 26.4902 94.3804 26.1602C94.3404 25.8302 94.2807 25.4902 94.2007 25.1602L95.1206 25C95.1706 25.28 95.2303 25.5899 95.2803 25.9399C95.3403 26.2799 95.3907 26.6099 95.4307 26.9199C95.4707 27.2199 95.4907 27.4702 95.4907 27.6602V31H92.7803ZM86.4604 31V30.1499H88.2207L87.9805 30.3901V26.2002H88.9004V31H86.4604ZM88.9004 31V30.1499H90.2603C90.5303 30.1499 90.7306 30.1098 90.8706 30.0298C91.0106 29.9498 91.1104 29.7898 91.1704 29.5498C91.2204 29.3098 91.2505 28.9602 91.2505 28.4902V25.6001H92.1904V28.4902C92.1904 29.1202 92.1205 29.61 91.9805 29.98C91.8605 30.35 91.6506 30.61 91.3706 30.77C91.0906 30.92 90.7203 31 90.2603 31H88.9004ZM96.7803 31V30.1499C96.8303 30.1499 96.8704 30.1602 96.9004 30.1802C96.9404 30.2002 96.9605 30.23 96.9805 30.27C96.9905 30.3 97.0003 30.3399 97.0103 30.3999C97.0203 30.4499 97.0205 30.4998 97.0205 30.5698C97.0205 30.6298 97.0203 30.69 97.0103 30.75C97.0003 30.8 96.9905 30.8501 96.9805 30.8901C96.9605 30.9201 96.9404 30.95 96.9004 30.98C96.8704 30.99 96.8303 31 96.7803 31ZM99.0205 31V30.1499H100.32V31H99.0205ZM100.32 31V30.1499C100.37 30.1499 100.41 30.1602 100.44 30.1802C100.47 30.2002 100.49 30.23 100.51 30.27C100.53 30.3 100.54 30.3399 100.55 30.3999C100.55 30.4499 100.561 30.4998 100.561 30.5698C100.561 30.6298 100.55 30.69 100.55 30.75C100.54 30.8 100.53 30.8501 100.51 30.8901C100.49 30.9201 100.47 30.95 100.44 30.98C100.41 30.99 100.37 31 100.32 31ZM96.7905 31C96.7405 31 96.7004 30.99 96.6704 30.98C96.6404 30.95 96.6106 30.9201 96.6006 30.8901C96.5806 30.8501 96.5705 30.8 96.5605 30.75C96.5505 30.69 96.5503 30.6298 96.5503 30.5698C96.5503 30.4798 96.5603 30.4101 96.5703 30.3501C96.5803 30.2901 96.6104 30.24 96.6504 30.21C96.6804 30.17 96.7305 30.1499 96.7905 30.1499V31ZM96.7905 31V30.1499H98.5205L98.0903 30.5V25H99.0205V31H96.7905ZM97.2705 33.1602V32.0801H98.2104V33.1602H97.2705ZM98.9106 33.1602V32.0801H99.8506V33.1602H98.9106ZM100.32 31V30.1499H102.041L101.61 30.5V25H102.55V31H100.32ZM100.32 31C100.27 31 100.231 30.99 100.201 30.98C100.161 30.95 100.141 30.9201 100.121 30.8901C100.111 30.8501 100.1 30.8 100.09 30.75C100.08 30.69 100.081 30.6298 100.081 30.5698C100.081 30.4798 100.081 30.4101 100.101 30.3501C100.111 30.2901 100.13 30.24 100.17 30.21C100.2 30.17 100.25 30.1499 100.32 30.1499V31ZM101.521 23.9199C101.391 23.7599 101.291 23.6002 101.221 23.4502C101.151 23.3002 101.121 23.1402 101.121 22.9702C101.121 22.7402 101.181 22.5301 101.291 22.3501C101.411 22.1601 101.56 22.0199 101.76 21.9199C101.95 21.8099 102.16 21.7598 102.38 21.7598C102.51 21.7598 102.64 21.7798 102.76 21.8198C102.89 21.8498 103.001 21.9 103.101 21.96L102.791 22.5C102.721 22.46 102.661 22.4402 102.601 22.4302C102.541 22.4202 102.48 22.4102 102.42 22.4102C102.23 22.4102 102.081 22.4601 101.971 22.5601C101.871 22.6701 101.82 22.8002 101.82 22.9702C101.82 23.0802 101.84 23.18 101.88 23.27C101.92 23.37 101.991 23.4701 102.081 23.5801L101.521 23.9199ZM100.891 23.9199V23.2798H103.26V23.9199H100.891ZM105.581 31V30.1499H107.121V31H105.581ZM103.621 33.6499C103.521 33.6499 103.41 33.6399 103.3 33.6299C103.18 33.6199 103.061 33.6101 102.951 33.6001L103.061 32.75C103.171 32.76 103.281 32.7698 103.371 32.7798C103.471 32.7898 103.551 32.7998 103.621 32.7998C104.001 32.7998 104.301 32.6601 104.541 32.3701C104.771 32.0901 104.88 31.6999 104.88 31.1899V25H105.82V31.1899C105.82 31.6799 105.72 32.11 105.53 32.48C105.35 32.85 105.09 33.1398 104.76 33.3398C104.44 33.5498 104.061 33.6499 103.621 33.6499ZM107.121 31V30.1499C107.161 30.1499 107.201 30.1602 107.241 30.1802C107.271 30.2002 107.291 30.23 107.311 30.27C107.321 30.3 107.34 30.3399 107.34 30.3999C107.35 30.4499 107.36 30.4998 107.36 30.5698C107.36 30.6298 107.35 30.69 107.34 30.75C107.34 30.8 107.321 30.8501 107.311 30.8901C107.291 30.9201 107.271 30.95 107.241 30.98C107.201 30.99 107.161 31 107.121 31ZM108.57 31V22.3999H109.5V31H108.57ZM107.11 31V30.1499H108.57V31H107.11ZM107.11 31C107.07 31 107.031 30.99 106.991 30.98C106.961 30.95 106.94 30.9201 106.92 30.8901C106.91 30.8501 106.891 30.8 106.891 30.75C106.881 30.69 106.871 30.6298 106.871 30.5698C106.871 30.4798 106.88 30.4101 106.9 30.3501C106.91 30.2901 106.931 30.24 106.971 30.21C107.001 30.17 107.05 30.1499 107.11 30.1499V31ZM111.57 31V22.3999H112.491V31H111.57Z" fill="#050505"/>
<path d="M133.71 25.79L128.71 20.79C128.52 20.61 128.27 20.5 128 20.5C127.73 20.5 127.48 20.61 127.29 20.79L122.29 25.79C122.2 25.89 122.13 26.0001 122.08 26.1201C122.03 26.2401 122 26.37 122 26.5V32.5C122 32.63 122.05 32.7601 122.15 32.8501C122.24 32.9501 122.37 33 122.5 33H133.5C133.63 33 133.76 32.9501 133.85 32.8501C133.95 32.7601 134 32.63 134 32.5V26.5C134 26.37 133.97 26.2401 133.92 26.1201C133.87 26.0001 133.8 25.89 133.71 25.79ZM133 32H123V26.5L128 21.5L133 26.5V32Z" fill="#050505"/>
</svg>
