<svg width="334" height="64" viewBox="0 0 334 64" fill="none" xmlns="http://www.w3.org/2000/svg">
<rect width="334" height="64" rx="30" fill="#EDF7EE"/>
<rect x="34" y="12" width="40" height="40" rx="15" fill="#4CAF50"/>
<g clip-path="url(#clip0_117_1726)">
<path d="M61.4401 32.99L61.4301 33.01C61.4701 32.68 61.5101 32.34 61.5101 32C61.5101 31.66 61.4801 31.34 61.4401 31.01L61.4501 31.03L63.8901 29.11L61.4601 24.89L58.5901 26.05L58.6001 26.06C58.0801 25.66 57.5101 25.32 56.8901 25.06H56.9001L56.4401 22H51.5701L51.1301 25.07H51.1401C50.5201 25.33 49.9501 25.67 49.4301 26.07L49.4401 26.06L46.5601 24.89L44.1201 29.11L46.5601 31.03L46.5701 31.01C46.5301 31.34 46.5001 31.66 46.5001 32C46.5001 32.34 46.5301 32.68 46.5801 33.01L46.5701 32.99L44.4701 34.64L44.1401 34.9L46.5701 39.1L49.4501 37.95L49.4301 37.91C49.9601 38.32 50.5301 38.66 51.1601 38.92H51.1301L51.5801 42H56.4301C56.4301 42 56.4601 41.82 56.4901 41.58L56.8701 38.93H56.8601C57.4801 38.67 58.0601 38.33 58.5901 37.92L58.5701 37.96L61.4501 39.11L63.8801 34.91C63.8801 34.91 63.7401 34.79 63.5501 34.65L61.4401 32.99ZM54.0001 35.5C52.0701 35.5 50.5001 33.93 50.5001 32C50.5001 30.07 52.0701 28.5 54.0001 28.5C55.9301 28.5 57.5001 30.07 57.5001 32C57.5001 33.93 55.9301 35.5 54.0001 35.5Z" fill="#060606"/>
</g>
<path d="M162.5 26.75H165.5M162.5 32H171.5M162.5 35H171.5M162.5 38H165.5M161 41.75H173C173.398 41.75 173.779 41.592 174.061 41.3107C174.342 41.0294 174.5 40.6478 174.5 40.25V23.75C174.5 23.3522 174.342 22.9706 174.061 22.6893C173.779 22.408 173.398 22.25 173 22.25H161C160.602 22.25 160.221 22.408 159.939 22.6893C159.658 22.9706 159.5 23.3522 159.5 23.75V40.25C159.5 40.6478 159.658 41.0294 159.939 41.3107C160.221 41.592 160.602 41.75 161 41.75Z" stroke="black" stroke-width="1.5" stroke-linecap="round" stroke-linejoin="round"/>
<path d="M171.5 27.125C171.707 27.125 171.875 26.9571 171.875 26.75C171.875 26.5429 171.707 26.375 171.5 26.375C171.293 26.375 171.125 26.5429 171.125 26.75C171.125 26.9571 171.293 27.125 171.5 27.125Z" fill="black" stroke="black" stroke-width="0.75"/>
<g clip-path="url(#clip1_117_1726)">
<path d="M278 40V34H282V40H287V32H290L280 23L270 32H273V40H278Z" fill="#060606"/>
</g>
<defs>
<clipPath id="clip0_117_1726">
<rect width="24" height="24" fill="white" transform="translate(42 20)"/>
</clipPath>
<clipPath id="clip1_117_1726">
<rect width="24" height="24" fill="white" transform="translate(268 20)"/>
</clipPath>
</defs>
</svg>
