<svg width="154" height="54" viewBox="0 0 154 54" fill="none" xmlns="http://www.w3.org/2000/svg">
<rect width="154" height="54" rx="27" fill="#4CAF50"/>
<rect x="8" y="9" width="36" height="36" rx="18" fill="#FEFEFE"/>
<g clip-path="url(#clip0_420_5204)">
<path d="M35 27C35 27.1989 34.921 27.3897 34.7803 27.5303C34.6397 27.671 34.4489 27.75 34.25 27.75H26.75V35.25C26.75 35.4489 26.671 35.6397 26.5303 35.7803C26.3897 35.921 26.1989 36 26 36C25.8011 36 25.6103 35.921 25.4697 35.7803C25.329 35.6397 25.25 35.4489 25.25 35.25V27.75H17.75C17.5511 27.75 17.3603 27.671 17.2197 27.5303C17.079 27.3897 17 27.1989 17 27C17 26.8011 17.079 26.6103 17.2197 26.4697C17.3603 26.329 17.5511 26.25 17.75 26.25H25.25V18.75C25.25 18.5511 25.329 18.3603 25.4697 18.2197C25.6103 18.079 25.8011 18 26 18C26.1989 18 26.3897 18.079 26.5303 18.2197C26.671 18.3603 26.75 18.5511 26.75 18.75V26.25H34.25C34.4489 26.25 34.6397 26.329 34.7803 26.4697C34.921 26.6103 35 26.8011 35 27Z" fill="black"/>
</g>
<rect x="56" y="8" width="90" height="38" rx="19" fill="#FEFEFE"/>
<path d="M79.156 31C78.46 31 77.916 30.896 77.524 30.688C77.14 30.472 76.868 30.144 76.708 29.704C76.556 29.256 76.48 28.688 76.48 28C76.48 27.312 76.556 26.748 76.708 26.308C76.868 25.86 77.14 25.532 77.524 25.324C77.916 25.108 78.46 25 79.156 25H81.64V30.52H80.704V25.444L81.184 25.852H79.156C78.692 25.852 78.332 25.908 78.076 26.02C77.828 26.132 77.656 26.344 77.56 26.656C77.464 26.96 77.416 27.408 77.416 28C77.416 28.592 77.464 29.044 77.56 29.356C77.656 29.66 77.828 29.868 78.076 29.98C78.332 30.092 78.692 30.148 79.156 30.148H82.936V31H79.156ZM82.936 31V30.148C82.984 30.148 83.024 30.16 83.056 30.184C83.088 30.2 83.112 30.228 83.128 30.268C83.144 30.3 83.156 30.344 83.164 30.4C83.172 30.448 83.176 30.504 83.176 30.568C83.176 30.632 83.172 30.692 83.164 30.748C83.156 30.804 83.144 30.852 83.128 30.892C83.112 30.924 83.088 30.952 83.056 30.976C83.024 30.992 82.984 31 82.936 31ZM77.992 23.92V22.84H78.928V23.92H77.992ZM79.636 23.92V22.84H80.572V23.92H79.636ZM85.1695 31V30.148H86.4655V31H85.1695ZM86.4655 31V30.148C86.5135 30.148 86.5535 30.16 86.5855 30.184C86.6175 30.2 86.6415 30.228 86.6575 30.268C86.6735 30.3 86.6855 30.344 86.6935 30.4C86.7015 30.448 86.7055 30.504 86.7055 30.568C86.7055 30.632 86.7015 30.692 86.6935 30.748C86.6855 30.804 86.6735 30.852 86.6575 30.892C86.6415 30.924 86.6175 30.952 86.5855 30.976C86.5535 30.992 86.5135 31 86.4655 31ZM82.9375 31C82.8895 31 82.8495 30.992 82.8175 30.976C82.7855 30.952 82.7615 30.924 82.7455 30.892C82.7295 30.852 82.7175 30.804 82.7095 30.748C82.7015 30.692 82.6975 30.632 82.6975 30.568C82.6975 30.48 82.7055 30.408 82.7215 30.352C82.7295 30.288 82.7535 30.24 82.7935 30.208C82.8255 30.168 82.8735 30.148 82.9375 30.148V31ZM82.9375 31V30.148H84.6655L84.2335 30.496V25H85.1695V31H82.9375ZM83.4175 33.16V32.08H84.3535V33.16H83.4175ZM85.0615 33.16V32.08H85.9975V33.16H85.0615ZM95.4888 31V30.148H96.7848V31H95.4888ZM86.4648 31C86.4168 31 86.3768 30.992 86.3448 30.976C86.3128 30.952 86.2888 30.924 86.2728 30.892C86.2568 30.852 86.2448 30.804 86.2368 30.748C86.2288 30.692 86.2248 30.632 86.2248 30.568C86.2248 30.48 86.2328 30.408 86.2488 30.352C86.2568 30.288 86.2808 30.24 86.3208 30.208C86.3528 30.168 86.4008 30.148 86.4648 30.148V31ZM92.7768 31C92.5048 31 92.2368 30.948 91.9728 30.844C91.7168 30.74 91.4688 30.576 91.2288 30.352L91.8408 29.716C92.0248 29.868 92.1888 29.98 92.3328 30.052C92.4768 30.116 92.6248 30.148 92.7768 30.148H94.9128L94.5528 30.532V27.664C94.5528 27.52 94.5368 27.316 94.5048 27.052C94.4808 26.788 94.4408 26.492 94.3848 26.164C94.3368 25.828 94.2768 25.492 94.2048 25.156L95.1168 25C95.1728 25.28 95.2288 25.592 95.2848 25.936C95.3408 26.28 95.3888 26.608 95.4288 26.92C95.4688 27.224 95.4888 27.472 95.4888 27.664V31H92.7768ZM86.4648 31V30.148H88.2168L87.9768 30.388V26.2H88.9008V31H86.4648ZM88.9008 31V30.148H90.2568C90.5288 30.148 90.7328 30.108 90.8688 30.028C91.0128 29.948 91.1128 29.788 91.1688 29.548C91.2248 29.308 91.2528 28.956 91.2528 28.492V25.6H92.1888V28.492C92.1888 29.116 92.1208 29.612 91.9848 29.98C91.8568 30.348 91.6528 30.612 91.3728 30.772C91.0928 30.924 90.7208 31 90.2568 31H88.9008ZM96.7848 31V30.148C96.8328 30.148 96.8728 30.16 96.9048 30.184C96.9368 30.2 96.9608 30.228 96.9768 30.268C96.9928 30.3 97.0048 30.344 97.0128 30.4C97.0208 30.448 97.0248 30.504 97.0248 30.568C97.0248 30.632 97.0208 30.692 97.0128 30.748C97.0048 30.804 96.9928 30.852 96.9768 30.892C96.9608 30.924 96.9368 30.952 96.9048 30.976C96.8728 30.992 96.8328 31 96.7848 31ZM99.0211 31V30.148H100.317V31H99.0211ZM100.317 31V30.148C100.365 30.148 100.405 30.16 100.437 30.184C100.469 30.2 100.493 30.228 100.509 30.268C100.525 30.3 100.537 30.344 100.545 30.4C100.553 30.448 100.557 30.504 100.557 30.568C100.557 30.632 100.553 30.692 100.545 30.748C100.537 30.804 100.525 30.852 100.509 30.892C100.493 30.924 100.469 30.952 100.437 30.976C100.405 30.992 100.365 31 100.317 31ZM96.7891 31C96.7411 31 96.7011 30.992 96.6691 30.976C96.6371 30.952 96.6131 30.924 96.5971 30.892C96.5811 30.852 96.5691 30.804 96.5611 30.748C96.5531 30.692 96.5491 30.632 96.5491 30.568C96.5491 30.48 96.5571 30.408 96.5731 30.352C96.5811 30.288 96.6051 30.24 96.6451 30.208C96.6771 30.168 96.7251 30.148 96.7891 30.148V31ZM96.7891 31V30.148H98.5171L98.0851 30.496V25H99.0211V31H96.7891ZM97.2691 33.16V32.08H98.2051V33.16H97.2691ZM98.9131 33.16V32.08H99.8491V33.16H98.9131ZM100.316 31V30.148H102.044L101.612 30.496V25H102.548V31H100.316ZM100.316 31C100.268 31 100.228 30.992 100.196 30.976C100.164 30.952 100.14 30.924 100.124 30.892C100.108 30.852 100.096 30.804 100.088 30.748C100.08 30.692 100.076 30.632 100.076 30.568C100.076 30.48 100.084 30.408 100.1 30.352C100.108 30.288 100.132 30.24 100.172 30.208C100.204 30.168 100.252 30.148 100.316 30.148V31ZM101.516 23.92C101.388 23.76 101.288 23.604 101.216 23.452C101.152 23.3 101.12 23.14 101.12 22.972C101.12 22.74 101.176 22.532 101.288 22.348C101.408 22.164 101.564 22.02 101.756 21.916C101.948 21.812 102.156 21.76 102.38 21.76C102.508 21.76 102.636 21.78 102.764 21.82C102.892 21.852 103.004 21.9 103.1 21.964L102.788 22.504C102.724 22.464 102.66 22.44 102.596 22.432C102.54 22.416 102.48 22.408 102.416 22.408C102.232 22.408 102.084 22.46 101.972 22.564C101.868 22.668 101.816 22.804 101.816 22.972C101.816 23.076 101.836 23.176 101.876 23.272C101.924 23.368 101.992 23.472 102.08 23.584L101.516 23.92ZM100.892 23.92V23.284H103.256V23.92H100.892ZM105.58 31V30.148H107.116V31H105.58ZM103.624 33.652C103.52 33.652 103.412 33.644 103.3 33.628C103.18 33.62 103.064 33.612 102.952 33.604L103.06 32.752C103.172 32.76 103.276 32.768 103.372 32.776C103.468 32.792 103.552 32.8 103.624 32.8C104 32.8 104.304 32.656 104.536 32.368C104.768 32.088 104.884 31.696 104.884 31.192V25H105.82V31.192C105.82 31.68 105.724 32.108 105.532 32.476C105.348 32.852 105.092 33.14 104.764 33.34C104.436 33.548 104.056 33.652 103.624 33.652ZM107.116 31V30.148C107.164 30.148 107.204 30.16 107.236 30.184C107.268 30.2 107.292 30.228 107.308 30.268C107.324 30.3 107.336 30.344 107.344 30.4C107.352 30.448 107.356 30.504 107.356 30.568C107.356 30.632 107.352 30.692 107.344 30.748C107.336 30.804 107.324 30.852 107.308 30.892C107.292 30.924 107.268 30.952 107.236 30.976C107.204 30.992 107.164 31 107.116 31ZM108.565 31V22.396H109.501V31H108.565ZM107.113 31V30.148H108.565V31H107.113ZM107.113 31C107.065 31 107.025 30.992 106.993 30.976C106.961 30.952 106.937 30.924 106.921 30.892C106.905 30.852 106.893 30.804 106.885 30.748C106.877 30.692 106.873 30.632 106.873 30.568C106.873 30.48 106.881 30.408 106.897 30.352C106.905 30.288 106.929 30.24 106.969 30.208C107.001 30.168 107.049 30.148 107.113 30.148V31ZM111.57 31V22.396H112.494V31H111.57Z" fill="#050505"/>
<path d="M133.707 25.7924L128.707 20.7924C128.519 20.605 128.265 20.4998 128 20.4998C127.735 20.4998 127.481 20.605 127.293 20.7924L122.293 25.7924C122.2 25.885 122.126 25.9953 122.076 26.1167C122.025 26.2382 122 26.3684 122 26.4999V32.4999C122 32.6325 122.053 32.7597 122.146 32.8535C122.24 32.9472 122.367 32.9999 122.5 32.9999H133.5C133.633 32.9999 133.76 32.9472 133.854 32.8535C133.947 32.7597 134 32.6325 134 32.4999V26.4999C134 26.3684 133.975 26.2382 133.924 26.1167C133.874 25.9953 133.8 25.885 133.707 25.7924ZM133 31.9999H123V26.4999L128 21.4999L133 26.4999V31.9999Z" fill="#050505"/>
<defs>
<clipPath id="clip0_420_5204">
<rect width="16" height="16" fill="white" transform="translate(18 19)"/>
</clipPath>
</defs>
</svg>
