<svg width="100" height="44" viewBox="0 0 100 44" fill="none" xmlns="http://www.w3.org/2000/svg">
<rect x="0.5" y="0.5" width="99" height="43" rx="5.5" stroke="#4CAF50"/>
<path d="M31.0307 28.9693C31.1004 29.039 31.1557 29.1217 31.1934 29.2128C31.2311 29.3038 31.2505 29.4014 31.2505 29.4999C31.2505 29.5985 31.2311 29.6961 31.1934 29.7871C31.1557 29.8781 31.1004 29.9609 31.0307 30.0306C30.961 30.1002 30.8783 30.1555 30.7873 30.1932C30.6962 30.2309 30.5986 30.2503 30.5001 30.2503C30.4016 30.2503 30.304 30.2309 30.2129 30.1932C30.1219 30.1555 30.0392 30.1002 29.9695 30.0306L22.4695 22.5306C22.3997 22.4609 22.3444 22.3782 22.3067 22.2871C22.2689 22.1961 22.2495 22.0985 22.2495 21.9999C22.2495 21.9014 22.2689 21.8038 22.3067 21.7127C22.3444 21.6217 22.3997 21.539 22.4695 21.4693L29.9695 13.9693C30.1102 13.8286 30.3011 13.7495 30.5001 13.7495C30.6991 13.7495 30.89 13.8286 31.0307 13.9693C31.1715 14.11 31.2505 14.3009 31.2505 14.4999C31.2505 14.699 31.1715 14.8898 31.0307 15.0306L24.0604 21.9999L31.0307 28.9693Z" fill="#050505"/>
<path d="M62.222 28V15.811H63.548V28H62.222ZM60.165 28V26.793H62.222V28H60.165ZM60.165 28C60.097 28 60.0403 27.9887 59.995 27.966C59.9497 27.932 59.9157 27.8923 59.893 27.847C59.8703 27.7903 59.8533 27.7223 59.842 27.643C59.8307 27.5637 59.825 27.4787 59.825 27.388C59.825 27.2633 59.8307 27.1613 59.842 27.082C59.8647 26.9913 59.8987 26.9233 59.944 26.878C60.0007 26.8213 60.0743 26.793 60.165 26.793V28ZM52.855 32.216C52.1977 32.216 51.5857 32.1197 51.019 31.927C50.4523 31.7457 49.9537 31.485 49.523 31.145C49.1037 30.8163 48.775 30.4197 48.537 29.955C48.299 29.4903 48.18 28.9803 48.18 28.425C48.18 28.1983 48.197 27.898 48.231 27.524C48.2763 27.15 48.3273 26.7307 48.384 26.266C48.452 25.79 48.5257 25.3083 48.605 24.821L49.914 25.008C49.7893 25.7673 49.6873 26.4587 49.608 27.082C49.54 27.7053 49.506 28.1473 49.506 28.408C49.506 28.918 49.6477 29.3657 49.931 29.751C50.2143 30.1477 50.6053 30.4537 51.104 30.669C51.614 30.8957 52.1977 31.009 52.855 31.009H57.666C58.5273 31.009 59.179 30.771 59.621 30.295C60.0743 29.819 60.301 29.122 60.301 28.204V27.643H61.61V28.221C61.61 29.003 61.457 29.6943 61.151 30.295C60.845 30.8957 60.3973 31.366 59.808 31.706C59.23 32.046 58.516 32.216 57.666 32.216H52.855ZM59.315 28C58.9297 28 58.5387 27.9603 58.142 27.881C57.7567 27.8017 57.3713 27.6373 56.986 27.388L57.734 26.385C57.8927 26.487 58.0457 26.572 58.193 26.64C58.3403 26.6967 58.5047 26.7363 58.686 26.759C58.8673 26.7817 59.077 26.793 59.315 26.793H62.528V28H59.315ZM62.528 28V26.793C62.596 26.793 62.6527 26.81 62.698 26.844C62.7433 26.8667 62.7773 26.9063 62.8 26.963C62.8227 27.0083 62.8397 27.0707 62.851 27.15C62.8623 27.218 62.868 27.2973 62.868 27.388C62.868 27.4787 62.8623 27.5637 62.851 27.643C62.8397 27.7223 62.8227 27.7903 62.8 27.847C62.7773 27.8923 62.7433 27.932 62.698 27.966C62.6527 27.9887 62.596 28 62.528 28ZM53.076 35.31V33.78H54.402V35.31H53.076ZM55.405 35.31V33.78H56.731V35.31H55.405ZM67.7033 28V26.793H69.7773V28H67.7033ZM66.3943 28V15.811H67.7033V28H66.3943ZM69.7773 28V26.793C69.8453 26.793 69.902 26.81 69.9473 26.844C69.9927 26.8667 70.0267 26.9063 70.0493 26.963C70.072 27.0083 70.089 27.0707 70.1003 27.15C70.1117 27.218 70.1173 27.2973 70.1173 27.388C70.1173 27.4787 70.1117 27.5637 70.1003 27.643C70.089 27.7223 70.072 27.7903 70.0493 27.847C70.0267 27.8923 69.9927 27.932 69.9473 27.966C69.902 27.9887 69.8453 28 69.7773 28ZM72.8683 28V26.793H74.7043V28H72.8683ZM74.7043 28V26.793C74.7723 26.793 74.829 26.81 74.8743 26.844C74.9196 26.8667 74.9536 26.9063 74.9763 26.963C74.999 27.0083 75.016 27.0707 75.0273 27.15C75.0386 27.218 75.0443 27.2973 75.0443 27.388C75.0443 27.4787 75.0386 27.5637 75.0273 27.643C75.016 27.7223 74.999 27.7903 74.9763 27.847C74.9536 27.8923 74.9196 27.932 74.8743 27.966C74.829 27.9887 74.7723 28 74.7043 28ZM69.7063 28C69.6383 28 69.5816 27.9887 69.5363 27.966C69.491 27.932 69.457 27.8923 69.4343 27.847C69.4116 27.7903 69.3946 27.7223 69.3833 27.643C69.372 27.5637 69.3663 27.4787 69.3663 27.388C69.3663 27.2633 69.3776 27.1613 69.4003 27.082C69.4116 26.9913 69.4456 26.9233 69.5023 26.878C69.5476 26.8213 69.6156 26.793 69.7063 26.793V28ZM69.7063 28V26.793H72.1543L71.5423 27.286V19.5H72.8683V28H69.7063ZM70.3863 17.97V16.44H71.7123V17.97H70.3863ZM72.7153 17.97V16.44H74.0413V17.97H72.7153ZM76.6907 28V15.811H78.0167V28H76.6907ZM74.6337 28V26.793H76.6907V28H74.6337ZM74.6337 28C74.5657 28 74.509 27.9887 74.4637 27.966C74.4183 27.932 74.3843 27.8923 74.3617 27.847C74.339 27.7903 74.322 27.7223 74.3107 27.643C74.2993 27.5637 74.2937 27.4787 74.2937 27.388C74.2937 27.2633 74.305 27.1613 74.3277 27.082C74.339 26.9913 74.373 26.9233 74.4297 26.878C74.475 26.8213 74.543 26.793 74.6337 26.793V28ZM80.8776 28V15.811H82.1866V28H80.8776Z" fill="#050505"/>
</svg>
