<svg width="361" height="14" viewBox="0 0 361 14" fill="none" xmlns="http://www.w3.org/2000/svg">
<line y1="6.5" x2="175" y2="6.5" stroke="#D9D9D9"/>
<path d="M183.063 13.431C182.806 13.431 182.531 13.409 182.238 13.365C181.952 13.3283 181.637 13.2733 181.292 13.2L181.424 12.507C181.813 12.5583 182.135 12.595 182.392 12.617C182.656 12.639 182.88 12.65 183.063 12.65C183.672 12.65 184.115 12.5327 184.394 12.298C184.673 12.0707 184.812 11.737 184.812 11.297V5.995L185.252 6.281H183.393C182.968 6.281 182.638 6.33233 182.403 6.435C182.176 6.53767 182.018 6.732 181.93 7.018C181.842 7.29667 181.798 7.70733 181.798 8.25C181.798 8.79267 181.842 9.207 181.93 9.493C182.018 9.77167 182.176 9.96233 182.403 10.065C182.638 10.1677 182.968 10.219 183.393 10.219H184.812V11H183.393C182.755 11 182.256 10.9047 181.897 10.714C181.545 10.516 181.296 10.2153 181.149 9.812C181.01 9.40133 180.94 8.88067 180.94 8.25C180.94 7.61933 181.01 7.10233 181.149 6.699C181.296 6.28833 181.545 5.98767 181.897 5.797C182.256 5.599 182.755 5.5 183.393 5.5H185.67V11.286C185.67 11.7407 185.564 12.1293 185.351 12.452C185.146 12.7747 184.849 13.0167 184.46 13.178C184.071 13.3467 183.606 13.431 183.063 13.431ZM187.627 11V3.113H188.474V11H187.627ZM187.539 2.387C187.422 2.24033 187.33 2.09733 187.264 1.958C187.205 1.81867 187.176 1.672 187.176 1.518C187.176 1.30533 187.227 1.11467 187.33 0.946C187.44 0.777333 187.583 0.645333 187.759 0.549999C187.935 0.454666 188.126 0.406999 188.331 0.406999C188.448 0.406999 188.566 0.425333 188.683 0.461999C188.8 0.491333 188.903 0.535333 188.991 0.594L188.705 1.089C188.646 1.05233 188.588 1.03033 188.529 1.023C188.478 1.00833 188.423 1.001 188.364 1.001C188.195 1.001 188.06 1.04867 187.957 1.144C187.862 1.23933 187.814 1.364 187.814 1.518C187.814 1.61333 187.832 1.705 187.869 1.793C187.913 1.881 187.975 1.97633 188.056 2.079L187.539 2.387ZM186.967 2.387V1.804H189.134V2.387H186.967Z" fill="#898A8F"/>
<line x1="196" y1="6.50001" x2="361" y2="6.49999" stroke="#D9D9D9"/>
</svg>
