<svg width="171" height="110" viewBox="0 0 171 110" fill="none" xmlns="http://www.w3.org/2000/svg">
<rect width="171" height="110" rx="26" fill="#EDF7EE"/>
<rect x="6.25" y="8.25" width="33.1836" height="33.1836" rx="16.5918" stroke="#898A8F" stroke-width="0.5"/>
<path d="M17.1546 28.3966C17.702 28.3288 18.0893 27.8319 18.0215 27.2845L17.3608 21.8373L29.3252 31.1637C29.759 31.5019 30.3905 31.4236 30.7287 30.9899C31.0668 30.5561 30.9886 29.9245 30.5548 29.5864L18.5904 20.2599L24.0359 19.5852C24.5833 19.5174 24.9706 19.0205 24.9028 18.4732C24.835 17.9258 24.3381 17.5385 23.7907 17.6063L15.9374 18.5722C15.39 18.64 15.0027 19.1369 15.0705 19.6842L16.0426 27.5297C16.1165 28.0692 16.6213 28.4627 17.1546 28.3966Z" fill="#323232"/>
<path d="M48.2119 101.312C48.1052 100.715 48.0092 100.144 47.9239 99.6C47.8492 99.056 47.8119 98.5867 47.8119 98.192C47.8119 97.4667 47.9399 96.8373 48.1959 96.304C48.4625 95.7813 48.8412 95.3813 49.3319 95.104C49.8225 94.816 50.4039 94.672 51.0759 94.672C51.2572 94.672 51.5079 94.672 51.8279 94.672C52.1479 94.672 52.5159 94.672 52.9319 94.672C53.3585 94.672 53.8012 94.672 54.2599 94.672C54.7292 94.672 55.1879 94.672 55.6359 94.672L54.6919 95.52V92.064C54.6919 91.3707 54.6119 90.8267 54.4519 90.432C54.3025 90.0373 54.0305 89.7547 53.6359 89.584C53.2519 89.4133 52.7239 89.328 52.0519 89.328C51.6145 89.328 51.1772 89.36 50.7399 89.424C50.3025 89.4773 49.9612 89.5573 49.7159 89.664L50.6279 88.768C50.5639 89.024 50.4999 89.3493 50.4359 89.744C50.3825 90.128 50.3345 90.5387 50.2919 90.976C50.2599 91.4133 50.2439 91.8453 50.2439 92.272C50.2439 92.7093 50.2599 93.1413 50.2919 93.568C50.3345 93.9947 50.3772 94.368 50.4199 94.688C50.4732 95.008 50.5159 95.2267 50.5479 95.344L49.1399 95.744C49.0972 95.6053 49.0439 95.3653 48.9799 95.024C48.9159 94.6827 48.8572 94.2773 48.8039 93.808C48.7612 93.328 48.7399 92.816 48.7399 92.272C48.7399 91.7493 48.7665 91.2427 48.8199 90.752C48.8732 90.2507 48.9319 89.7973 48.9959 89.392C49.0705 88.9867 49.1399 88.6613 49.2039 88.416C49.4492 88.32 49.8279 88.224 50.3399 88.128C50.8625 88.032 51.4385 87.984 52.0679 87.984C52.6439 87.984 53.1559 88.0373 53.6039 88.144C54.0519 88.2507 54.4359 88.4107 54.7559 88.624C55.0865 88.8373 55.3585 89.104 55.5719 89.424C55.7852 89.744 55.9399 90.128 56.0359 90.576C56.1319 91.0133 56.1799 91.5147 56.1799 92.08V96C55.7319 96 55.2465 96 54.7239 96C54.2119 96 53.7105 96 53.2199 96C52.7292 96 52.2919 96 51.9079 96C51.5345 96 51.2572 96 51.0759 96C50.9052 96 50.7185 96.0213 50.5159 96.064C50.3132 96.1173 50.1159 96.2133 49.9239 96.352C49.7425 96.5013 49.5932 96.72 49.4759 97.008C49.3585 97.3067 49.2999 97.7013 49.2999 98.192C49.2999 98.5973 49.3372 99.056 49.4119 99.568C49.4865 100.091 49.5719 100.672 49.6679 101.312H48.2119ZM65.0714 96V94.672H66.7834V96H65.0714ZM61.1354 99.664C60.7514 99.664 60.346 99.632 59.9194 99.568C59.5034 99.5147 59.0447 99.4347 58.5434 99.328L58.7674 98.128C59.3327 98.192 59.802 98.24 60.1754 98.272C60.5487 98.304 60.8687 98.32 61.1354 98.32C61.9887 98.32 62.6074 98.16 62.9914 97.84C63.386 97.52 63.5834 97.056 63.5834 96.448V88.928L64.1914 89.328H61.6794C61.114 89.328 60.6714 89.3973 60.3514 89.536C60.0314 89.664 59.8074 89.9253 59.6794 90.32C59.5514 90.704 59.4874 91.2693 59.4874 92.016C59.4874 92.752 59.5514 93.312 59.6794 93.696C59.8074 94.0693 60.026 94.3253 60.3354 94.464C60.6554 94.6027 61.1034 94.672 61.6794 94.672H63.5834V96H61.6794C60.7514 96 60.0207 95.8613 59.4874 95.584C58.954 95.296 58.57 94.8587 58.3354 94.272C58.1114 93.6747 57.9994 92.9227 57.9994 92.016C57.9994 91.0987 58.1114 90.3413 58.3354 89.744C58.57 89.1467 58.954 88.704 59.4874 88.416C60.0207 88.128 60.7514 87.984 61.6794 87.984H65.0714V96.432C65.0714 97.1147 64.9114 97.696 64.5914 98.176C64.2714 98.6667 63.818 99.0347 63.2314 99.28C62.6447 99.536 61.946 99.664 61.1354 99.664ZM66.7834 96V94.672C66.8474 94.672 66.9007 94.688 66.9434 94.72C66.986 94.752 67.018 94.7947 67.0394 94.848C67.0607 94.9013 67.0767 94.9707 67.0874 95.056C67.098 95.1307 67.1034 95.2213 67.1034 95.328C67.1034 95.424 67.098 95.5147 67.0874 95.6C67.0767 95.6853 67.0607 95.76 67.0394 95.824C67.018 95.8773 66.986 95.92 66.9434 95.952C66.9007 95.984 66.8474 96 66.7834 96ZM70.2213 96V94.672H72.0293V96H70.2213ZM72.0293 96V94.672C72.0933 94.672 72.1466 94.688 72.1893 94.72C72.2319 94.752 72.2639 94.7947 72.2853 94.848C72.3066 94.9013 72.3226 94.9707 72.3333 95.056C72.3439 95.1307 72.3493 95.2213 72.3493 95.328C72.3493 95.424 72.3439 95.5147 72.3333 95.6C72.3226 95.6853 72.3066 95.76 72.2853 95.824C72.2639 95.8773 72.2319 95.92 72.1893 95.952C72.1466 95.984 72.0933 96 72.0293 96ZM66.7812 96C66.7172 96 66.6639 95.984 66.6212 95.952C66.5786 95.92 66.5466 95.8773 66.5252 95.824C66.5039 95.76 66.4879 95.6853 66.4772 95.6C66.4666 95.5147 66.4612 95.424 66.4612 95.328C66.4612 95.1893 66.4719 95.072 66.4932 94.976C66.5039 94.88 66.5359 94.8053 66.5892 94.752C66.6319 94.6987 66.6959 94.672 66.7812 94.672V96ZM66.7812 96V94.672H69.5013L68.7333 95.28V87.984H70.2213V96H66.7812ZM67.4053 99.024V97.472H68.8773V99.024H67.4053ZM69.7893 99.024V97.472H71.2613V99.024H69.7893ZM73.9353 96V84.576H75.4233V96H73.9353ZM72.0312 96V94.672H73.9353V96H72.0312ZM72.0312 96C71.9672 96 71.9139 95.984 71.8712 95.952C71.8286 95.92 71.7966 95.8773 71.7752 95.824C71.7539 95.76 71.7379 95.6853 71.7272 95.6C71.7166 95.5147 71.7112 95.424 71.7112 95.328C71.7112 95.1893 71.7219 95.072 71.7432 94.976C71.7539 94.88 71.7859 94.8053 71.8392 94.752C71.8819 94.6987 71.9459 94.672 72.0312 94.672V96ZM78.129 96V84.576H79.617V96H78.129ZM90.161 96C89.0837 96 88.1823 95.872 87.457 95.616C86.7317 95.3493 86.1823 94.9547 85.809 94.432C85.4463 93.9093 85.265 93.2427 85.265 92.432C85.265 92.176 85.281 91.904 85.313 91.616C85.3557 91.3173 85.3983 91.0293 85.441 90.752C85.4943 90.4747 85.5423 90.2347 85.585 90.032C85.6277 89.8293 85.6597 89.6853 85.681 89.6L87.137 89.872C87.105 90.0427 87.057 90.272 86.993 90.56C86.9397 90.848 86.8863 91.1573 86.833 91.488C86.7797 91.8187 86.753 92.1333 86.753 92.432C86.753 92.8267 86.817 93.168 86.945 93.456C87.073 93.744 87.2703 93.9787 87.537 94.16C87.8143 94.3413 88.1663 94.4747 88.593 94.56C89.0303 94.6347 89.5637 94.672 90.193 94.672H94.769V87.984H96.273V96H90.161ZM88.849 87.984V86.432H90.321V87.984H88.849ZM91.233 87.984V86.432H92.705V87.984H91.233ZM100.461 96V94.672H102.381V96H100.461ZM98.9728 96V84.576H100.461V96H98.9728ZM102.381 96V94.672C102.434 94.672 102.482 94.688 102.525 94.72C102.567 94.752 102.599 94.7947 102.621 94.848C102.642 94.9013 102.658 94.9707 102.669 95.056C102.69 95.1307 102.701 95.2213 102.701 95.328C102.701 95.424 102.69 95.5147 102.669 95.6C102.658 95.6853 102.642 95.76 102.621 95.824C102.599 95.8773 102.567 95.92 102.525 95.952C102.482 95.984 102.434 96 102.381 96ZM105.591 96V94.672H107.303V96H105.591ZM102.375 96C102.311 96 102.258 95.984 102.215 95.952C102.172 95.92 102.14 95.8773 102.119 95.824C102.098 95.76 102.082 95.6853 102.071 95.6C102.06 95.5147 102.055 95.424 102.055 95.328C102.055 95.1893 102.066 95.072 102.087 94.976C102.098 94.88 102.13 94.8053 102.183 94.752C102.226 94.6987 102.29 94.672 102.375 94.672V96ZM102.375 96V94.672H104.855L104.087 95.28V87.984H105.591V96H102.375ZM107.303 96V94.672C107.367 94.672 107.42 94.688 107.463 94.72C107.506 94.752 107.538 94.7947 107.559 94.848C107.58 94.9013 107.596 94.9707 107.607 95.056C107.618 95.1307 107.623 95.2213 107.623 95.328C107.623 95.424 107.618 95.5147 107.607 95.6C107.596 95.6853 107.58 95.76 107.559 95.824C107.538 95.8773 107.506 95.92 107.463 95.952C107.42 95.984 107.367 96 107.303 96ZM104.087 99.024V97.472H105.591V99.024H104.087ZM110.689 96V94.672H112.417V96H110.689ZM107.297 96C107.233 96 107.18 95.984 107.137 95.952C107.094 95.92 107.062 95.8773 107.041 95.824C107.02 95.76 107.004 95.6853 106.993 95.6C106.982 95.5147 106.977 95.424 106.977 95.328C106.977 95.1893 106.988 95.072 107.009 94.976C107.02 94.88 107.052 94.8053 107.105 94.752C107.148 94.6987 107.212 94.672 107.297 94.672V96ZM109.201 96V84.576H110.689V96H109.201ZM107.297 96V94.672H109.201V96H107.297ZM112.417 96V94.672C112.47 94.672 112.518 94.688 112.561 94.72C112.604 94.752 112.636 94.7947 112.657 94.848C112.678 94.9013 112.694 94.9707 112.705 95.056C112.726 95.1307 112.737 95.2213 112.737 95.328C112.737 95.424 112.726 95.5147 112.705 95.6C112.694 95.6853 112.678 95.76 112.657 95.824C112.636 95.8773 112.604 95.92 112.561 95.952C112.518 95.984 112.47 96 112.417 96ZM112.422 96V94.672H123.19L121.846 95.856V92.192C121.846 91.5413 121.755 91.008 121.574 90.592C121.403 90.1653 121.142 89.8507 120.79 89.648C120.438 89.4347 120.001 89.328 119.478 89.328C119.019 89.328 118.587 89.408 118.182 89.568C117.777 89.728 117.403 89.9413 117.062 90.208C116.721 90.464 116.401 90.7467 116.102 91.056C115.803 91.3653 115.531 91.6747 115.286 91.984C115.051 92.2933 114.838 92.5707 114.646 92.816L114.198 91.568C114.561 91.1093 114.918 90.672 115.27 90.256C115.622 89.8293 116.001 89.4453 116.406 89.104C116.822 88.7627 117.281 88.4907 117.782 88.288C118.294 88.0853 118.881 87.984 119.542 87.984C120.289 87.984 120.907 88.112 121.398 88.368C121.889 88.624 122.273 88.96 122.55 89.376C122.838 89.792 123.041 90.2507 123.158 90.752C123.275 91.2427 123.334 91.7227 123.334 92.192V96H112.422ZM113.494 94.672V84.576H114.982V94.672H113.494ZM112.422 96C112.358 96 112.305 95.984 112.262 95.952C112.219 95.92 112.187 95.8773 112.166 95.824C112.145 95.76 112.129 95.6853 112.118 95.6C112.107 95.5147 112.102 95.424 112.102 95.328C112.102 95.1893 112.113 95.072 112.134 94.976C112.145 94.88 112.177 94.8053 112.23 94.752C112.273 94.6987 112.337 94.672 112.422 94.672V96Z" fill="black"/>
</svg>
