<svg width="45" height="44" viewBox="0 0 45 44" fill="none" xmlns="http://www.w3.org/2000/svg">
<rect x="0.5" width="44" height="44" rx="6" fill="#E4F3E5"/>
<path d="M33.1641 14.8112C32.9822 14.6706 32.7703 14.5739 32.5449 14.5289C32.3194 14.4838 32.0866 14.4916 31.8647 14.5516L31.5384 14.6397C29.7759 15.115 26.4947 16 22.5 16C18.5053 16 15.2241 15.115 13.4616 14.6397L13.1353 14.5516C12.9133 14.4925 12.6807 14.4853 12.4554 14.5304C12.2302 14.5755 12.0183 14.6718 11.8361 14.8117C11.654 14.9517 11.5064 15.1316 11.4048 15.3376C11.3031 15.5437 11.2502 15.7703 11.25 16V28C11.25 28.3978 11.408 28.7794 11.6893 29.0607C11.9706 29.342 12.3522 29.5 12.75 29.5C12.8823 29.4999 13.014 29.4826 13.1419 29.4484L13.44 29.3678C15.1997 28.8897 18.4847 28 22.5 28C26.5153 28 29.8003 28.8897 31.5647 29.3678L31.8628 29.4484C32.0849 29.5078 32.3178 29.5153 32.5432 29.4703C32.7687 29.4254 32.9809 29.3292 33.1633 29.1892C33.3457 29.0492 33.4935 28.8691 33.5952 28.6629C33.6969 28.4568 33.7499 28.2299 33.75 28V16C33.7506 15.7701 33.6981 15.5431 33.5964 15.3369C33.4948 15.1307 33.3468 14.9508 33.1641 14.8112ZM13.0706 16.0872C14.9006 16.5812 18.3066 17.5 22.5 17.5C26.6934 17.5 30.0994 16.5812 31.9294 16.0872L32.25 16V27.1337L26.8059 21.6897C26.6666 21.5504 26.5013 21.4398 26.3193 21.3644C26.1372 21.289 25.9422 21.2502 25.7452 21.2502C25.5481 21.2502 25.3531 21.289 25.1711 21.3644C24.989 21.4398 24.8237 21.5504 24.6844 21.6897L22.8094 23.5647L18.6844 19.4397C18.4031 19.1586 18.0217 19.0007 17.6241 19.0007C17.2264 19.0007 16.845 19.1586 16.5638 19.4397L12.75 23.2534V16L13.0706 16.0872ZM30.5475 27.5509C29.0357 27.1724 27.5014 26.8906 25.9537 26.7072L23.8716 24.625L25.7466 22.75L30.5475 27.5509ZM13.0434 27.9194L12.75 28V25.375L17.625 20.5L23.6484 26.5234C23.2734 26.5084 22.8906 26.5006 22.5 26.5C18.2812 26.5 14.745 27.4591 13.0434 27.9194ZM28.5 20.125C28.5 19.9025 28.566 19.685 28.6896 19.5C28.8132 19.315 28.9889 19.1708 29.1945 19.0856C29.4 19.0005 29.6262 18.9782 29.8445 19.0216C30.0627 19.065 30.2632 19.1722 30.4205 19.3295C30.5778 19.4868 30.685 19.6873 30.7284 19.9055C30.7718 20.1237 30.7495 20.3499 30.6644 20.5555C30.5792 20.7611 30.435 20.9368 30.25 21.0604C30.065 21.184 29.8475 21.25 29.625 21.25C29.3266 21.25 29.0405 21.1315 28.8295 20.9205C28.6185 20.7095 28.5 20.4234 28.5 20.125Z" fill="#4CAF50"/>
</svg>
