<svg width="393" height="359" viewBox="0 0 393 359" fill="none" xmlns="http://www.w3.org/2000/svg">
<path d="M0 25C0 11.193 11.19 0 25 0H368C381.81 0 393 11.193 393 25C393 12.297 382.25 2 369 2H24C10.75 2 0 12.297 0 25Z" fill="#6A6A6A"/>
<path d="M46.0801 75.9999C44.6901 75.9999 43.59 75.7919 42.79 75.3759C41.99 74.9439 41.4198 74.2879 41.0698 73.4079C40.7298 72.5119 40.5601 71.3839 40.5601 70.0239C40.5601 68.6479 40.7298 67.5119 41.0698 66.6159C41.4198 65.7199 41.99 65.0559 42.79 64.6239C43.59 64.1919 44.6901 63.9759 46.0801 63.9759H51.1699V74.8959H48.9399V65.1999L49.8501 65.9919H46.0801C45.2301 65.9919 44.5698 66.0959 44.0898 66.3039C43.6098 66.4959 43.2701 66.8879 43.0801 67.4799C42.8901 68.0559 42.79 68.9039 42.79 70.0239C42.79 71.1279 42.8901 71.9679 43.0801 72.5439C43.2701 73.1039 43.5998 73.4879 44.0698 73.6959C44.5498 73.9039 45.2201 74.0079 46.0801 74.0079H53.7402V75.9999H46.0801ZM53.7402 75.9999V74.0079C53.8302 74.0079 53.91 74.0319 53.98 74.0799C54.04 74.1279 54.0901 74.1919 54.1201 74.2719C54.1501 74.3519 54.1799 74.4559 54.1899 74.5839C54.2099 74.6959 54.2202 74.8319 54.2202 74.9919C54.2202 75.1359 54.2099 75.2719 54.1899 75.3999C54.1799 75.5279 54.1501 75.6399 54.1201 75.7359C54.0901 75.8159 54.04 75.8799 53.98 75.9279C53.91 75.9759 53.8302 75.9999 53.7402 75.9999ZM43.3901 61.8159V59.4879H45.6001V61.8159H43.3901ZM46.9702 61.8159V59.4879H49.1802V61.8159H46.9702ZM53.73 75.9999V74.0079H57.48C58.36 74.0079 59.2 73.8559 60 73.5519C60.81 73.2479 61.57 72.8479 62.25 72.3519C62.94 71.8559 63.5298 71.3039 64.0298 70.6959C64.5398 70.0879 64.94 69.4719 65.23 68.8479C65.52 68.2239 65.6602 67.6319 65.6602 67.0719V65.6078L66.8101 67.4079C65.9001 66.9279 65.0001 66.5759 64.1001 66.3519C63.2201 66.1119 62.3698 65.9919 61.5298 65.9919C60.7198 65.9919 59.8602 66.1119 58.9702 66.3519C58.0902 66.5759 57.1998 66.9279 56.2998 67.4079L57.4502 65.6078V67.0719C57.4502 67.6319 57.6001 68.2239 57.8901 68.8479C58.1701 69.4719 58.5701 70.0879 59.0601 70.6959C59.5601 71.3039 60.1498 71.8559 60.8398 72.3519C61.5298 72.8479 62.2698 73.2479 63.0698 73.5519C63.8898 73.8559 64.7299 74.0079 65.6099 74.0079H69.21V75.9999H65.8999C64.6499 75.9999 63.4899 75.7999 62.3999 75.3999C61.3099 74.9999 60.3302 74.4719 59.4502 73.8159C58.5702 73.1439 57.8099 72.4159 57.1699 71.6319C56.5399 70.8319 56.06 70.0399 55.73 69.2559C55.39 68.4559 55.2202 67.7279 55.2202 67.0719V65.6559C55.9102 65.2879 56.6101 64.9839 57.3301 64.7439C58.0501 64.4879 58.7702 64.2959 59.4902 64.1679C60.2102 64.0399 60.8898 63.9759 61.5298 63.9759C62.2098 63.9759 62.8901 64.0399 63.6001 64.1679C64.3001 64.2959 65.01 64.4879 65.73 64.7439C66.47 64.9839 67.1801 65.2879 67.8701 65.6559V67.0719C67.8701 67.7279 67.7001 68.4559 67.3701 69.2559C67.0301 70.0399 66.5399 70.8319 65.8999 71.6319C65.2799 72.4159 64.5299 73.1439 63.6499 73.8159C62.7699 74.4719 61.7799 74.9999 60.6899 75.3999C59.6099 75.7999 58.4399 75.9999 57.1899 75.9999H53.73ZM53.73 75.9999C53.64 75.9999 53.5602 75.9759 53.4902 75.9279C53.4302 75.8799 53.3801 75.8159 53.3501 75.7359C53.3201 75.6399 53.2898 75.5279 53.2798 75.3999C53.2598 75.2719 53.25 75.1359 53.25 74.9919C53.25 74.7839 53.2698 74.6079 53.2998 74.4639C53.3198 74.3199 53.3702 74.2079 53.4502 74.1279C53.5102 74.0479 53.61 74.0079 53.73 74.0079V75.9999ZM69.21 75.9999V74.0079C69.31 74.0079 69.3902 74.0319 69.4502 74.0799C69.5202 74.1279 69.5701 74.1919 69.6001 74.2719C69.6301 74.3519 69.6499 74.4559 69.6699 74.5839C69.6899 74.6959 69.6899 74.8319 69.6899 74.9919C69.6899 75.1359 69.6899 75.2719 69.6699 75.3999C69.6499 75.5279 69.6301 75.6399 69.6001 75.7359C69.5701 75.8159 69.5202 75.8799 69.4502 75.9279C69.3902 75.9759 69.31 75.9999 69.21 75.9999ZM82.2402 75.9999C81.6602 75.9999 81.0898 75.8959 80.5298 75.6879C79.9898 75.4639 79.4702 75.1199 78.9702 74.6559L80.3901 73.1679C80.7401 73.4559 81.0601 73.6719 81.3501 73.8159C81.6401 73.9439 81.9302 74.0079 82.2402 74.0079H86.5801L85.6001 74.9679V69.3519C85.6001 69.0639 85.56 68.6639 85.5 68.1519C85.45 67.6239 85.3698 67.0319 85.2598 66.3759C85.1598 65.7039 85.0399 65.0239 84.8999 64.3359L87.0801 63.9759C87.2001 64.5519 87.3099 65.1839 87.4199 65.8719C87.5299 66.5599 87.63 67.2159 87.71 67.8399C87.79 68.4639 87.8301 68.9679 87.8301 69.3519V75.9999H82.2402ZM69.2002 75.9999V74.0079H72.71L72.1602 74.5599V66.3999H74.3901V75.9999H69.2002ZM74.3901 75.9999V74.0079H76.8799C77.4299 74.0079 77.8399 73.9279 78.1099 73.7679C78.3799 73.6079 78.5702 73.2879 78.6802 72.8079C78.8002 72.3279 78.8501 71.6239 78.8501 70.6959V65.1999H81.1099V70.6959C81.1099 71.9919 80.9599 73.0319 80.6499 73.8159C80.3599 74.5999 79.9201 75.1598 79.3101 75.4958C78.7001 75.8318 77.8899 75.9999 76.8799 75.9999H74.3901ZM69.2002 75.9999C69.1102 75.9999 69.03 75.9759 68.96 75.9279C68.9 75.8799 68.8498 75.8159 68.8198 75.7359C68.7898 75.6399 68.76 75.5279 68.75 75.3999C68.73 75.2719 68.7202 75.1359 68.7202 74.9919C68.7202 74.7839 68.74 74.6079 68.77 74.4639C68.79 74.3199 68.8399 74.2079 68.9199 74.1279C68.9799 74.0479 69.0802 74.0079 69.2002 74.0079V75.9999ZM78.9702 58.5039V56.3679H80.9902V58.5039H78.9702ZM77.0801 61.8159V59.4879H79.2798V61.8159H77.0801ZM80.6499 61.8159V59.4879H82.8599V61.8159H80.6499ZM103.47 75.9999V74.0079H106.03V75.9999H103.47ZM90.5498 75.9999V74.0079H102.41L101.23 75.2079V58.8639H103.47V75.9999H90.5498ZM94.25 74.0079V62.2479H96.48V74.0079H94.25ZM106.03 75.9999V74.0079C106.13 74.0079 106.21 74.0319 106.27 74.0799C106.34 74.1279 106.39 74.1919 106.42 74.2719C106.45 74.3519 106.47 74.4559 106.49 74.5839C106.51 74.6959 106.51 74.8319 106.51 74.9919C106.51 75.1359 106.51 75.2719 106.49 75.3999C106.47 75.5279 106.45 75.6399 106.42 75.7359C106.39 75.8159 106.34 75.8799 106.27 75.9279C106.21 75.9759 106.13 75.9999 106.03 75.9999ZM94.1802 60.5439C93.9102 60.2079 93.6998 59.8879 93.5498 59.5839C93.4098 59.2639 93.3398 58.9279 93.3398 58.5759C93.3398 58.0959 93.4602 57.6639 93.7002 57.2799C93.9502 56.8959 94.2802 56.5919 94.6802 56.3679C95.1002 56.1439 95.54 56.0319 96 56.0319C96.27 56.0319 96.5498 56.0719 96.8198 56.1519C97.0898 56.2319 97.33 56.3359 97.54 56.4639L96.8701 57.6399C96.7401 57.5599 96.61 57.5118 96.48 57.4958C96.35 57.4638 96.2301 57.4479 96.1001 57.4479C95.7101 57.4479 95.42 57.5519 95.21 57.7599C95 57.9679 94.8999 58.2399 94.8999 58.5759C94.8999 58.7839 94.94 58.9839 95.02 59.1759C95.1 59.3519 95.2299 59.5519 95.3999 59.7759L94.1802 60.5439ZM92.8599 60.5919V59.1999H97.8701V60.5919H92.8599ZM108.88 75.9999V58.8639H111.11V75.9999H108.88ZM106.02 75.9999V74.0079H108.88V75.9999H106.02ZM106.02 75.9999C105.93 75.9999 105.85 75.9759 105.78 75.9279C105.72 75.8799 105.67 75.8159 105.64 75.7359C105.61 75.6399 105.58 75.5279 105.57 75.3999C105.55 75.2719 105.54 75.1359 105.54 74.9919C105.54 74.7839 105.56 74.6079 105.59 74.4639C105.61 74.3199 105.66 74.2079 105.74 74.1279C105.8 74.0479 105.9 74.0079 106.02 74.0079V75.9999ZM141.06 75.9999V74.0079H143.63V75.9999H141.06ZM126.8 75.9999C125.19 75.9999 123.84 75.8079 122.75 75.4239C121.66 75.0239 120.84 74.4319 120.28 73.6479C119.73 72.8639 119.46 71.8639 119.46 70.6479C119.46 70.2639 119.48 69.8559 119.53 69.4239C119.6 68.9759 119.66 68.5439 119.72 68.1279C119.8 67.7119 119.88 67.3519 119.94 67.0479C120 66.7439 120.05 66.5279 120.08 66.3999L122.27 66.8079C122.22 67.0639 122.15 67.4079 122.05 67.8399C121.97 68.2719 121.89 68.7359 121.81 69.2319C121.73 69.7279 121.69 70.1999 121.69 70.6479C121.69 71.2399 121.79 71.7519 121.98 72.1839C122.17 72.6159 122.47 72.9679 122.87 73.2399C123.28 73.5119 123.81 73.7119 124.45 73.8399C125.11 73.9519 125.91 74.0079 126.85 74.0079H139.98L138.8 75.0159V65.1999L139.74 65.9919H135.95C135.08 65.9919 134.41 66.0959 133.93 66.3039C133.47 66.5119 133.14 66.9039 132.95 67.4799C132.77 68.0559 132.68 68.8959 132.68 69.9999C132.68 71.1039 132.77 71.9439 132.95 72.5199C133.14 73.0959 133.47 73.4879 133.93 73.6959C134.41 73.9039 135.08 74.0079 135.95 74.0079V75.5679C134.57 75.5679 133.48 75.3919 132.66 75.0399C131.86 74.6879 131.28 74.1039 130.93 73.2879C130.6 72.4719 130.43 71.3759 130.43 69.9999C130.43 68.6399 130.6 67.5199 130.93 66.6399C131.28 65.7439 131.86 65.0799 132.66 64.6479C133.48 64.1999 134.57 63.9759 135.95 63.9759H141.06V75.9999H126.8ZM143.63 75.9999V74.0079C143.72 74.0079 143.8 74.0319 143.87 74.0799C143.93 74.1279 143.98 74.1919 144.01 74.2719C144.04 74.3519 144.07 74.4559 144.08 74.5839C144.1 74.6959 144.11 74.8319 144.11 74.9919C144.11 75.1359 144.1 75.2719 144.08 75.3999C144.07 75.5279 144.04 75.6399 144.01 75.7359C143.98 75.8159 143.93 75.8799 143.87 75.9279C143.8 75.9759 143.72 75.9999 143.63 75.9999ZM135.18 61.8159V59.4879H137.44V61.8159H135.18ZM148.78 75.9999V74.0079H151.49V75.9999H148.78ZM151.49 75.9999V74.0079C151.59 74.0079 151.67 74.0319 151.73 74.0799C151.79 74.1279 151.84 74.1919 151.87 74.2719C151.91 74.3519 151.93 74.4559 151.95 74.5839C151.96 74.6959 151.97 74.8319 151.97 74.9919C151.97 75.1359 151.96 75.2719 151.95 75.3999C151.93 75.5279 151.91 75.6399 151.87 75.7359C151.84 75.8159 151.79 75.8799 151.73 75.9279C151.67 75.9759 151.59 75.9999 151.49 75.9999ZM143.62 75.9999C143.52 75.9999 143.44 75.9759 143.38 75.9279C143.31 75.8799 143.27 75.8159 143.23 75.7359C143.2 75.6399 143.18 75.5279 143.16 75.3999C143.15 75.2719 143.14 75.1359 143.14 74.9919C143.14 74.7839 143.15 74.6079 143.19 74.4639C143.2 74.3199 143.25 74.2079 143.33 74.1279C143.39 74.0479 143.49 74.0079 143.62 74.0079V75.9999ZM143.62 75.9999V74.0079H147.7L146.55 74.9199V63.9759H148.78V75.9999H143.62ZM144.55 80.5359V78.2079H146.76V80.5359H144.55ZM148.13 80.5359V78.2079H150.34V80.5359H148.13ZM151.49 75.9999V74.0079H167.64L165.63 75.7839V70.2879C165.63 69.3119 165.49 68.5119 165.22 67.8879C164.96 67.2479 164.57 66.7759 164.04 66.4719C163.52 66.1519 162.86 65.9919 162.08 65.9919C161.39 65.9919 160.74 66.1119 160.13 66.3519C159.52 66.5919 158.96 66.9119 158.45 67.3119C157.94 67.6959 157.46 68.1199 157.01 68.5839C156.56 69.0479 156.16 69.5119 155.79 69.9759C155.44 70.4399 155.12 70.8559 154.83 71.2239L154.16 69.3519C154.7 68.6639 155.24 68.0079 155.76 67.3839C156.29 66.7439 156.86 66.1679 157.47 65.6559C158.09 65.1439 158.78 64.7359 159.53 64.4319C160.3 64.1279 161.18 63.9759 162.17 63.9759C163.29 63.9759 164.22 64.1679 164.96 64.5519C165.69 64.9359 166.27 65.4399 166.68 66.0639C167.12 66.6879 167.42 67.3759 167.6 68.1279C167.77 68.8639 167.86 69.5839 167.86 70.2879V75.9999H151.49ZM153.1 74.0079V58.8639H155.33V74.0079H153.1ZM151.49 75.9999C151.4 75.9999 151.32 75.9759 151.25 75.9279C151.19 75.8799 151.14 75.8159 151.11 75.7359C151.08 75.6399 151.05 75.5279 151.04 75.3999C151.02 75.2719 151.01 75.1359 151.01 74.9919C151.01 74.7839 151.03 74.6079 151.06 74.4639C151.08 74.3199 151.12 74.2079 151.2 74.1279C151.27 74.0479 151.36 74.0079 151.49 74.0079V75.9999ZM194.11 75.9999V74.0079H196.7V75.9999H194.11ZM182.3 82.3839C181.1 82.3839 180 82.1599 179.01 81.7119C178.04 81.2639 177.26 80.6399 176.68 79.8399C176.11 79.0559 175.82 78.1519 175.82 77.1279C175.82 76.7919 175.85 76.3359 175.92 75.7599C175.98 75.1839 176.05 74.5519 176.13 73.8639C176.23 73.1759 176.33 72.4799 176.44 71.7759C176.56 71.0559 176.66 70.3999 176.76 69.8079L178.96 70.1199C178.8 71.2079 178.65 72.2079 178.51 73.1199C178.36 74.0159 178.25 74.7999 178.17 75.4719C178.11 76.1279 178.08 76.6319 178.08 76.9839C178.08 77.7039 178.25 78.3119 178.6 78.8079C178.96 79.3199 179.44 79.7119 180.07 79.9839C180.71 80.2559 181.45 80.3919 182.3 80.3919H187.89C188.74 80.3919 189.46 80.2639 190.05 80.0079C190.64 79.7519 191.09 79.3839 191.4 78.9039C191.72 78.4399 191.88 77.8879 191.88 77.2479V65.1999L192.81 65.9919H189.02C188.16 65.9919 187.48 66.0959 187 66.3039C186.52 66.5119 186.2 66.9039 186.02 67.4799C185.84 68.0559 185.76 68.8959 185.76 69.9999C185.76 71.1039 185.84 71.9439 186.02 72.5199C186.2 73.0959 186.52 73.4879 187 73.6959C187.48 73.9039 188.16 74.0079 189.02 74.0079H191.88V75.9999H189.02C187.63 75.9999 186.53 75.7919 185.73 75.3759C184.93 74.9439 184.36 74.2879 184 73.4079C183.67 72.5119 183.5 71.3759 183.5 69.9999C183.5 68.6399 183.67 67.5199 184 66.6399C184.36 65.7439 184.93 65.0799 185.73 64.6479C186.53 64.1999 187.63 63.9759 189.02 63.9759H194.11V77.2479C194.11 78.3519 193.82 79.2879 193.24 80.0559C192.68 80.8239 191.93 81.3999 190.99 81.7839C190.04 82.1839 189.01 82.3839 187.89 82.3839H182.3ZM196.7 75.9999V74.0079C196.78 74.0079 196.85 74.0319 196.92 74.0799C196.98 74.1279 197.03 74.1919 197.06 74.2719C197.09 74.3519 197.12 74.4559 197.13 74.5839C197.16 74.6959 197.18 74.8319 197.18 74.9919C197.18 75.1359 197.16 75.2719 197.13 75.3999C197.12 75.5279 197.09 75.6399 197.06 75.7359C197.03 75.8159 196.98 75.8799 196.92 75.9279C196.85 75.9759 196.78 75.9999 196.7 75.9999ZM186.48 61.8159V59.4879H188.68V61.8159H186.48ZM190.05 61.8159V59.4879H192.26V61.8159H190.05ZM201.86 75.9999V74.0079H204.58V75.9999H201.86ZM204.58 75.9999V74.0079C204.67 74.0079 204.75 74.0319 204.82 74.0799C204.88 74.1279 204.93 74.1919 204.96 74.2719C204.99 74.3519 205.02 74.4559 205.03 74.5839C205.05 74.6959 205.06 74.8319 205.06 74.9919C205.06 75.1359 205.05 75.2719 205.03 75.3999C205.02 75.5279 204.99 75.6399 204.96 75.7359C204.93 75.8159 204.88 75.8799 204.82 75.9279C204.75 75.9759 204.67 75.9999 204.58 75.9999ZM196.7 75.9999C196.61 75.9999 196.53 75.9759 196.46 75.9279C196.4 75.8799 196.35 75.8159 196.32 75.7359C196.29 75.6399 196.26 75.5279 196.25 75.3999C196.23 75.2719 196.22 75.1359 196.22 74.9919C196.22 74.7839 196.24 74.6079 196.27 74.4639C196.29 74.3199 196.34 74.2079 196.42 74.1279C196.48 74.0479 196.58 74.0079 196.7 74.0079V75.9999ZM196.7 75.9999V74.0079H200.78L199.63 74.9199V63.9759H201.86V75.9999H196.7ZM197.64 80.5359V78.2079H199.85V80.5359H197.64ZM201.22 80.5359V78.2079H203.42V80.5359H201.22ZM209.4 75.9999V74.0079H211.97V75.9999H209.4ZM204.58 75.9999C204.48 75.9999 204.4 75.9759 204.34 75.9279C204.27 75.8799 204.23 75.8159 204.19 75.7359C204.16 75.6399 204.14 75.5279 204.12 75.3999C204.11 75.2719 204.1 75.1359 204.1 74.9919C204.1 74.7839 204.11 74.6079 204.15 74.4639C204.16 74.3199 204.21 74.2079 204.29 74.1279C204.35 74.0479 204.45 74.0079 204.58 74.0079V75.9999ZM204.58 75.9999V74.0079H208.3L207.15 74.9199V63.9759H209.4V75.9999H204.58ZM211.97 75.9999V74.0079C212.07 74.0079 212.15 74.0319 212.21 74.0799C212.27 74.1279 212.32 74.1919 212.35 74.2719C212.39 74.3519 212.41 74.4559 212.43 74.5839C212.44 74.6959 212.45 74.8319 212.45 74.9919C212.45 75.1359 212.44 75.2719 212.43 75.3999C212.41 75.5279 212.39 75.6399 212.35 75.7359C212.32 75.8159 212.27 75.8799 212.21 75.9279C212.15 75.9759 212.07 75.9999 211.97 75.9999ZM207.15 80.5359V78.2079H209.4V80.5359H207.15ZM227.7 75.9999V74.0079H230.3V75.9999H227.7ZM211.96 75.9999V74.0079H228.11L226.1 75.7839V70.2879C226.1 69.3119 225.96 68.5119 225.69 67.8879C225.43 67.2479 225.04 66.7759 224.51 66.4719C223.98 66.1519 223.33 65.9919 222.54 65.9919C221.86 65.9919 221.21 66.1119 220.6 66.3519C219.99 66.5919 219.43 66.9119 218.92 67.3119C218.41 67.6959 217.93 68.1199 217.48 68.5839C217.03 69.0479 216.62 69.5119 216.26 69.9759C215.9 70.4399 215.58 70.8559 215.3 71.2239L214.62 69.3519C215.17 68.6639 215.7 68.0079 216.23 67.3839C216.76 66.7439 217.33 66.1679 217.94 65.6559C218.56 65.1439 219.25 64.7359 220 64.4319C220.77 64.1279 221.65 63.9759 222.64 63.9759C223.76 63.9759 224.69 64.1679 225.42 64.5519C226.16 64.9359 226.74 65.4399 227.15 66.0639C227.58 66.6879 227.89 67.3759 228.06 68.1279C228.24 68.8639 228.33 69.5839 228.33 70.2879V75.9999H211.96ZM213.57 74.0079V58.8639H215.8V74.0079H213.57ZM211.96 75.9999C211.86 75.9999 211.78 75.9759 211.72 75.9279C211.66 75.8799 211.61 75.8159 211.58 75.7359C211.54 75.6399 211.52 75.5279 211.5 75.3999C211.49 75.2719 211.48 75.1359 211.48 74.9919C211.48 74.7839 211.5 74.6079 211.53 74.4639C211.54 74.3199 211.59 74.2079 211.67 74.1279C211.74 74.0479 211.83 74.0079 211.96 74.0079V75.9999ZM230.3 75.9999V74.0079C230.39 74.0079 230.47 74.0319 230.54 74.0799C230.6 74.1279 230.65 74.1919 230.68 74.2719C230.71 74.3519 230.74 74.4559 230.75 74.5839C230.77 74.6959 230.78 74.8319 230.78 74.9919C230.78 75.1359 230.77 75.2719 230.75 75.3999C230.74 75.5279 230.71 75.6399 230.68 75.7359C230.65 75.8159 230.6 75.8799 230.54 75.9279C230.47 75.9759 230.39 75.9999 230.3 75.9999ZM230.29 75.9999V74.0079H234.37L233.22 74.9199V63.9759H235.45V75.9999H230.29ZM230.29 75.9999C230.19 75.9999 230.11 75.9759 230.05 75.9279C229.99 75.8799 229.94 75.8159 229.91 75.7359C229.87 75.6399 229.85 75.5279 229.83 75.3999C229.82 75.2719 229.81 75.1359 229.81 74.9919C229.81 74.7839 229.83 74.6079 229.86 74.4639C229.87 74.3199 229.92 74.2079 230 74.1279C230.07 74.0479 230.16 74.0079 230.29 74.0079V75.9999ZM231.44 61.8159V59.4879H233.65V61.8159H231.44ZM235.02 61.8159V59.4879H237.23V61.8159H235.02ZM250.35 81.9519C249.39 81.9519 248.49 81.8159 247.66 81.5439C246.84 81.2719 246.12 80.8879 245.5 80.3919C244.89 79.9119 244.41 79.3359 244.06 78.6639C243.72 77.9919 243.55 77.2639 243.55 76.4799C243.55 76.1599 243.58 75.7439 243.63 75.2319C243.69 74.7039 243.76 74.1199 243.84 73.4799C243.94 72.8239 244.04 72.1519 244.15 71.4639L246.36 71.7519C246.19 72.8079 246.04 73.7679 245.93 74.6319C245.83 75.4799 245.79 76.0799 245.79 76.4319C245.79 77.1199 245.98 77.7279 246.36 78.2559C246.75 78.7839 247.28 79.1999 247.97 79.5039C248.66 79.8079 249.45 79.9599 250.35 79.9599H257.14C258.31 79.9599 259.19 79.6399 259.78 78.9999C260.39 78.3759 260.69 77.4559 260.69 76.2399V75.3999H262.92V76.2399C262.92 77.3599 262.69 78.3439 262.23 79.1919C261.78 80.0559 261.12 80.7279 260.26 81.2079C259.41 81.7039 258.37 81.9519 257.14 81.9519H250.35ZM259.39 75.9999C258.8 75.9999 258.21 75.9359 257.62 75.8079C257.03 75.6799 256.45 75.4319 255.89 75.0639L257.16 73.4079C257.39 73.5519 257.6 73.6719 257.81 73.7679C258.02 73.8639 258.25 73.9279 258.51 73.9599C258.76 73.9919 259.06 74.0079 259.39 74.0079H264.15V75.9999H259.39ZM264.15 75.9999V74.0079C264.24 74.0079 264.31 74.0319 264.36 74.0799C264.43 74.1279 264.47 74.1919 264.51 74.2719C264.55 74.3519 264.59 74.4559 264.6 74.5839C264.62 74.6959 264.63 74.8319 264.63 74.9919C264.63 75.1359 264.62 75.2719 264.6 75.3999C264.59 75.5279 264.55 75.6399 264.51 75.7359C264.47 75.8159 264.43 75.8799 264.36 75.9279C264.31 75.9759 264.24 75.9999 264.15 75.9999ZM250.35 86.4879V84.1599H252.55V86.4879H250.35ZM253.92 86.4879V84.1599H256.13V86.4879H253.92ZM259.21 75.9999V74.0079H271.07L269.91 75.0159V65.1999L270.85 65.9919H267.06C266.19 65.9919 265.52 66.0959 265.04 66.3039C264.56 66.5119 264.23 66.9039 264.03 67.4799C263.86 68.0559 263.77 68.8959 263.77 69.9999C263.77 71.1039 263.86 71.9439 264.03 72.5199C264.23 73.0959 264.56 73.4879 265.04 73.6959C265.52 73.9039 266.19 74.0079 267.06 74.0079V75.5679C265.67 75.5679 264.57 75.3919 263.77 75.0399C262.97 74.6879 262.39 74.1039 262.04 73.2879C261.71 72.4719 261.54 71.3759 261.54 69.9999C261.54 68.6399 261.71 67.5199 262.04 66.6399C262.39 65.7439 262.97 65.0799 263.77 64.6479C264.57 64.1999 265.67 63.9759 267.06 63.9759H272.15V75.9999H259.21ZM259.21 75.9999C259.11 75.9999 259.03 75.9759 258.97 75.9279C258.91 75.8799 258.86 75.8159 258.83 75.7359C258.79 75.6399 258.77 75.5279 258.75 75.3999C258.74 75.2719 258.73 75.1359 258.73 74.9919C258.73 74.7839 258.75 74.6079 258.78 74.4639C258.79 74.3199 258.84 74.2079 258.92 74.1279C258.99 74.0479 259.08 74.0079 259.21 74.0079V75.9999ZM266.29 61.8159V59.4879H268.55V61.8159H266.29ZM296.65 75.9999V74.0079H299.22V75.9999H296.65ZM287.48 75.9999C285.87 75.9999 284.52 75.8079 283.43 75.4239C282.34 75.0239 281.52 74.4319 280.96 73.6479C280.41 72.8639 280.14 71.8639 280.14 70.6479C280.14 70.2639 280.16 69.8559 280.21 69.4239C280.28 68.9759 280.34 68.5439 280.4 68.1279C280.48 67.7119 280.56 67.3519 280.62 67.0479C280.68 66.7439 280.73 66.5279 280.76 66.3999L282.95 66.8079C282.9 67.0639 282.83 67.4079 282.73 67.8399C282.65 68.2719 282.57 68.7359 282.49 69.2319C282.41 69.7279 282.37 70.1999 282.37 70.6479C282.37 71.2399 282.47 71.7519 282.66 72.1839C282.85 72.6159 283.15 72.9679 283.55 73.2399C283.96 73.5119 284.49 73.7119 285.13 73.8399C285.79 73.9519 286.59 74.0079 287.53 74.0079H295.55L294.4 74.9199V58.8639H296.65V75.9999H287.48ZM299.22 75.9999V74.0079C299.32 74.0079 299.4 74.0319 299.46 74.0799C299.52 74.1279 299.57 74.1919 299.6 74.2719C299.64 74.3519 299.66 74.4559 299.68 74.5839C299.69 74.6959 299.7 74.8319 299.7 74.9919C299.7 75.1359 299.69 75.2719 299.68 75.3999C299.66 75.5279 299.64 75.6399 299.6 75.7359C299.57 75.8159 299.52 75.8799 299.46 75.9279C299.4 75.9759 299.32 75.9999 299.22 75.9999ZM287.2 67.4799C286.92 67.1439 286.72 66.8239 286.57 66.5199C286.43 66.1999 286.36 65.8639 286.36 65.5119C286.36 65.0319 286.48 64.5999 286.72 64.2159C286.97 63.8319 287.3 63.5279 287.7 63.3039C288.12 63.0799 288.56 62.9679 289.02 62.9679C289.29 62.9679 289.56 63.0079 289.84 63.0879C290.11 63.1679 290.35 63.2719 290.56 63.3999L289.88 64.5759C289.76 64.4959 289.63 64.4479 289.5 64.4319C289.37 64.3999 289.24 64.3839 289.12 64.3839C288.73 64.3839 288.44 64.4879 288.23 64.6959C288.02 64.9039 287.92 65.1759 287.92 65.5119C287.92 65.7199 287.96 65.9199 288.04 66.1119C288.12 66.2879 288.24 66.4879 288.42 66.7119L287.2 67.4799ZM285.88 67.5279V66.1359H290.89V67.5279H285.88ZM299.22 75.9999V74.0079H302.94L301.79 74.9199V63.9759H304.04V75.9999H299.22ZM299.22 75.9999C299.12 75.9999 299.04 75.9759 298.98 75.9279C298.91 75.8799 298.87 75.8159 298.83 75.7359C298.8 75.6399 298.78 75.5279 298.76 75.3999C298.75 75.2719 298.74 75.1359 298.74 74.9919C298.74 74.7839 298.75 74.6079 298.79 74.4639C298.8 74.3199 298.85 74.2079 298.93 74.1279C298.99 74.0479 299.09 74.0079 299.22 74.0079V75.9999ZM301.79 80.5359V78.2079H304.04V80.5359H301.79ZM314.51 60.4958V59.5839H319.41V60.4958H314.51ZM314.51 58.3119V57.3999H319.41V58.3119H314.51ZM325.04 75.9999V74.0079H327.61V75.9999H325.04ZM312.13 75.9999V74.0079H323.99L322.81 75.2079V58.8639H325.04V75.9999H312.13ZM315.83 74.0079V62.2479H318.06V74.0079H315.83ZM327.61 75.9999V74.0079C327.71 74.0079 327.79 74.0319 327.85 74.0799C327.92 74.1279 327.96 74.1919 328 74.2719C328.03 74.3519 328.05 74.4559 328.07 74.5839C328.08 74.6959 328.09 74.8319 328.09 74.9919C328.09 75.1359 328.08 75.2719 328.07 75.3999C328.05 75.5279 328.03 75.6399 328 75.7359C327.96 75.8159 327.92 75.8799 327.85 75.9279C327.79 75.9759 327.71 75.9999 327.61 75.9999ZM327.6 75.9999V74.0079H344.23L342.77 75.2319V71.1519C342.77 69.6799 342.55 68.4799 342.1 67.5519C341.67 66.6239 341 65.9439 340.11 65.5119C339.23 65.0639 338.11 64.8399 336.75 64.8399C336.15 64.8399 335.52 64.8719 334.85 64.9359C334.18 64.9839 333.51 65.0559 332.86 65.1519C332.2 65.2319 331.6 65.3119 331.06 65.3919L330.77 63.7839C331.19 63.6719 331.72 63.5439 332.38 63.3999C333.05 63.2399 333.78 63.1039 334.56 62.9919C335.36 62.8799 336.14 62.8239 336.89 62.8239C337.91 62.8239 338.91 62.9599 339.87 63.2319C340.84 63.5039 341.71 63.9599 342.46 64.5999C343.23 65.2239 343.83 66.0719 344.28 67.1439C344.75 68.2159 344.98 69.5519 344.98 71.1519V75.9999H327.6ZM330.36 74.0079V72.2799C330.36 71.5119 330.55 70.7999 330.94 70.1439C331.32 69.4879 331.85 68.9599 332.52 68.5599C333.21 68.1599 333.97 67.9599 334.8 67.9599C335.65 67.9599 336.4 68.1599 337.06 68.5599C337.73 68.9599 338.26 69.4879 338.64 70.1439C339.03 70.7999 339.22 71.5119 339.22 72.2799V74.0079H337.15V72.2799C337.15 71.7999 337.04 71.3759 336.82 71.0079C336.61 70.6399 336.33 70.3519 335.98 70.1439C335.64 69.9199 335.25 69.8079 334.8 69.8079C334.37 69.8079 333.97 69.9199 333.6 70.1439C333.25 70.3519 332.96 70.6479 332.74 71.0319C332.51 71.3999 332.4 71.8159 332.4 72.2799V74.0079H330.36ZM327.6 75.9999C327.51 75.9999 327.43 75.9759 327.36 75.9279C327.3 75.8799 327.25 75.8159 327.22 75.7359C327.19 75.6399 327.16 75.5279 327.15 75.3999C327.13 75.2719 327.12 75.1359 327.12 74.9919C327.12 74.7839 327.14 74.6079 327.17 74.4639C327.19 74.3199 327.23 74.2079 327.31 74.1279C327.38 74.0479 327.47 74.0079 327.6 74.0079V75.9999ZM349.01 75.9999V58.8639H351.24V75.9999H349.01ZM348.93 57.1839C348.66 56.8479 348.45 56.5279 348.31 56.2239C348.17 55.9039 348.09 55.5679 348.09 55.2159C348.09 54.7359 348.21 54.3039 348.45 53.9199C348.71 53.5359 349.04 53.2319 349.44 53.0079C349.85 52.7839 350.29 52.6719 350.76 52.6719C351.03 52.6719 351.3 52.7119 351.57 52.7919C351.85 52.8719 352.09 52.9759 352.29 53.1039L351.62 54.2799C351.49 54.1999 351.37 54.1519 351.24 54.1359C351.11 54.1039 350.98 54.0879 350.85 54.0879C350.47 54.0879 350.17 54.1919 349.97 54.3999C349.76 54.6079 349.65 54.8799 349.65 55.2159C349.65 55.4239 349.69 55.6239 349.77 55.8159C349.85 55.9919 349.98 56.1919 350.16 56.4159L348.93 57.1839ZM347.61 57.2319V55.8399H352.63V57.2319H347.61Z" fill="#050505"/>
<path d="M34.1602 116V114.768H35.8799V116H34.1602ZM24.6401 116C23.5701 116 22.68 115.877 21.96 115.632C21.25 115.376 20.7101 114.992 20.3501 114.48C20.0001 113.957 19.8198 113.301 19.8198 112.512C19.8198 112.256 19.8401 111.984 19.8701 111.696C19.9101 111.397 19.9598 111.109 20.0098 110.832C20.0698 110.544 20.1102 110.299 20.1602 110.096C20.2002 109.883 20.2302 109.739 20.2402 109.664L21.5601 109.92C21.5301 110.08 21.4799 110.309 21.4199 110.608C21.3699 110.907 21.3098 111.221 21.2598 111.552C21.2198 111.883 21.2002 112.203 21.2002 112.512C21.2002 112.907 21.2501 113.248 21.3701 113.536C21.5001 113.824 21.7 114.059 21.96 114.24C22.24 114.421 22.6 114.555 23.04 114.64C23.48 114.725 24.0199 114.768 24.6499 114.768H33.6001L32.7998 115.456V108.704L33.4399 109.232H30.8101C30.2101 109.232 29.7499 109.307 29.4199 109.456C29.0899 109.595 28.86 109.867 28.73 110.272C28.61 110.667 28.5601 111.243 28.5601 112C28.5601 112.768 28.61 113.349 28.73 113.744C28.86 114.139 29.0899 114.411 29.4199 114.56C29.7499 114.699 30.2101 114.768 30.8101 114.768V115.696C29.8801 115.696 29.1501 115.579 28.6201 115.344C28.1001 115.109 27.72 114.725 27.5 114.192C27.29 113.648 27.1802 112.917 27.1802 112C27.1802 111.083 27.29 110.331 27.5 109.744C27.72 109.147 28.1001 108.709 28.6201 108.432C29.1501 108.144 29.8801 108 30.8101 108H34.1602V116H24.6401ZM35.8799 116V114.768C35.9499 114.768 36 114.784 36.04 114.816C36.09 114.837 36.1201 114.875 36.1401 114.928C36.1601 114.981 36.1799 115.045 36.1899 115.12C36.1999 115.195 36.2002 115.28 36.2002 115.376C36.2002 115.472 36.1999 115.563 36.1899 115.648C36.1799 115.723 36.1601 115.787 36.1401 115.84C36.1201 115.893 36.09 115.936 36.04 115.968C36 115.989 35.9499 116 35.8799 116ZM30.3599 106.56V105.072H31.7402V106.56H30.3599ZM39.1299 116V114.768H40.8901V116H39.1299ZM40.8901 116V114.768C40.9601 114.768 41.0098 114.784 41.0498 114.816C41.0998 114.837 41.1299 114.875 41.1499 114.928C41.1699 114.981 41.1902 115.045 41.2002 115.12C41.2102 115.195 41.21 115.28 41.21 115.376C41.21 115.472 41.2102 115.563 41.2002 115.648C41.1902 115.723 41.1699 115.787 41.1499 115.84C41.1299 115.893 41.0998 115.936 41.0498 115.968C41.0098 115.989 40.9601 116 40.8901 116ZM35.9199 116C35.8499 116 35.7998 115.989 35.7598 115.968C35.7198 115.936 35.6802 115.893 35.6602 115.84C35.6402 115.787 35.6199 115.723 35.6099 115.648C35.5999 115.563 35.6001 115.472 35.6001 115.376C35.6001 115.248 35.6099 115.141 35.6299 115.056C35.6399 114.971 35.67 114.901 35.73 114.848C35.77 114.795 35.8299 114.768 35.9199 114.768V116ZM35.9199 116V114.768H38.4302L37.7598 115.312V108H39.1299V116H35.9199ZM36.5601 118.96V117.472H37.9199V118.96H36.5601ZM38.8501 118.96V117.472H40.21V118.96H38.8501ZM40.9302 116V114.768H51.6099L50.3701 115.872V112.176C50.3701 111.515 50.2798 110.971 50.0898 110.544C49.9098 110.107 49.6398 109.781 49.2798 109.568C48.9298 109.344 48.4802 109.232 47.9302 109.232C47.4702 109.232 47.0301 109.312 46.6201 109.472C46.2301 109.632 45.86 109.84 45.52 110.096C45.18 110.352 44.8601 110.635 44.5601 110.944C44.2701 111.243 43.9998 111.547 43.7598 111.856C43.5098 112.165 43.2898 112.448 43.0898 112.704L42.6699 111.504C43.0099 111.067 43.3499 110.64 43.6899 110.224C44.0499 109.808 44.4301 109.435 44.8301 109.104C45.2401 108.773 45.69 108.507 46.21 108.304C46.72 108.101 47.3102 108 47.9702 108C48.7202 108 49.3398 108.128 49.8198 108.384C50.3098 108.629 50.7002 108.965 50.9702 109.392C51.2502 109.808 51.4398 110.261 51.5498 110.752C51.6698 111.232 51.73 111.707 51.73 112.176V116H40.9302ZM41.98 114.768V104.544H43.3599V114.768H41.98ZM40.9302 116C40.8602 116 40.81 115.989 40.77 115.968C40.72 115.936 40.6899 115.893 40.6699 115.84C40.6499 115.787 40.6301 115.723 40.6201 115.648C40.6101 115.563 40.6099 115.472 40.6099 115.376C40.6099 115.248 40.6201 115.141 40.6401 115.056C40.6501 114.971 40.68 114.901 40.73 114.848C40.78 114.795 40.8402 114.768 40.9302 114.768V116ZM69.23 116V114.768H70.9399V116H69.23ZM61.4199 120.256C60.6199 120.256 59.8902 120.107 59.2402 119.808C58.6002 119.52 58.09 119.115 57.71 118.592C57.33 118.08 57.1499 117.483 57.1499 116.8C57.1499 116.576 57.17 116.272 57.21 115.888C57.25 115.504 57.3101 115.083 57.3701 114.624C57.4301 114.155 57.5001 113.685 57.5801 113.216C57.6501 112.736 57.72 112.293 57.79 111.888L59.1299 112.096C59.0099 112.821 58.9101 113.488 58.8101 114.096C58.7301 114.704 58.6601 115.232 58.6001 115.68C58.5601 116.117 58.54 116.459 58.54 116.704C58.54 117.195 58.6601 117.611 58.8901 117.952C59.1301 118.304 59.4599 118.571 59.8999 118.752C60.3399 118.933 60.8399 119.024 61.4199 119.024H65.1299C65.7099 119.024 66.1898 118.933 66.5898 118.752C66.9898 118.581 67.2998 118.336 67.5098 118.016C67.7398 117.696 67.8501 117.317 67.8501 116.88V108.704L68.4902 109.232H65.8701C65.2701 109.232 64.8102 109.307 64.4702 109.456C64.1502 109.595 63.9298 109.867 63.7998 110.272C63.6698 110.667 63.6099 111.243 63.6099 112C63.6099 112.768 63.6698 113.349 63.7998 113.744C63.9298 114.139 64.1502 114.411 64.4702 114.56C64.8102 114.699 65.2701 114.768 65.8701 114.768H67.8501V116H65.8701C64.9301 116 64.1999 115.861 63.6699 115.584C63.1499 115.296 62.7798 114.859 62.5698 114.272C62.3598 113.675 62.25 112.917 62.25 112C62.25 111.083 62.3598 110.331 62.5698 109.744C62.7798 109.147 63.1499 108.709 63.6699 108.432C64.1999 108.144 64.9301 108 65.8701 108H69.23V116.88C69.23 117.616 69.0299 118.235 68.6499 118.736C68.2699 119.248 67.7699 119.627 67.1499 119.872C66.5299 120.128 65.8599 120.256 65.1299 120.256H61.4199ZM70.9399 116V114.768C70.9999 114.768 71.0601 114.784 71.1001 114.816C71.1401 114.837 71.1699 114.875 71.1899 114.928C71.2199 114.981 71.2302 115.045 71.2402 115.12C71.2502 115.195 71.2598 115.28 71.2598 115.376C71.2598 115.472 71.2502 115.563 71.2402 115.648C71.2302 115.723 71.2199 115.787 71.1899 115.84C71.1699 115.893 71.1401 115.936 71.1001 115.968C71.0601 115.989 70.9999 116 70.9399 116ZM64.2998 106.56V105.072H65.6602V106.56H64.2998ZM66.5898 106.56V105.072H67.9502V106.56H66.5898ZM74.2002 116V114.768H75.96V116H74.2002ZM75.96 116V114.768C76.02 114.768 76.0801 114.784 76.1201 114.816C76.1601 114.837 76.1902 114.875 76.2202 114.928C76.2402 114.981 76.2498 115.045 76.2598 115.12C76.2698 115.195 76.2798 115.28 76.2798 115.376C76.2798 115.472 76.2698 115.563 76.2598 115.648C76.2498 115.723 76.2402 115.787 76.2202 115.84C76.1902 115.893 76.1601 115.936 76.1201 115.968C76.0801 115.989 76.02 116 75.96 116ZM70.98 116C70.92 116 70.8698 115.989 70.8198 115.968C70.7798 115.936 70.75 115.893 70.73 115.84C70.71 115.787 70.6902 115.723 70.6802 115.648C70.6702 115.563 70.6602 115.472 70.6602 115.376C70.6602 115.248 70.6702 115.141 70.7002 115.056C70.7102 114.971 70.74 114.901 70.79 114.848C70.83 114.795 70.9 114.768 70.98 114.768V116ZM70.98 116V114.768H73.5L72.8198 115.312V108H74.2002V116H70.98ZM71.6201 118.96V117.472H72.98V118.96H71.6201ZM73.9102 118.96V117.472H75.27V118.96H73.9102ZM79.0801 116V114.768H80.8101V116H79.0801ZM75.9902 116C75.9302 116 75.8801 115.989 75.8301 115.968C75.7901 115.936 75.7602 115.893 75.7402 115.84C75.7202 115.787 75.6999 115.723 75.6899 115.648C75.6799 115.563 75.6699 115.472 75.6699 115.376C75.6699 115.248 75.6802 115.141 75.7002 115.056C75.7202 114.971 75.7498 114.901 75.7998 114.848C75.8398 114.795 75.9102 114.768 75.9902 114.768V116ZM75.9902 116V114.768H78.3799L77.7202 115.312V108H79.0801V116H75.9902ZM80.8101 116V114.768C80.8701 114.768 80.9302 114.784 80.9702 114.816C81.0102 114.837 81.0401 114.875 81.0601 114.928C81.0901 114.981 81.0999 115.045 81.1099 115.12C81.1199 115.195 81.1299 115.28 81.1299 115.376C81.1299 115.472 81.1199 115.563 81.1099 115.648C81.0999 115.723 81.0901 115.787 81.0601 115.84C81.0401 115.893 81.0102 115.936 80.9702 115.968C80.9302 115.989 80.8701 116 80.8101 116ZM77.7202 118.96V117.472H79.1001V118.96H77.7202ZM91.23 116V114.768H92.9399V116H91.23ZM80.8501 116V114.768H91.5298L90.29 115.872V112.176C90.29 111.515 90.1898 110.971 90.0098 110.544C89.8298 110.107 89.5602 109.781 89.2002 109.568C88.8502 109.344 88.4001 109.232 87.8501 109.232C87.3801 109.232 86.95 109.312 86.54 109.472C86.15 109.632 85.7799 109.84 85.4399 110.096C85.0999 110.352 84.78 110.635 84.48 110.944C84.19 111.243 83.9202 111.547 83.6802 111.856C83.4302 112.165 83.2098 112.448 83.0098 112.704L82.5898 111.504C82.9298 111.067 83.2699 110.64 83.6099 110.224C83.9699 109.808 84.34 109.435 84.75 109.104C85.15 108.773 85.6099 108.507 86.1299 108.304C86.6399 108.101 87.2201 108 87.8901 108C88.6401 108 89.2602 108.128 89.7402 108.384C90.2302 108.629 90.6201 108.965 90.8901 109.392C91.1701 109.808 91.3602 110.261 91.4702 110.752C91.5902 111.232 91.6499 111.707 91.6499 112.176V116H80.8501ZM81.8999 114.768V104.544H83.2798V114.768H81.8999ZM80.8501 116C80.7801 116 80.7299 115.989 80.6899 115.968C80.6399 115.936 80.6098 115.893 80.5898 115.84C80.5698 115.787 80.55 115.723 80.54 115.648C80.53 115.563 80.5298 115.472 80.5298 115.376C80.5298 115.248 80.5401 115.141 80.5601 115.056C80.5701 114.971 80.5999 114.901 80.6499 114.848C80.6999 114.795 80.7601 114.768 80.8501 114.768V116ZM92.9399 116V114.768C93.0099 114.768 93.0601 114.784 93.1001 114.816C93.1401 114.837 93.1802 114.875 93.2002 114.928C93.2202 114.981 93.23 115.045 93.25 115.12C93.26 115.195 93.2598 115.28 93.2598 115.376C93.2598 115.472 93.26 115.563 93.25 115.648C93.23 115.723 93.2202 115.787 93.2002 115.84C93.1802 115.893 93.1401 115.936 93.1001 115.968C93.0601 115.989 93.0099 116 92.9399 116ZM92.98 116V114.768H95.4902L94.8198 115.312V108H96.2002V116H92.98ZM92.98 116C92.92 116 92.8598 115.989 92.8198 115.968C92.7798 115.936 92.7402 115.893 92.7202 115.84C92.7002 115.787 92.6902 115.723 92.6802 115.648C92.6602 115.563 92.6602 115.472 92.6602 115.376C92.6602 115.248 92.6699 115.141 92.6899 115.056C92.6999 114.971 92.73 114.901 92.79 114.848C92.83 114.795 92.89 114.768 92.98 114.768V116ZM93.7002 106.56V105.072H95.0601V106.56H93.7002ZM95.9902 106.56V105.072H97.3501V106.56H95.9902ZM107.95 119.648L108.16 120.768C107.66 120.875 107.2 120.955 106.77 121.008C106.35 121.072 105.95 121.104 105.57 121.104C104.78 121.104 104.09 120.981 103.51 120.736C102.93 120.491 102.49 120.128 102.18 119.648C101.87 119.168 101.71 118.592 101.71 117.92C101.71 117.397 101.81 116.912 102 116.464C102.21 116.016 102.49 115.632 102.85 115.312C103.21 114.981 103.65 114.725 104.15 114.544L104.61 114.336C105.01 114.176 105.41 113.995 105.83 113.792C106.24 113.579 106.64 113.344 107.01 113.088C107.39 112.832 107.74 112.549 108.03 112.24C108.34 111.92 108.58 111.579 108.75 111.216C108.93 110.853 109.01 110.464 109.01 110.048V109.072L109.75 110.176C109.14 109.867 108.54 109.632 107.94 109.472C107.34 109.312 106.76 109.232 106.19 109.232C105.64 109.232 105.06 109.312 104.47 109.472C103.88 109.632 103.28 109.867 102.67 110.176L103.39 109.072V110.048C103.39 110.421 103.49 110.827 103.68 111.264C103.89 111.691 104.16 112.112 104.5 112.528C104.85 112.933 105.26 113.307 105.73 113.648C106.2 113.989 106.72 114.261 107.28 114.464C107.85 114.667 108.44 114.768 109.06 114.768H111.23V116H109.15C108.32 116 107.54 115.867 106.82 115.6C106.09 115.333 105.44 114.981 104.85 114.544C104.26 114.096 103.76 113.611 103.33 113.088C102.91 112.555 102.59 112.027 102.37 111.504C102.15 110.971 102.03 110.485 102.03 110.048V109.088C102.49 108.843 102.96 108.64 103.43 108.48C103.91 108.32 104.38 108.203 104.85 108.128C105.32 108.043 105.77 108 106.19 108C106.64 108 107.1 108.043 107.55 108.128C108.02 108.203 108.49 108.32 108.96 108.48C109.44 108.64 109.91 108.843 110.37 109.088V110.048C110.37 110.667 110.24 111.232 109.99 111.744C109.74 112.245 109.41 112.699 108.99 113.104C108.59 113.499 108.15 113.851 107.67 114.16C107.19 114.459 106.71 114.72 106.24 114.944C106.15 114.987 106.01 115.045 105.83 115.12C105.66 115.195 105.47 115.275 105.28 115.36C105.1 115.445 104.94 115.52 104.8 115.584C104.66 115.637 104.58 115.675 104.55 115.696C104.29 115.803 104.05 115.952 103.83 116.144C103.61 116.336 103.44 116.576 103.3 116.864C103.16 117.152 103.09 117.504 103.09 117.92C103.09 118.549 103.29 119.029 103.68 119.36C104.09 119.701 104.72 119.872 105.57 119.872C105.83 119.872 106.15 119.851 106.53 119.808C106.93 119.776 107.4 119.723 107.95 119.648ZM111.23 116V114.768C111.3 114.768 111.35 114.784 111.39 114.816C111.44 114.837 111.47 114.875 111.49 114.928C111.51 114.981 111.53 115.045 111.54 115.12C111.55 115.195 111.55 115.28 111.55 115.376C111.55 115.472 111.55 115.563 111.54 115.648C111.53 115.723 111.51 115.787 111.49 115.84C111.47 115.893 111.44 115.936 111.39 115.968C111.35 115.989 111.3 116 111.23 116ZM111.27 116V114.768H119.96L119.03 115.44V112.08C119.03 111.355 118.95 110.784 118.77 110.368C118.61 109.952 118.33 109.659 117.93 109.488C117.53 109.317 116.99 109.232 116.31 109.232C115.86 109.232 115.42 109.264 114.98 109.328C114.55 109.381 114.2 109.461 113.96 109.568L114.79 108.736C114.73 108.992 114.66 109.317 114.6 109.712C114.53 110.096 114.48 110.512 114.44 110.96C114.4 111.397 114.37 111.835 114.37 112.272C114.37 112.72 114.4 113.163 114.44 113.6C114.48 114.037 114.53 114.416 114.58 114.736C114.64 115.045 114.68 115.264 114.71 115.392L113.41 115.76C113.37 115.621 113.32 115.381 113.25 115.04C113.19 114.699 113.13 114.288 113.08 113.808C113.04 113.328 113.01 112.816 113.01 112.272C113.01 111.749 113.04 111.243 113.09 110.752C113.15 110.251 113.21 109.797 113.27 109.392C113.35 108.987 113.41 108.661 113.48 108.416C113.71 108.32 114.09 108.224 114.6 108.128C115.12 108.032 115.69 107.984 116.31 107.984C117.22 107.984 117.97 108.117 118.58 108.384C119.19 108.651 119.64 109.083 119.94 109.68C120.24 110.277 120.39 111.077 120.39 112.08V116H111.27ZM111.27 116C111.21 116 111.15 115.989 111.11 115.968C111.07 115.936 111.04 115.893 111.01 115.84C110.99 115.787 110.98 115.723 110.97 115.648C110.96 115.563 110.95 115.472 110.95 115.376C110.95 115.248 110.96 115.141 110.98 115.056C110.99 114.971 111.03 114.901 111.08 114.848C111.12 114.795 111.19 114.768 111.27 114.768V116ZM140.38 116V114.768H142.11V116H140.38ZM130.86 116C129.79 116 128.9 115.877 128.19 115.632C127.47 115.376 126.93 114.992 126.57 114.48C126.22 113.957 126.04 113.301 126.04 112.512C126.04 112.256 126.06 111.984 126.09 111.696C126.13 111.397 126.18 111.109 126.24 110.832C126.29 110.544 126.34 110.299 126.38 110.096C126.42 109.883 126.45 109.739 126.46 109.664L127.79 109.92C127.76 110.08 127.71 110.309 127.64 110.608C127.59 110.907 127.54 111.221 127.48 111.552C127.44 111.883 127.42 112.203 127.42 112.512C127.42 112.907 127.48 113.248 127.6 113.536C127.72 113.824 127.92 114.059 128.19 114.24C128.46 114.421 128.82 114.555 129.26 114.64C129.71 114.725 130.25 114.768 130.88 114.768H139.82L139.02 115.456V108.704L139.66 109.232H137.04C136.44 109.232 135.97 109.307 135.64 109.456C135.31 109.595 135.08 109.867 134.96 110.272C134.84 110.667 134.78 111.243 134.78 112C134.78 112.768 134.84 113.349 134.96 113.744C135.08 114.139 135.31 114.411 135.64 114.56C135.97 114.699 136.44 114.768 137.04 114.768V115.696C136.11 115.696 135.38 115.579 134.84 115.344C134.32 115.109 133.95 114.725 133.72 114.192C133.51 113.648 133.4 112.917 133.4 112C133.4 111.083 133.51 110.331 133.72 109.744C133.95 109.147 134.32 108.709 134.84 108.432C135.38 108.144 136.11 108 137.04 108H140.38V116H130.86ZM142.11 116V114.768C142.17 114.768 142.22 114.784 142.27 114.816C142.31 114.837 142.34 114.875 142.36 114.928C142.38 114.981 142.4 115.045 142.41 115.12C142.42 115.195 142.43 115.28 142.43 115.376C142.43 115.472 142.42 115.563 142.41 115.648C142.4 115.723 142.38 115.787 142.36 115.84C142.34 115.893 142.31 115.936 142.27 115.968C142.22 115.989 142.17 116 142.11 116ZM136.59 106.56V105.072H137.96V106.56H136.59ZM154.36 116V114.768H156.09V116H154.36ZM142.14 116C142.08 116 142.02 115.989 141.98 115.968C141.94 115.936 141.91 115.893 141.88 115.84C141.86 115.787 141.85 115.723 141.84 115.648C141.83 115.563 141.82 115.472 141.82 115.376C141.82 115.248 141.83 115.141 141.85 115.056C141.86 114.971 141.9 114.901 141.95 114.848C141.99 114.795 142.06 114.768 142.14 114.768V116ZM150.7 116C150.33 116 149.96 115.931 149.6 115.792C149.23 115.643 148.89 115.419 148.57 115.12L149.45 114.192C149.7 114.395 149.92 114.544 150.11 114.64C150.3 114.725 150.5 114.768 150.7 114.768H153.56L152.99 115.344V111.552C152.99 111.371 152.97 111.104 152.92 110.752C152.89 110.4 152.84 110.005 152.76 109.568C152.7 109.12 152.62 108.672 152.52 108.224L153.87 108C153.94 108.373 154.02 108.789 154.09 109.248C154.17 109.707 154.23 110.144 154.28 110.56C154.34 110.976 154.36 111.307 154.36 111.552V116H150.7ZM142.14 116V114.768H144.48L144.14 115.104V109.6H145.48V116H142.14ZM145.48 116V114.768H147.23C147.59 114.768 147.86 114.715 148.04 114.608C148.24 114.501 148.37 114.288 148.44 113.968C148.52 113.648 148.56 113.179 148.56 112.56V108.8H149.92V112.56C149.92 113.403 149.83 114.08 149.64 114.592C149.46 115.093 149.18 115.456 148.78 115.68C148.39 115.893 147.87 116 147.23 116H145.48ZM156.09 116V114.768C156.16 114.768 156.21 114.784 156.25 114.816C156.3 114.837 156.33 114.875 156.35 114.928C156.37 114.981 156.39 115.045 156.4 115.12C156.41 115.195 156.41 115.28 156.41 115.376C156.41 115.472 156.41 115.563 156.4 115.648C156.39 115.723 156.37 115.787 156.35 115.84C156.33 115.893 156.3 115.936 156.25 115.968C156.21 115.989 156.16 116 156.09 116ZM148.6 104.4V103.008H149.85V104.4H148.6ZM147.4 106.56V105.072H148.76V106.56H147.4ZM149.69 106.56V105.072H151.05V106.56H149.69ZM159.35 116V114.768H161.11V116H159.35ZM161.11 116V114.768C161.17 114.768 161.23 114.784 161.27 114.816C161.31 114.837 161.34 114.875 161.37 114.928C161.39 114.981 161.4 115.045 161.41 115.12C161.42 115.195 161.43 115.28 161.43 115.376C161.43 115.472 161.42 115.563 161.41 115.648C161.4 115.723 161.39 115.787 161.37 115.84C161.34 115.893 161.31 115.936 161.27 115.968C161.23 115.989 161.17 116 161.11 116ZM156.13 116C156.07 116 156.02 115.989 155.97 115.968C155.93 115.936 155.9 115.893 155.88 115.84C155.86 115.787 155.84 115.723 155.83 115.648C155.82 115.563 155.81 115.472 155.81 115.376C155.81 115.248 155.82 115.141 155.85 115.056C155.86 114.971 155.89 114.901 155.94 114.848C155.98 114.795 156.05 114.768 156.13 114.768V116ZM156.13 116V114.768H158.65L157.97 115.312V108H159.35V116H156.13ZM156.85 106.56V105.072H158.21V106.56H156.85ZM159.14 106.56V105.072H160.5V106.56H159.14ZM161.14 116V114.768H169.14L168.66 115.184V112.432C168.66 111.856 168.59 111.387 168.44 111.024C168.29 110.651 168.07 110.373 167.77 110.192C167.48 110.011 167.11 109.92 166.66 109.92H163.17L162.2 108.464L162.9 107.104C163.03 106.88 163.16 106.651 163.29 106.416C163.43 106.171 163.6 105.888 163.8 105.568C164 105.248 164.26 104.859 164.57 104.4L165.7 105.088C165.4 105.547 165.16 105.931 164.97 106.24C164.77 106.539 164.61 106.8 164.49 107.024C164.36 107.237 164.24 107.456 164.12 107.68L163.33 109.168L163.01 108.672H166.66C167.33 108.672 167.89 108.789 168.33 109.024C168.76 109.248 169.11 109.552 169.35 109.936C169.61 110.309 169.78 110.715 169.88 111.152C169.99 111.589 170.04 112.016 170.04 112.432V116H161.14ZM161.14 116C161.08 116 161.03 115.989 160.98 115.968C160.94 115.936 160.91 115.893 160.89 115.84C160.87 115.787 160.85 115.723 160.84 115.648C160.83 115.563 160.82 115.472 160.82 115.376C160.82 115.248 160.83 115.141 160.85 115.056C160.87 114.971 160.9 114.901 160.95 114.848C160.99 114.795 161.06 114.768 161.14 114.768V116ZM172.78 116V104.544H174.14V116H172.78ZM180.3 110.928V108.992H181.79V110.928H180.3ZM180.3 116V114.064H181.79V116H180.3ZM187.97 119.968C187.34 119.968 186.75 119.877 186.21 119.696C185.68 119.515 185.21 119.264 184.8 118.944C184.4 118.635 184.08 118.256 183.84 117.808C183.62 117.371 183.51 116.885 183.51 116.352C183.51 116.139 183.52 115.861 183.55 115.52C183.6 115.168 183.64 114.773 183.7 114.336C183.76 113.899 183.83 113.451 183.91 112.992L185.25 113.184C185.14 113.888 185.05 114.528 184.98 115.104C184.91 115.68 184.88 116.091 184.88 116.336C184.88 116.805 185.01 117.221 185.27 117.584C185.53 117.947 185.89 118.229 186.35 118.432C186.82 118.635 187.36 118.736 187.97 118.736H192.5C193.3 118.736 193.9 118.517 194.31 118.08C194.72 117.653 194.93 117.003 194.93 116.128C194.93 115.701 194.86 115.365 194.72 115.12C194.59 114.875 194.36 114.672 194.03 114.512C193.7 114.341 193.23 114.165 192.63 113.984C192.06 113.824 191.55 113.669 191.11 113.52C190.67 113.36 190.29 113.179 189.99 112.976C189.68 112.763 189.44 112.501 189.28 112.192C189.12 111.872 189.04 111.456 189.04 110.944C189.04 110.283 189.18 109.733 189.46 109.296C189.73 108.859 190.13 108.533 190.64 108.32C191.16 108.107 191.79 108 192.53 108L192.48 109.232C192 109.232 191.61 109.291 191.3 109.408C190.99 109.525 190.76 109.707 190.61 109.952C190.46 110.187 190.39 110.496 190.39 110.88C190.39 111.189 190.44 111.445 190.55 111.648C190.65 111.84 190.82 112 191.04 112.128C191.27 112.256 191.54 112.373 191.86 112.48C192.19 112.576 192.57 112.683 192.99 112.8C193.51 112.949 193.96 113.109 194.37 113.28C194.77 113.451 195.12 113.659 195.39 113.904C195.68 114.149 195.9 114.459 196.05 114.832C196.2 115.195 196.27 115.648 196.27 116.192C196.27 116.928 196.12 117.579 195.83 118.144C195.54 118.72 195.11 119.168 194.55 119.488C193.99 119.808 193.31 119.968 192.5 119.968H187.97ZM197.78 116V108H199.15V115.312L198.48 114.768H200.88V116H197.78ZM192.48 109.232L192.53 108H197.78V109.232H192.48ZM200.88 116V114.768C200.95 114.768 201 114.784 201.04 114.816C201.08 114.837 201.12 114.875 201.14 114.928C201.16 114.981 201.17 115.045 201.19 115.12C201.2 115.195 201.2 115.28 201.2 115.376C201.2 115.472 201.2 115.563 201.19 115.648C201.17 115.723 201.16 115.787 201.14 115.84C201.12 115.893 201.08 115.936 201.04 115.968C201 115.989 200.95 116 200.88 116ZM197.78 118.96V117.472H199.15V118.96H197.78ZM188.08 122.96V121.472H189.44V122.96H188.08ZM190.37 122.96V121.472H191.73V122.96H190.37ZM211.3 116V114.768H213.02V116H211.3ZM200.92 116V114.768H211.61L210.36 115.872V112.176C210.36 111.515 210.27 110.971 210.09 110.544C209.91 110.107 209.64 109.781 209.27 109.568C208.92 109.344 208.47 109.232 207.93 109.232C207.46 109.232 207.02 109.312 206.62 109.472C206.22 109.632 205.85 109.84 205.51 110.096C205.17 110.352 204.85 110.635 204.55 110.944C204.26 111.243 204 111.547 203.75 111.856C203.51 112.165 203.28 112.448 203.08 112.704L202.66 111.504C203.01 111.067 203.35 110.64 203.69 110.224C204.04 109.808 204.42 109.435 204.82 109.104C205.23 108.773 205.69 108.507 206.2 108.304C206.71 108.101 207.3 108 207.96 108C208.72 108 209.34 108.128 209.82 108.384C210.31 108.629 210.69 108.965 210.97 109.392C211.25 109.808 211.44 110.261 211.54 110.752C211.66 111.232 211.72 111.707 211.72 112.176V116H200.92ZM201.98 114.768V104.544H203.35V114.768H201.98ZM200.92 116C200.86 116 200.8 115.989 200.76 115.968C200.72 115.936 200.69 115.893 200.66 115.84C200.64 115.787 200.63 115.723 200.62 115.648C200.61 115.563 200.6 115.472 200.6 115.376C200.6 115.248 200.61 115.141 200.63 115.056C200.64 114.971 200.68 114.901 200.73 114.848C200.77 114.795 200.84 114.768 200.92 114.768V116ZM213.02 116V114.768C213.08 114.768 213.13 114.784 213.18 114.816C213.22 114.837 213.25 114.875 213.27 114.928C213.29 114.981 213.31 115.045 213.32 115.12C213.33 115.195 213.34 115.28 213.34 115.376C213.34 115.472 213.33 115.563 213.32 115.648C213.31 115.723 213.29 115.787 213.27 115.84C213.25 115.893 213.22 115.936 213.18 115.968C213.13 115.989 213.08 116 213.02 116ZM214.97 116V104.544H216.35V116H214.97ZM213.05 116V114.768H214.97V116H213.05ZM213.05 116C212.99 116 212.94 115.989 212.89 115.968C212.85 115.936 212.82 115.893 212.8 115.84C212.78 115.787 212.76 115.723 212.75 115.648C212.74 115.563 212.73 115.472 212.73 115.376C212.73 115.248 212.75 115.141 212.77 115.056C212.78 114.971 212.81 114.901 212.86 114.848C212.91 114.795 212.97 114.768 213.05 114.768V116ZM219.11 116V104.544H220.47V116H219.11ZM243.5 116V114.768H245.24V116H243.5ZM230.78 119.968C229.93 119.968 229.15 119.808 228.46 119.488C227.78 119.179 227.23 118.741 226.83 118.176C226.43 117.621 226.24 116.987 226.24 116.272C226.24 116.048 226.25 115.755 226.28 115.392C226.33 115.019 226.38 114.608 226.43 114.16C226.49 113.712 226.56 113.259 226.64 112.8C226.71 112.331 226.78 111.888 226.84 111.472L228.19 111.68C228.07 112.405 227.97 113.083 227.88 113.712C227.8 114.331 227.73 114.859 227.68 115.296C227.63 115.733 227.61 116.059 227.61 116.272C227.61 116.752 227.74 117.173 228 117.536C228.26 117.909 228.64 118.203 229.12 118.416C229.6 118.629 230.15 118.736 230.78 118.736C231.41 118.736 231.95 118.635 232.4 118.432C232.84 118.24 233.19 117.963 233.42 117.6C233.66 117.248 233.77 116.837 233.77 116.368V108H235.13V116.368C235.13 117.115 234.94 117.755 234.54 118.288C234.16 118.832 233.63 119.248 232.97 119.536C232.32 119.824 231.59 119.968 230.78 119.968ZM235.13 116V114.768H243.39L242.16 115.872V112.176C242.16 111.515 242.06 110.971 241.87 110.544C241.69 110.107 241.42 109.781 241.05 109.568C240.7 109.344 240.26 109.232 239.72 109.232C239.26 109.232 238.82 109.312 238.41 109.472C238.01 109.632 237.63 109.84 237.29 110.096C236.95 110.352 236.63 110.635 236.33 110.944C236.04 111.243 235.78 111.547 235.53 111.856C235.29 112.165 235.07 112.448 234.88 112.704L234.44 111.504C234.73 111.152 235.02 110.805 235.29 110.464C235.58 110.123 235.87 109.803 236.17 109.504C236.47 109.205 236.8 108.944 237.15 108.72C237.5 108.496 237.88 108.32 238.3 108.192C238.73 108.064 239.21 108 239.74 108C240.5 108 241.12 108.128 241.6 108.384C242.09 108.629 242.47 108.965 242.75 109.392C243.03 109.808 243.22 110.261 243.32 110.752C243.44 111.232 243.5 111.707 243.5 112.176V116H235.13ZM245.24 116V114.768C245.31 114.768 245.36 114.784 245.4 114.816C245.45 114.837 245.48 114.875 245.5 114.928C245.52 114.981 245.54 115.045 245.55 115.12C245.56 115.195 245.56 115.28 245.56 115.376C245.56 115.472 245.56 115.563 245.55 115.648C245.54 115.723 245.52 115.787 245.5 115.84C245.48 115.893 245.45 115.936 245.4 115.968C245.36 115.989 245.31 116 245.24 116ZM248.49 116V114.768H250.25V116H248.49ZM250.25 116V114.768C250.32 114.768 250.37 114.784 250.41 114.816C250.46 114.837 250.49 114.875 250.51 114.928C250.53 114.981 250.55 115.045 250.56 115.12C250.57 115.195 250.57 115.28 250.57 115.376C250.57 115.472 250.57 115.563 250.56 115.648C250.55 115.723 250.53 115.787 250.51 115.84C250.49 115.893 250.46 115.936 250.41 115.968C250.37 115.989 250.32 116 250.25 116ZM245.28 116C245.21 116 245.16 115.989 245.12 115.968C245.07 115.936 245.04 115.893 245.02 115.84C245 115.787 244.98 115.723 244.97 115.648C244.96 115.563 244.96 115.472 244.96 115.376C244.96 115.248 244.97 115.141 244.99 115.056C245 114.971 245.03 114.901 245.09 114.848C245.13 114.795 245.19 114.768 245.28 114.768V116ZM245.28 116V114.768H247.79L247.12 115.312V108H248.49V116H245.28ZM245.92 118.96V117.472H247.28V118.96H245.92ZM248.21 118.96V117.472H249.57V118.96H248.21ZM258.25 116V114.768H259.98V116H258.25ZM250.29 116C250.22 116 250.17 115.989 250.13 115.968C250.08 115.936 250.05 115.893 250.03 115.84C250.01 115.787 249.99 115.723 249.98 115.648C249.97 115.563 249.97 115.472 249.97 115.376C249.97 115.248 249.98 115.141 250 115.056C250.01 114.971 250.04 114.901 250.09 114.848C250.14 114.795 250.2 114.768 250.29 114.768V116ZM250.29 116V114.768H257.31L256.89 115.136V111.312C256.89 110.619 256.68 110.101 256.24 109.76C255.81 109.419 255.16 109.248 254.29 109.248C254.01 109.248 253.61 109.275 253.1 109.328C252.6 109.371 252.07 109.429 251.5 109.504L251.34 108.4C251.78 108.293 252.25 108.203 252.77 108.128C253.29 108.043 253.8 108 254.29 108C255.1 108 255.8 108.128 256.4 108.384C257 108.64 257.45 109.013 257.77 109.504C258.09 109.995 258.25 110.597 258.25 111.312V116H250.29ZM259.98 116V114.768C260.05 114.768 260.1 114.784 260.14 114.816C260.18 114.837 260.22 114.875 260.24 114.928C260.26 114.981 260.28 115.045 260.29 115.12C260.3 115.195 260.3 115.28 260.3 115.376C260.3 115.472 260.3 115.563 260.29 115.648C260.28 115.723 260.26 115.787 260.24 115.84C260.22 115.893 260.18 115.936 260.14 115.968C260.1 115.989 260.05 116 259.98 116ZM253.6 106.88V105.392H254.97V106.88H253.6ZM272.25 116V114.768H273.98V116H272.25ZM260.03 116C259.97 116 259.91 115.989 259.87 115.968C259.83 115.936 259.79 115.893 259.77 115.84C259.75 115.787 259.74 115.723 259.73 115.648C259.71 115.563 259.71 115.472 259.71 115.376C259.71 115.248 259.72 115.141 259.74 115.056C259.75 114.971 259.78 114.901 259.84 114.848C259.88 114.795 259.94 114.768 260.03 114.768V116ZM268.59 116C268.22 116 267.85 115.931 267.49 115.792C267.12 115.643 266.78 115.419 266.46 115.12L267.34 114.192C267.59 114.395 267.81 114.544 268 114.64C268.19 114.725 268.39 114.768 268.59 114.768H271.45L270.88 115.344V111.552C270.88 111.371 270.86 111.104 270.81 110.752C270.78 110.4 270.73 110.005 270.65 109.568C270.59 109.12 270.51 108.672 270.41 108.224L271.76 108C271.83 108.373 271.91 108.789 271.98 109.248C272.06 109.707 272.12 110.144 272.17 110.56C272.23 110.976 272.25 111.307 272.25 111.552V116H268.59ZM260.03 116V114.768H262.37L262.03 115.104V109.6H263.37V116H260.03ZM263.37 116V114.768H265.12C265.48 114.768 265.75 114.715 265.93 114.608C266.13 114.501 266.26 114.288 266.33 113.968C266.41 113.648 266.45 113.179 266.45 112.56V108.8H267.81V112.56C267.81 113.403 267.71 114.08 267.53 114.592C267.35 115.093 267.06 115.456 266.67 115.68C266.27 115.893 265.76 116 265.12 116H263.37ZM273.98 116V114.768C274.05 114.768 274.1 114.784 274.14 114.816C274.18 114.837 274.22 114.875 274.24 114.928C274.26 114.981 274.27 115.045 274.29 115.12C274.3 115.195 274.3 115.28 274.3 115.376C274.3 115.472 274.3 115.563 274.29 115.648C274.27 115.723 274.26 115.787 274.24 115.84C274.22 115.893 274.18 115.936 274.14 115.968C274.1 115.989 274.05 116 273.98 116ZM266.49 104.4V103.008H267.74V104.4H266.49ZM265.29 106.56V105.072H266.65V106.56H265.29ZM267.58 106.56V105.072H268.94V106.56H267.58ZM277.24 116V114.768H279V116H277.24ZM279 116V114.768C279.06 114.768 279.12 114.784 279.16 114.816C279.2 114.837 279.23 114.875 279.25 114.928C279.28 114.981 279.29 115.045 279.3 115.12C279.31 115.195 279.32 115.28 279.32 115.376C279.32 115.472 279.31 115.563 279.3 115.648C279.29 115.723 279.28 115.787 279.25 115.84C279.23 115.893 279.2 115.936 279.16 115.968C279.12 115.989 279.06 116 279 116ZM274.02 116C273.96 116 273.9 115.989 273.86 115.968C273.82 115.936 273.79 115.893 273.77 115.84C273.74 115.787 273.73 115.723 273.72 115.648C273.71 115.563 273.7 115.472 273.7 115.376C273.7 115.248 273.71 115.141 273.73 115.056C273.74 114.971 273.78 114.901 273.83 114.848C273.87 114.795 273.94 114.768 274.02 114.768V116ZM274.02 116V114.768H276.53L275.86 115.312V108H277.24V116H274.02ZM274.74 106.56V105.072H276.1V106.56H274.74ZM277.03 106.56V105.072H278.39V106.56H277.03ZM282.33 116V114.768H284.04V116H282.33ZM279.03 116C278.97 116 278.91 115.989 278.87 115.968C278.83 115.936 278.8 115.893 278.77 115.84C278.75 115.787 278.74 115.723 278.73 115.648C278.72 115.563 278.71 115.472 278.71 115.376C278.71 115.248 278.72 115.141 278.74 115.056C278.75 114.971 278.79 114.901 278.84 114.848C278.88 114.795 278.95 114.768 279.03 114.768V116ZM280.95 116V104.544H282.33V116H280.95ZM279.03 116V114.768H280.95V116H279.03ZM284.04 116V114.768C284.1 114.768 284.16 114.784 284.2 114.816C284.24 114.837 284.27 114.875 284.29 114.928C284.32 114.981 284.33 115.045 284.34 115.12C284.35 115.195 284.36 115.28 284.36 115.376C284.36 115.472 284.35 115.563 284.34 115.648C284.33 115.723 284.32 115.787 284.29 115.84C284.27 115.893 284.24 115.936 284.2 115.968C284.16 115.989 284.1 116 284.04 116ZM286.01 116V104.544H287.38V116H286.01ZM284.09 116V114.768H286.01V116H284.09ZM284.09 116C284.02 116 283.97 115.989 283.93 115.968C283.88 115.936 283.85 115.893 283.83 115.84C283.81 115.787 283.79 115.723 283.78 115.648C283.77 115.563 283.77 115.472 283.77 115.376C283.77 115.248 283.78 115.141 283.8 115.056C283.81 114.971 283.84 114.901 283.89 114.848C283.94 114.795 284 114.768 284.09 114.768V116ZM292.82 116V112.192C292.82 111.157 292.97 110.336 293.27 109.728C293.58 109.109 294.04 108.667 294.65 108.4C295.25 108.133 296.01 108 296.9 108C297.81 108 298.56 108.133 299.16 108.4C299.77 108.667 300.22 109.109 300.52 109.728C300.83 110.336 300.98 111.157 300.98 112.192V116H292.82ZM294.2 115.36L293.49 114.768H300.31L299.62 115.36V112.192C299.62 111.445 299.54 110.853 299.37 110.416C299.21 109.979 298.93 109.675 298.53 109.504C298.14 109.323 297.6 109.232 296.9 109.232C296.21 109.232 295.66 109.323 295.27 109.504C294.88 109.675 294.6 109.979 294.44 110.416C294.28 110.853 294.2 111.445 294.2 112.192V115.36ZM295.09 106.56V105.072H296.45V106.56H295.09ZM297.38 106.56V105.072H298.74V106.56H297.38ZM304.54 116V114.768H306.59V116H304.54ZM301.87 119.6C301.73 119.6 301.59 119.589 301.44 119.568C301.28 119.557 301.12 119.547 300.97 119.536L301.1 118.304C301.25 118.315 301.39 118.325 301.53 118.336C301.66 118.357 301.77 118.368 301.87 118.368C302.36 118.368 302.75 118.181 303.05 117.808C303.35 117.435 303.5 116.917 303.5 116.256V108H304.88V116.256C304.88 116.917 304.75 117.499 304.49 118C304.24 118.512 303.88 118.907 303.42 119.184C302.97 119.461 302.45 119.6 301.87 119.6ZM306.59 116V114.768C306.65 114.768 306.71 114.784 306.75 114.816C306.79 114.837 306.82 114.875 306.84 114.928C306.87 114.981 306.88 115.045 306.89 115.12C306.9 115.195 306.91 115.28 306.91 115.376C306.91 115.472 306.9 115.563 306.89 115.648C306.88 115.723 306.87 115.787 306.84 115.84C306.82 115.893 306.79 115.936 306.75 115.968C306.71 115.989 306.65 116 306.59 116ZM315.52 116V114.768H317.23V116H315.52ZM306.62 116C306.56 116 306.5 115.989 306.46 115.968C306.42 115.936 306.39 115.893 306.37 115.84C306.34 115.787 306.33 115.723 306.32 115.648C306.31 115.563 306.3 115.472 306.3 115.376C306.3 115.248 306.31 115.141 306.33 115.056C306.34 114.971 306.38 114.901 306.43 114.848C306.47 114.795 306.54 114.768 306.62 114.768V116ZM306.62 116V114.768H314.62L314.14 115.184V112.432C314.14 111.856 314.07 111.387 313.92 111.024C313.77 110.651 313.54 110.373 313.25 110.192C312.96 110.011 312.59 109.92 312.14 109.92H308.65L307.68 108.464L308.38 107.104C308.51 106.88 308.64 106.651 308.77 106.416C308.9 106.171 309.07 105.888 309.28 105.568C309.48 105.248 309.74 104.859 310.05 104.4L311.18 105.088C310.88 105.547 310.64 105.931 310.45 106.24C310.25 106.539 310.09 106.8 309.97 107.024C309.84 107.237 309.71 107.456 309.6 107.68L308.81 109.168L308.49 108.672H312.14C312.81 108.672 313.37 108.789 313.81 109.024C314.24 109.248 314.58 109.552 314.83 109.936C315.09 110.309 315.26 110.715 315.36 111.152C315.46 111.589 315.52 112.016 315.52 112.432V116H306.62ZM317.23 116V114.768C317.29 114.768 317.35 114.784 317.39 114.816C317.43 114.837 317.46 114.875 317.49 114.928C317.51 114.981 317.52 115.045 317.53 115.12C317.54 115.195 317.55 115.28 317.55 115.376C317.55 115.472 317.54 115.563 317.53 115.648C317.52 115.723 317.51 115.787 317.49 115.84C317.46 115.893 317.43 115.936 317.39 115.968C317.35 115.989 317.29 116 317.23 116ZM320.49 116V114.768H322.25V116H320.49ZM322.25 116V114.768C322.31 114.768 322.36 114.784 322.41 114.816C322.45 114.837 322.48 114.875 322.5 114.928C322.52 114.981 322.54 115.045 322.55 115.12C322.56 115.195 322.57 115.28 322.57 115.376C322.57 115.472 322.56 115.563 322.55 115.648C322.54 115.723 322.52 115.787 322.5 115.84C322.48 115.893 322.45 115.936 322.41 115.968C322.36 115.989 322.31 116 322.25 116ZM317.27 116C317.21 116 317.15 115.989 317.11 115.968C317.07 115.936 317.04 115.893 317.01 115.84C316.99 115.787 316.98 115.723 316.97 115.648C316.96 115.563 316.95 115.472 316.95 115.376C316.95 115.248 316.96 115.141 316.98 115.056C316.99 114.971 317.03 114.901 317.08 114.848C317.12 114.795 317.19 114.768 317.27 114.768V116ZM317.27 116V114.768H319.78L319.11 115.312V108H320.49V116H317.27ZM317.99 106.56V105.072H319.35V106.56H317.99ZM320.28 106.56V105.072H321.64V106.56H320.28ZM325.37 116V114.768H327.1V116H325.37ZM322.28 116C322.22 116 322.16 115.989 322.12 115.968C322.08 115.936 322.05 115.893 322.02 115.84C322 115.787 321.99 115.723 321.98 115.648C321.97 115.563 321.96 115.472 321.96 115.376C321.96 115.248 321.97 115.141 321.99 115.056C322 114.971 322.03 114.901 322.09 114.848C322.13 114.795 322.19 114.768 322.28 114.768V116ZM322.28 116V114.768H324.66L324.01 115.312V108H325.37V116H322.28ZM327.1 116V114.768C327.16 114.768 327.21 114.784 327.26 114.816C327.3 114.837 327.33 114.875 327.35 114.928C327.37 114.981 327.39 115.045 327.4 115.12C327.41 115.195 327.42 115.28 327.42 115.376C327.42 115.472 327.41 115.563 327.4 115.648C327.39 115.723 327.37 115.787 327.35 115.84C327.33 115.893 327.3 115.936 327.26 115.968C327.21 115.989 327.16 116 327.1 116ZM324.01 118.96V117.472H325.38V118.96H324.01ZM327.13 116V114.768H335.82L334.89 115.44V112.08C334.89 111.355 334.81 110.784 334.64 110.368C334.48 109.952 334.19 109.659 333.79 109.488C333.39 109.317 332.85 109.232 332.17 109.232C331.72 109.232 331.28 109.264 330.84 109.328C330.41 109.381 330.07 109.461 329.82 109.568L330.65 108.736C330.59 108.992 330.52 109.317 330.46 109.712C330.4 110.096 330.34 110.512 330.3 110.96C330.26 111.397 330.24 111.835 330.24 112.272C330.24 112.72 330.26 113.163 330.3 113.6C330.34 114.037 330.39 114.416 330.44 114.736C330.5 115.045 330.54 115.264 330.57 115.392L329.28 115.76C329.23 115.621 329.18 115.381 329.12 115.04C329.05 114.699 328.99 114.288 328.94 113.808C328.9 113.328 328.88 112.816 328.88 112.272C328.88 111.749 328.9 111.243 328.96 110.752C329.01 110.251 329.07 109.797 329.13 109.392C329.21 108.987 329.28 108.661 329.34 108.416C329.57 108.32 329.95 108.224 330.46 108.128C330.98 108.032 331.55 107.984 332.17 107.984C333.08 107.984 333.84 108.117 334.44 108.384C335.05 108.651 335.51 109.083 335.8 109.68C336.1 110.277 336.25 111.077 336.25 112.08V116H327.13ZM327.13 116C327.07 116 327.01 115.989 326.97 115.968C326.93 115.936 326.9 115.893 326.88 115.84C326.85 115.787 326.84 115.723 326.83 115.648C326.82 115.563 326.81 115.472 326.81 115.376C326.81 115.248 326.82 115.141 326.84 115.056C326.85 114.971 326.89 114.901 326.94 114.848C326.98 114.795 327.05 114.768 327.13 114.768V116ZM345.3 116C344.38 116 343.65 115.861 343.12 115.584C342.6 115.296 342.22 114.859 342 114.272C341.79 113.675 341.68 112.917 341.68 112C341.68 111.093 341.79 110.341 342 109.744C342.22 109.147 342.6 108.709 343.12 108.432C343.65 108.144 344.38 108 345.3 108H348.66V115.312H347.28V108.704L347.9 109.232H345.3C344.71 109.232 344.25 109.307 343.92 109.456C343.6 109.595 343.38 109.861 343.25 110.256C343.12 110.651 343.06 111.232 343.06 112C343.06 112.768 343.11 113.349 343.23 113.744C343.36 114.139 343.59 114.411 343.92 114.56C344.25 114.699 344.71 114.768 345.3 114.768H350.38V116H345.3ZM350.38 116V114.768C350.45 114.768 350.5 114.784 350.54 114.816C350.59 114.837 350.62 114.875 350.64 114.928C350.66 114.981 350.68 115.045 350.69 115.12C350.7 115.195 350.7 115.28 350.7 115.376C350.7 115.472 350.7 115.563 350.69 115.648C350.68 115.723 350.66 115.787 350.64 115.84C350.62 115.893 350.59 115.936 350.54 115.968C350.5 115.989 350.45 116 350.38 116ZM343.65 106.56V105.072H345.01V106.56H343.65ZM345.94 106.56V105.072H347.3V106.56H345.94ZM350.42 116V114.768H352.81L352.15 115.312V108H353.51V116H350.42ZM350.42 116C350.36 116 350.31 115.989 350.26 115.968C350.22 115.936 350.19 115.893 350.17 115.84C350.15 115.787 350.13 115.723 350.12 115.648C350.11 115.563 350.1 115.472 350.1 115.376C350.1 115.248 350.11 115.141 350.14 115.056C350.15 114.971 350.18 114.901 350.23 114.848C350.27 114.795 350.34 114.768 350.42 114.768V116ZM352.15 118.96V117.472H353.53V118.96H352.15ZM357.72 116V114.768H359.77V116H357.72ZM355.05 119.6C354.91 119.6 354.76 119.589 354.62 119.568C354.46 119.557 354.3 119.547 354.15 119.536L354.28 118.304C354.43 118.315 354.57 118.325 354.71 118.336C354.84 118.357 354.95 118.368 355.05 118.368C355.54 118.368 355.93 118.181 356.23 117.808C356.53 117.435 356.68 116.917 356.68 116.256V108H358.06V116.256C358.06 116.917 357.93 117.499 357.67 118C357.42 118.512 357.06 118.907 356.6 119.184C356.15 119.461 355.63 119.6 355.05 119.6ZM359.77 116V114.768C359.83 114.768 359.88 114.784 359.93 114.816C359.97 114.837 360 114.875 360.02 114.928C360.04 114.981 360.06 115.045 360.07 115.12C360.08 115.195 360.09 115.28 360.09 115.376C360.09 115.472 360.08 115.563 360.07 115.648C360.06 115.723 360.04 115.787 360.02 115.84C360 115.893 359.97 115.936 359.93 115.968C359.88 115.989 359.83 116 359.77 116ZM367.77 116V114.768H369.5V116H367.77ZM359.8 116C359.74 116 359.68 115.989 359.64 115.968C359.6 115.936 359.57 115.893 359.54 115.84C359.52 115.787 359.51 115.723 359.5 115.648C359.49 115.563 359.48 115.472 359.48 115.376C359.48 115.248 359.49 115.141 359.51 115.056C359.52 114.971 359.56 114.901 359.61 114.848C359.65 114.795 359.72 114.768 359.8 114.768V116ZM359.8 116V114.768H366.82L366.41 115.136V111.312C366.41 110.619 366.19 110.101 365.75 109.76C365.33 109.419 364.68 109.248 363.8 109.248C363.52 109.248 363.13 109.275 362.62 109.328C362.12 109.371 361.58 109.429 361.02 109.504L360.86 108.4C361.29 108.293 361.77 108.203 362.28 108.128C362.8 108.043 363.31 108 363.8 108C364.61 108 365.32 108.128 365.91 108.384C366.51 108.64 366.97 109.013 367.29 109.504C367.61 109.995 367.77 110.597 367.77 111.312V116H359.8ZM369.5 116V114.768C369.56 114.768 369.61 114.784 369.66 114.816C369.7 114.837 369.73 114.875 369.75 114.928C369.77 114.981 369.79 115.045 369.8 115.12C369.81 115.195 369.82 115.28 369.82 115.376C369.82 115.472 369.81 115.563 369.8 115.648C369.79 115.723 369.77 115.787 369.75 115.84C369.73 115.893 369.7 115.936 369.66 115.968C369.61 115.989 369.56 116 369.5 116ZM363.14 118.96V117.472H364.52V118.96H363.14ZM369.54 116V114.768H372.06L371.38 115.312V108H372.76V116H369.54ZM369.54 116C369.48 116 369.43 115.989 369.38 115.968C369.34 115.936 369.31 115.893 369.29 115.84C369.27 115.787 369.25 115.723 369.24 115.648C369.23 115.563 369.22 115.472 369.22 115.376C369.22 115.248 369.23 115.141 369.26 115.056C369.27 114.971 369.3 114.901 369.35 114.848C369.39 114.795 369.46 114.768 369.54 114.768V116ZM370.26 106.56V105.072H371.62V106.56H370.26ZM372.55 106.56V105.072H373.91V106.56H372.55ZM157.09 140V138.768H158.8V140H157.09ZM150.85 140V138.768H156.8L155.71 139.728V136.352C155.71 135.563 155.62 134.944 155.44 134.496C155.27 134.037 154.98 133.712 154.58 133.52C154.17 133.328 153.63 133.232 152.95 133.232H151.65V132H152.95C153.82 132 154.57 132.139 155.19 132.416C155.8 132.683 156.27 133.136 156.59 133.776C156.92 134.405 157.09 135.264 157.09 136.352V140H150.85ZM158.8 140V138.768C158.87 138.768 158.92 138.784 158.96 138.816C159 138.837 159.04 138.875 159.06 138.928C159.08 138.981 159.1 139.045 159.11 139.12C159.12 139.195 159.12 139.28 159.12 139.376C159.12 139.472 159.12 139.563 159.11 139.648C159.1 139.723 159.08 139.787 159.06 139.84C159.04 139.893 159 139.936 158.96 139.968C158.92 139.989 158.87 140 158.8 140ZM158.84 140V138.768H161.36L160.68 139.312V132H162.06V140H158.84ZM158.84 140C158.78 140 158.73 139.989 158.68 139.968C158.64 139.936 158.61 139.893 158.59 139.84C158.57 139.787 158.55 139.723 158.54 139.648C158.53 139.563 158.52 139.472 158.52 139.376C158.52 139.248 158.53 139.141 158.56 139.056C158.57 138.971 158.6 138.901 158.65 138.848C158.69 138.795 158.76 138.768 158.84 138.768V140ZM159.48 142.96V141.472H160.84V142.96H159.48ZM161.77 142.96V141.472H163.13V142.96H161.77ZM170.26 140V138.768H171.98V140H170.26ZM164.02 140V138.768H169.98L168.89 139.728V136.352C168.89 135.563 168.8 134.944 168.62 134.496C168.44 134.037 168.16 133.712 167.75 133.52C167.35 133.328 166.8 133.232 166.12 133.232H164.82V132H166.12C166.99 132 167.74 132.139 168.36 132.416C168.98 132.683 169.45 133.136 169.77 133.776C170.1 134.405 170.26 135.264 170.26 136.352V140H164.02ZM171.98 140V138.768C172.04 138.768 172.09 138.784 172.14 138.816C172.18 138.837 172.21 138.875 172.23 138.928C172.25 138.981 172.27 139.045 172.28 139.12C172.29 139.195 172.3 139.28 172.3 139.376C172.3 139.472 172.29 139.563 172.28 139.648C172.27 139.723 172.25 139.787 172.23 139.84C172.21 139.893 172.18 139.936 172.14 139.968C172.09 139.989 172.04 140 171.98 140ZM179.99 140V138.768H181.71V140H179.99ZM172.02 140C171.95 140 171.9 139.989 171.86 139.968C171.81 139.936 171.78 139.893 171.76 139.84C171.74 139.787 171.72 139.723 171.71 139.648C171.7 139.563 171.7 139.472 171.7 139.376C171.7 139.248 171.71 139.141 171.73 139.056C171.74 138.971 171.77 138.901 171.83 138.848C171.87 138.795 171.93 138.768 172.02 138.768V140ZM172.02 140V138.768H179.04L178.63 139.136V135.312C178.63 134.619 178.41 134.101 177.97 133.76C177.54 133.419 176.89 133.248 176.02 133.248C175.74 133.248 175.35 133.275 174.83 133.328C174.33 133.371 173.8 133.429 173.23 133.504L173.07 132.4C173.51 132.293 173.99 132.203 174.5 132.128C175.02 132.043 175.53 132 176.02 132C176.83 132 177.53 132.128 178.13 132.384C178.73 132.64 179.19 133.013 179.51 133.504C179.83 133.995 179.99 134.597 179.99 135.312V140H172.02ZM181.71 140V138.768C181.78 138.768 181.83 138.784 181.87 138.816C181.92 138.837 181.95 138.875 181.97 138.928C181.99 138.981 182.01 139.045 182.02 139.12C182.03 139.195 182.03 139.28 182.03 139.376C182.03 139.472 182.03 139.563 182.02 139.648C182.01 139.723 181.99 139.787 181.97 139.84C181.95 139.893 181.92 139.936 181.87 139.968C181.83 139.989 181.78 140 181.71 140ZM175.36 142.96V141.472H176.74V142.96H175.36ZM183.68 140V128.544H185.06V140H183.68ZM181.76 140V138.768H183.68V140H181.76ZM181.76 140C181.7 140 181.64 139.989 181.6 139.968C181.56 139.936 181.53 139.893 181.5 139.84C181.48 139.787 181.47 139.723 181.46 139.648C181.45 139.563 181.44 139.472 181.44 139.376C181.44 139.248 181.45 139.141 181.47 139.056C181.48 138.971 181.51 138.901 181.57 138.848C181.61 138.795 181.67 138.768 181.76 138.768V140ZM187.82 140V128.544H189.18V140H187.82ZM198.56 140C197.64 140 196.92 139.861 196.38 139.584C195.86 139.296 195.49 138.859 195.26 138.272C195.05 137.675 194.94 136.917 194.94 136C194.94 135.093 195.05 134.341 195.26 133.744C195.49 133.147 195.86 132.709 196.38 132.432C196.92 132.144 197.64 132 198.56 132H201.92V139.312H200.54V132.704L201.17 133.232H198.56C197.97 133.232 197.51 133.307 197.18 133.456C196.86 133.595 196.64 133.861 196.51 134.256C196.38 134.651 196.32 135.232 196.32 136C196.32 136.768 196.38 137.349 196.49 137.744C196.62 138.139 196.85 138.411 197.18 138.56C197.51 138.699 197.97 138.768 198.56 138.768H203.65V140H198.56ZM203.65 140V138.768C203.71 138.768 203.76 138.784 203.81 138.816C203.85 138.837 203.88 138.875 203.9 138.928C203.92 138.981 203.94 139.045 203.95 139.12C203.96 139.195 203.97 139.28 203.97 139.376C203.97 139.472 203.96 139.563 203.95 139.648C203.94 139.723 203.92 139.787 203.9 139.84C203.88 139.893 203.85 139.936 203.81 139.968C203.76 139.989 203.71 140 203.65 140ZM196.91 130.56V129.072H198.27V130.56H196.91ZM199.2 130.56V129.072H200.56V130.56H199.2ZM203.69 140V138.768H206.01C206.61 138.768 207.2 138.667 207.77 138.464C208.33 138.261 208.85 137.989 209.32 137.648C209.8 137.307 210.21 136.933 210.57 136.528C210.92 136.112 211.19 135.691 211.38 135.264C211.57 134.827 211.67 134.421 211.67 134.048V133.072L212.39 134.176C211.78 133.867 211.18 133.632 210.58 133.472C210 133.312 209.42 133.232 208.85 133.232C208.3 133.232 207.72 133.312 207.13 133.472C206.53 133.632 205.93 133.867 205.33 134.176L206.05 133.072V134.048C206.05 134.421 206.15 134.827 206.34 135.264C206.54 135.691 206.82 136.112 207.16 136.528C207.51 136.933 207.92 137.307 208.39 137.648C208.86 137.989 209.38 138.261 209.94 138.464C210.51 138.667 211.1 138.768 211.72 138.768H213.93V140H211.8C210.97 140 210.19 139.867 209.46 139.6C208.74 139.333 208.08 138.981 207.49 138.544C206.91 138.096 206.4 137.611 205.97 137.088C205.56 136.555 205.24 136.027 205.01 135.504C204.79 134.971 204.68 134.485 204.68 134.048V133.088C205.14 132.843 205.61 132.64 206.09 132.48C206.57 132.32 207.04 132.203 207.51 132.128C207.98 132.043 208.43 132 208.85 132C209.29 132 209.74 132.043 210.21 132.128C210.68 132.203 211.15 132.32 211.62 132.48C212.1 132.64 212.57 132.843 213.03 133.088V134.048C213.03 134.485 212.92 134.971 212.69 135.504C212.47 136.027 212.14 136.555 211.72 137.088C211.3 137.611 210.8 138.096 210.21 138.544C209.63 138.981 208.97 139.333 208.25 139.6C207.52 139.867 206.74 140 205.91 140H203.69ZM203.69 140C203.62 140 203.57 139.989 203.53 139.968C203.48 139.936 203.45 139.893 203.43 139.84C203.41 139.787 203.39 139.723 203.38 139.648C203.37 139.563 203.37 139.472 203.37 139.376C203.37 139.248 203.38 139.141 203.4 139.056C203.41 138.971 203.44 138.901 203.49 138.848C203.54 138.795 203.6 138.768 203.69 138.768V140ZM213.93 140V138.768C213.99 138.768 214.04 138.784 214.09 138.816C214.13 138.837 214.16 138.875 214.18 138.928C214.2 138.981 214.22 139.045 214.23 139.12C214.24 139.195 214.25 139.28 214.25 139.376C214.25 139.472 214.24 139.563 214.23 139.648C214.22 139.723 214.2 139.787 214.18 139.84C214.16 139.893 214.13 139.936 214.09 139.968C214.04 139.989 213.99 140 213.93 140ZM222.52 140C222.15 140 221.78 139.931 221.42 139.792C221.05 139.643 220.71 139.419 220.39 139.12L221.27 138.192C221.52 138.395 221.74 138.544 221.93 138.64C222.12 138.725 222.32 138.768 222.52 138.768H225.38L224.81 139.344V135.552C224.81 135.371 224.79 135.104 224.74 134.752C224.71 134.4 224.66 134.005 224.58 133.568C224.52 133.12 224.44 132.672 224.34 132.224L225.69 132C225.76 132.373 225.84 132.789 225.91 133.248C225.99 133.707 226.05 134.144 226.1 134.56C226.16 134.976 226.18 135.307 226.18 135.552V140H222.52ZM213.96 140V138.768H216.3L215.96 139.104V133.6H217.3V140H213.96ZM217.3 140V138.768H219.05C219.41 138.768 219.68 138.715 219.86 138.608C220.06 138.501 220.19 138.288 220.26 137.968C220.34 137.648 220.38 137.179 220.38 136.56V132.8H221.74V136.56C221.74 137.403 221.65 138.08 221.46 138.592C221.28 139.093 220.99 139.456 220.6 139.68C220.21 139.893 219.69 140 219.05 140H217.3ZM213.96 140C213.9 140 213.84 139.989 213.8 139.968C213.76 139.936 213.73 139.893 213.7 139.84C213.68 139.787 213.67 139.723 213.66 139.648C213.65 139.563 213.64 139.472 213.64 139.376C213.64 139.248 213.65 139.141 213.67 139.056C213.68 138.971 213.71 138.901 213.77 138.848C213.81 138.795 213.87 138.768 213.96 138.768V140ZM220.42 128.4V127.008H221.67V128.4H220.42ZM219.22 130.56V129.072H220.58V130.56H219.22ZM221.51 130.56V129.072H222.87V130.56H221.51ZM236.54 140V138.768H238.25V140H236.54ZM228.05 140V138.768H235.92L235.17 139.536V128.544H236.54V140H228.05ZM230.56 138.768V130.816H231.92V138.768H230.56ZM238.25 140V138.768C238.32 138.768 238.37 138.784 238.41 138.816C238.46 138.837 238.49 138.875 238.51 138.928C238.53 138.981 238.55 139.045 238.56 139.12C238.57 139.195 238.57 139.28 238.57 139.376C238.57 139.472 238.57 139.563 238.56 139.648C238.55 139.723 238.53 139.787 238.51 139.84C238.49 139.893 238.46 139.936 238.41 139.968C238.37 139.989 238.32 140 238.25 140ZM230.46 129.712C230.29 129.499 230.16 129.291 230.06 129.088C229.97 128.875 229.92 128.656 229.92 128.432C229.92 128.112 230 127.829 230.16 127.584C230.32 127.328 230.53 127.131 230.8 126.992C231.07 126.843 231.35 126.768 231.66 126.768C231.83 126.768 232 126.795 232.17 126.848C232.36 126.891 232.51 126.955 232.64 127.04L232.21 127.808C232.12 127.755 232.04 127.723 231.95 127.712C231.88 127.691 231.8 127.68 231.71 127.68C231.47 127.68 231.27 127.749 231.12 127.888C230.98 128.027 230.91 128.208 230.91 128.432C230.91 128.56 230.94 128.688 230.99 128.816C231.05 128.944 231.15 129.083 231.26 129.232L230.46 129.712ZM229.61 129.728V128.832H232.86V129.728H229.61ZM240.21 140V128.544H241.59V140H240.21ZM238.29 140V138.768H240.21V140H238.29ZM238.29 140C238.23 140 238.17 139.989 238.13 139.968C238.09 139.936 238.06 139.893 238.03 139.84C238.01 139.787 238 139.723 237.99 139.648C237.98 139.563 237.97 139.472 237.97 139.376C237.97 139.248 237.98 139.141 238 139.056C238.01 138.971 238.04 138.901 238.1 138.848C238.14 138.795 238.2 138.768 238.29 138.768V140Z" fill="#6A6A6A"/>
</svg>
